<svg width="158" height="102" viewBox="0 0 158 102" fill="none" xmlns="http://www.w3.org/2000/svg">
<path d="M64.835 53.7123L68.4076 54.1545L67.0454 55.7396L69.1027 55.6589L68.7235 56.5972L69.6349 56.4428L67.9937 59.461L70.2327 58.2392L68.7291 61.1554L71.6621 59.2177L71.536 60.3021L72.9615 59.5724L73.3931 61.3025L74.25 60.4408C74.2458 60.6725 74.2517 60.8999 74.2677 61.1229C74.3268 62.0371 74.4801 62.9423 74.7253 63.825C75.058 63.0082 75.4712 62.2236 75.9591 61.4821C76.1144 61.2432 76.2788 61.0106 76.4458 60.7934L76.7915 61.727L77.8665 60.7575L78.8761 63.4448L80.2727 60.1374L81.73 61.9064L81.9429 60.949C82.19 61.3009 82.4609 61.6487 82.741 62.0028C83.6136 63.076 84.5766 64.077 85.6204 64.9956C85.0667 63.7979 84.614 62.558 84.2668 61.2877C84.2305 61.0734 84.1559 60.8734 84.1117 60.6604L85.9561 61.9229L85.3833 59.3112L89.1451 60.9182L86.9625 57.9965L93.769 60.7808L89.0597 56.5152L91.3184 57.0461L89.5005 55.3146L93.885 55.7847L89.8073 53.4673L91.8334 53.2029L90.108 52.3061L95.4198 51.3199L91.7287 50.3702L94.3123 49.5468L90.782 48.6801L92.5595 47.7176L90.7638 47.3209L96.6051 44.2134L90.8383 45.0169L92.2923 43.6368L89.8938 43.917L92.0019 41.9221L88.6186 42.5975L89.9882 39.9009L87.8431 41.0516C87.8436 41.0307 87.84 41.0099 87.8327 40.9904C88.285 40.0357 88.6409 39.0419 88.8956 38.0229C88.1731 38.7516 87.3815 39.413 86.5314 39.9981L86.3779 40.1029L87.9849 36.6416L84.8766 38.8925C85.053 38.0282 85.1774 37.1553 85.2491 36.2782C84.6179 37.234 83.9133 38.143 83.1415 38.9974L82.8871 39.2767L83.4528 35.6848L81.2421 38.4214L80.9084 37.0291L79.8855 38.2102L79.2909 34.988L78.0602 38.0233L77.2151 36.7884L76.7219 38.3051L75.6791 36.962L75.3758 38.1079C75.1744 37.9294 74.9624 37.7369 74.7451 37.5611C74.0792 37.0279 73.3609 36.5589 72.6001 36.1606C72.8787 36.8362 73.0978 37.534 73.255 38.2466L71.6921 37.2986L72.3573 39.4931L70.6127 38.8201L71.0154 40.0905L67.2373 38.2421L69.5849 41.5611L68.0112 41.5599L68.8114 42.7709L67.4763 42.8789L68.2312 44.255L65.6392 44.7885L67.547 46.0402L64.5067 46.815L67.0212 47.8459L61.7527 49.7618L67.5314 50.1847C67.5298 50.1978 67.5321 50.2111 67.5379 50.223L65.1214 51.648L67.3513 52.0578L64.835 53.7123ZM69.3695 49.2435C69.3784 48.9585 69.3741 48.6443 69.3976 48.3017C69.438 47.9344 69.4986 47.5693 69.5792 47.2079C69.7739 46.3157 70.1191 45.4591 70.6011 44.6726C71.1623 43.7326 71.9014 42.902 72.7792 42.2249C73.7702 41.4501 74.9157 40.8832 76.1418 40.5609C77.4472 40.2095 78.8131 40.1395 80.1429 40.3557C81.5325 40.5681 82.85 41.0857 83.9944 41.8691C85.1389 42.6524 86.08 43.6807 86.7459 44.8753C87.0889 45.4565 87.3531 46.0786 87.5323 46.7264C87.6462 47.0615 87.6361 47.3388 87.7434 47.6356C87.814 47.9515 87.8681 48.2709 87.9054 48.5924C87.9892 49.8095 87.8105 51.0329 87.3807 52.1853C87.0039 53.2061 86.4341 54.1518 85.7005 54.9739C85.0889 55.6716 84.3634 56.268 83.5536 56.7391C83.2267 56.9326 82.8889 57.1081 82.5419 57.2648C82.2141 57.3991 81.9048 57.4987 81.6286 57.6006C81.1996 57.7318 80.7603 57.8272 80.3153 57.886L79.8477 57.9652L80.2983 57.8338C80.7215 57.7059 81.1368 57.554 81.5421 57.379L82.366 56.9481C82.6772 56.7613 82.9775 56.558 83.2657 56.339C83.9593 55.8286 84.5682 55.2181 85.0708 54.5293C85.6592 53.7427 86.109 52.8682 86.4018 51.9417C86.7028 50.9006 86.7958 49.8158 86.6758 48.7456C86.6458 48.4726 86.5999 48.2018 86.5384 47.9342C86.4775 47.6438 86.399 47.3574 86.3034 47.0763C86.2174 46.8252 86.1159 46.5794 85.9994 46.3404C85.8824 46.0771 85.7491 45.8209 85.6004 45.5733C85.4438 45.3127 85.2732 45.0604 85.0892 44.8173C85.0557 45.3227 84.891 45.8132 84.6104 46.2434C84.3298 46.6735 83.9424 47.0295 83.484 47.2782C83.6563 47.4479 83.7839 47.6554 83.8562 47.8833C83.9285 48.1113 83.9436 48.3533 83.9 48.5893C83.8565 48.8253 83.7556 49.0486 83.6058 49.2406C83.456 49.4326 83.2615 49.5878 83.0385 49.6935C82.8154 49.7992 82.5701 49.8523 82.323 49.8484C82.0758 49.8445 81.8338 49.7836 81.617 49.671C81.4002 49.5583 81.2148 49.397 81.0762 49.2005C80.9376 49.0039 80.8497 48.7776 80.8197 48.5405C80.7592 48.1774 80.8413 47.804 81.0501 47.4936C80.4441 47.312 79.9126 46.9537 79.5279 46.4673C79.1433 45.9808 78.924 45.3899 78.9 44.7747C78.876 44.1595 79.0483 43.5499 79.3936 43.0287C79.7389 42.5075 80.2404 42.0999 80.83 41.8614C80.5287 41.7705 80.2222 41.6962 79.9118 41.6389C78.788 41.4411 77.632 41.4633 76.5121 41.7044C75.3921 41.9455 74.3308 42.4005 73.3906 43.0426C72.5777 43.6123 71.8688 44.3101 71.2942 45.1064C70.7876 45.7896 70.39 46.5418 70.1148 47.3377C69.9943 47.6706 69.8966 48.0107 69.8225 48.3557C69.7555 48.682 69.7163 48.98 69.6719 49.2474C69.6297 49.6741 69.6151 50.1026 69.6283 50.5304L69.648 50.9838C69.648 50.9838 69.6221 50.8307 69.5715 50.5321C69.4632 50.1101 69.393 49.6794 69.3616 49.2448L69.3695 49.2435Z" fill="white" fill-opacity="0.2"/>
<path d="M9.59671 73.4459L8.45195 73.4744L9.58835 73.589C9.88496 73.6397 10.1847 73.6731 10.4858 73.689C11.9365 73.7796 13.393 73.7749 14.8454 73.6751C16.3127 73.5263 17.7706 73.2926 19.211 72.9751C20.8381 72.6106 22.4436 72.1573 24.0197 71.6174C24.5814 71.4199 25.1247 71.2097 25.6442 71.0036C25.7864 71.1213 25.9919 71.2755 26.254 71.4752C25.5392 72.0687 24.7159 72.7436 23.9612 73.4383C22.7755 74.5766 21.6798 75.7993 20.6835 77.0959C19.8761 78.1539 19.4052 78.8872 19.4052 78.8872C19.4052 78.8872 20.0421 78.2675 21.0679 77.4403C22.3039 76.4347 23.6192 75.5247 25.0015 74.7189C25.4513 74.4537 25.9062 74.2034 26.3664 73.968C26.2035 74.1137 26.0328 74.2607 25.8792 74.4127C24.547 75.7418 23.4508 77.2741 22.6357 78.9464C22.4722 79.2812 22.3366 79.5877 22.2301 79.8734C22.1236 80.1592 22.0251 80.3963 21.9624 80.6038L21.7532 81.2456L22.0943 80.6602C22.1926 80.4703 22.3438 80.2557 22.5056 80.0079C22.6883 79.7316 22.8852 79.4644 23.0956 79.2071C24.1751 77.8252 25.4852 76.6264 26.9711 75.6609C27.7463 75.1607 28.5604 74.72 29.4058 74.343C29.6649 74.2362 29.9161 74.1306 30.1698 74.0404L30.3425 74.145C29.5548 74.7364 28.8171 75.388 28.1368 76.0934C27.0634 77.2141 26.1431 78.4631 25.3989 79.8092C25.0989 80.3482 24.8848 80.8175 24.7439 81.1406L24.5297 81.6572L24.8691 81.206C25.0918 80.9321 25.4072 80.5322 25.8311 80.0982C27.7821 78.041 30.2349 76.4904 32.96 75.5915L33.0945 75.6632L32.2833 76.2652C31.3974 76.9868 30.5622 77.7649 29.7833 78.5942C28.382 80.1405 27.2253 81.8785 26.3518 83.7503C26.171 84.1274 26.0181 84.4761 25.9009 84.7952C25.7838 85.1142 25.6654 85.3784 25.6026 85.6331L25.3733 86.3491L25.7331 85.6819C25.8447 85.474 26.0065 85.2261 26.187 84.9436C26.3674 84.661 26.5677 84.3515 26.8499 84.0439C28.0153 82.4465 29.425 81.0286 31.0297 79.8398C31.8699 79.2208 32.7526 78.6583 33.6716 78.1561C34.4329 77.7596 35.2169 77.406 36.0197 77.097L36.4877 77.3091C36.2333 77.5884 35.9816 77.883 35.7455 78.2222C35.1478 79.0098 34.6462 79.8611 34.251 80.7589C34.077 81.1558 33.928 81.5623 33.8049 81.9762C34.0788 81.6458 34.3743 81.3327 34.6898 81.0389C35.3471 80.4198 36.0759 79.8762 36.8613 79.4191C37.5551 79.0215 38.2899 78.6964 39.0534 78.4494L39.176 78.4995C38.9824 78.7528 38.7981 79.0123 38.6243 79.2859C38.1241 80.0332 37.6955 80.8227 37.3442 81.6445C37.0662 82.3136 36.9314 82.7695 36.9314 82.7695C36.9314 82.7695 37.2534 82.4079 37.783 81.9245C38.4176 81.3482 39.1047 80.8285 39.8356 80.3721C40.3171 80.0742 40.8156 79.8031 41.3287 79.5602C40.7909 80.2472 40.303 80.9693 39.8683 81.7209C39.0738 83.1179 38.5037 84.6218 38.1777 86.1806C38.0681 86.6824 37.9907 87.1899 37.9459 87.7002L37.8966 88.2755L38.0884 87.7233C38.2508 87.2512 38.445 86.7896 38.6697 86.3414C39.3339 84.9991 40.2046 83.7604 41.2517 82.6678C42.1363 81.748 43.136 80.9384 44.2271 80.2583L45.3523 80.5953C45.2661 80.7123 45.1707 80.8229 45.0937 80.9462C44.271 82.1587 43.6945 83.51 43.3953 84.9268C43.3385 85.1933 43.2997 85.4629 43.2793 85.7339C43.2535 85.9666 43.2291 86.1597 43.2246 86.3259L43.2059 86.8409L43.3684 86.3566C43.4274 86.1692 43.4999 85.9859 43.5854 85.8081C43.6752 85.5722 43.7836 85.3433 43.9096 85.1232C44.5263 83.9525 45.3671 82.9041 46.3868 82.0343C46.7358 81.7418 47.104 81.4716 47.4891 81.2255C48.1975 81.4127 48.9297 81.5957 49.6764 81.7685C49.3852 82.3889 49.1392 83.0278 48.9404 83.6806C48.5249 85.0754 48.3434 86.5233 48.4029 87.9686C48.4182 88.4333 48.4666 88.896 48.5477 89.3536L48.6346 89.8664C48.6346 89.8664 48.659 89.6733 48.693 89.3447C48.7424 88.8965 48.8223 88.4515 48.9321 88.0128C49.4414 85.8667 50.5403 83.8874 52.112 82.2852L52.8866 82.4296C52.7456 82.7527 52.6152 83.0897 52.5085 83.4228C52.0815 84.7165 51.8696 86.0655 51.8808 87.4189C51.8764 87.8516 51.906 88.2835 51.9692 88.7111C52.0211 89.0173 52.0509 89.1933 52.0509 89.1933L52.1316 88.7072C52.1959 88.2911 52.2925 87.8799 52.4206 87.4771C52.7762 86.2809 53.3271 85.1455 54.0524 84.1141C54.3785 83.6518 54.7404 83.2141 55.1351 82.8047C56.0391 82.9429 56.9576 83.0708 57.8973 83.1794C57.8406 83.567 57.7891 83.9851 57.7642 84.3673C57.6784 85.5997 57.7508 86.8358 57.9798 88.0475C58.0749 88.5845 58.2056 89.1147 58.3709 89.6348C58.3847 89.1004 58.4304 88.5668 58.5079 88.0368C58.6741 86.9048 58.9817 85.7951 59.4239 84.7319C59.5994 84.29 59.7981 83.8568 60.0195 83.4342C61.0213 83.5244 62.0363 83.5966 63.0713 83.6417C62.9629 84.1477 62.8806 84.6584 62.8249 85.1717C62.6995 86.4032 62.7342 87.6434 62.9282 88.863C63.0102 89.4014 63.1276 89.9338 63.2798 90.457C63.3013 89.9193 63.3603 89.3831 63.4564 88.8523C63.7614 87.0263 64.4567 85.2779 65.4977 83.719L67.041 83.7332C67.0769 84.0838 67.1357 84.4315 67.2173 84.7743C67.2796 85.0801 67.3607 85.3819 67.4601 85.678C67.6421 84.9958 67.9144 84.3383 68.2702 83.7219C69.3674 83.7014 70.47 83.6643 71.6016 83.6065C71.5955 84.3391 71.6405 85.0708 71.7361 85.7964C71.9155 87.0702 72.2552 88.3163 72.7477 89.5071C72.9055 89.8925 73.0837 90.2697 73.2815 90.6371L73.506 91.048C73.3911 90.5002 73.3108 89.9458 73.2656 89.3879C73.1751 88.1879 73.2446 86.98 73.4722 85.7937C73.6197 84.9881 73.8373 84.1953 74.1226 83.4237C74.8621 83.3614 75.6083 83.2902 76.369 83.2086L77.8415 88.5814L78.5667 82.9466C79.4861 82.7909 80.4291 82.6784 81.3644 82.52C81.7926 83.0927 82.1874 83.6883 82.5471 84.304C83.3693 85.6945 84.0441 87.163 84.5613 88.6874C84.5613 88.6874 84.5804 88.0779 84.5398 87.1162C84.4887 85.9727 84.3559 84.8349 84.1425 83.711C84.0478 83.1522 83.9136 82.6001 83.7765 82.08L85.0526 81.8639C85.2988 82.0663 85.5464 82.2763 85.7925 82.526C86.4774 83.1311 87.0723 83.8252 87.5605 84.5888C87.7047 84.8462 87.8092 85.1229 87.8709 85.4103C87.8997 85.5233 87.9192 85.6385 87.9292 85.7547C87.975 85.6433 88.0129 85.529 88.0425 85.4127C88.1104 85.0906 88.1287 84.7611 88.097 84.4349C87.9399 83.4574 87.6499 82.5058 87.2345 81.6046L87.1623 81.4672L88.7332 81.1145C89.3612 81.5856 89.9546 82.0981 90.5094 82.6484C91.3872 83.5807 92.161 84.6003 92.8183 85.6905C93.1224 86.1988 93.3988 86.7223 93.6465 87.2589C93.5816 86.6641 93.4816 86.0738 93.3471 85.4907C93.0266 84.1841 92.5604 82.9166 91.9567 81.7103C91.7337 81.2599 91.4815 80.8302 91.2307 80.4081L92.9801 79.9543C94.2589 80.8869 95.2383 82.1504 95.8073 83.6016C95.942 83.9368 96.0495 84.2819 96.1289 84.6337C96.173 84.894 96.1976 85.0394 96.1976 85.0394L96.2491 84.6213C96.2983 84.2497 96.3167 83.8754 96.304 83.5017C96.2655 82.3207 96.0052 81.1587 95.5358 80.0727C95.4283 79.8231 95.3063 79.584 95.1842 79.3448L96.7937 78.8832C96.9005 78.936 97.0152 78.9874 97.1417 79.0605C97.8925 79.4483 98.5895 79.9254 99.2167 80.4808C99.8765 81.0596 100.456 81.7181 100.943 82.4405C101.177 82.7771 101.389 83.1278 101.577 83.4905C101.559 83.073 101.513 82.6573 101.44 82.246C101.28 81.3121 101.003 80.4018 100.614 79.5355C100.372 78.994 100.09 78.4707 99.7698 77.9697L101.069 77.5528C101.517 77.8997 101.932 78.2854 102.308 78.7053C102.93 79.3978 103.451 80.1707 103.855 81.0024C104.044 81.3969 104.205 81.8036 104.338 82.2198C104.376 81.7754 104.385 81.3294 104.364 80.8845C104.322 79.8653 104.132 78.8585 103.801 77.8933C103.668 77.5206 103.517 77.1547 103.346 76.7971L105.594 76.0147C106.268 76.4487 106.898 76.9431 107.475 77.4915C107.961 77.9526 108.255 78.2964 108.255 78.2964C108.166 77.9314 108.056 77.5715 107.926 77.2183C107.71 76.6085 107.446 76.0161 107.137 75.4464L109.138 74.698C110.056 75.0104 110.941 75.4034 111.783 75.8721C111.45 75.2621 111.077 74.6729 110.669 74.108C111.594 73.7466 112.51 73.3788 113.409 73.0061C113.706 73.1621 113.988 73.3436 114.251 73.5486C114.518 73.7496 114.768 73.9705 114.999 74.2093C114.92 73.8784 114.816 73.5539 114.688 73.2384C114.606 73.0474 114.496 72.8299 114.377 72.606C126.728 67.4644 138.558 61.2026 149.708 53.9052L152.91 51.7251L149.269 50.4441C145.798 49.2052 145.135 48.9947 134.286 40.5877C131.606 38.5061 128.807 36.5721 125.902 34.7949C126.346 34.4254 126.746 34.009 127.094 33.5536C127.284 33.3061 127.455 33.0455 127.606 32.7739C127.336 32.9165 127.058 33.0425 126.773 33.1512C126.172 33.3733 125.543 33.5143 124.903 33.5702C124.537 33.6009 124.168 33.6001 123.802 33.5677C123.333 33.3007 122.896 33.0283 122.389 32.7833C122.779 32.3945 123.125 31.9663 123.421 31.5063C123.916 30.7346 124.245 29.8751 124.387 28.9804C124.43 28.7005 124.45 28.4179 124.448 28.1354C124.414 27.9364 124.396 27.8293 124.396 27.8293L124.264 28.1114C124.146 28.3542 124.008 28.5881 123.853 28.811C123.404 29.4497 122.824 29.9929 122.15 30.4065C121.533 30.7865 120.844 31.0424 120.125 31.1589C119.907 31.1988 119.687 31.2178 119.466 31.2154L119.3 31.2436L118.68 30.9549C119.114 30.458 119.49 29.9163 119.801 29.3398C120.31 28.4329 120.629 27.4395 120.74 26.4168C120.771 26.0962 120.776 25.7742 120.757 25.4534L120.697 25.1013L120.582 25.4356C120.48 25.73 120.351 26.0153 120.197 26.2884C119.778 27.0485 119.209 27.723 118.523 28.2729C117.837 28.8229 117.047 29.2376 116.198 29.4932C116.031 29.5314 115.862 29.5601 115.691 29.5791L115.604 29.5466C115.929 29.0814 116.217 28.593 116.465 28.0857C116.916 27.1688 117.215 26.1908 117.352 25.1874C117.418 24.7498 117.444 24.3081 117.431 23.867C117.257 24.2713 117.051 24.6617 116.813 25.0347C115.912 26.5355 114.574 27.7488 112.968 28.5206L111.699 28.0582C112.312 27.3608 112.865 26.6167 113.353 25.8333C114.044 24.7171 114.581 23.5195 114.951 22.2712C115.095 21.7744 115.186 21.3495 115.242 21.0564C115.299 20.7634 115.327 20.5933 115.327 20.5933L115.105 21.0167C114.962 21.2772 114.755 21.643 114.468 22.0695C113.12 24.0627 111.267 25.6918 109.089 26.7995L108.6 27.0398L107.613 26.7502L107.86 26.425C108.483 25.522 108.946 24.5252 109.228 23.4767C109.314 23.1417 109.379 22.8019 109.422 22.4595L109.464 22.0823L109.277 22.4211C109.125 22.7263 108.949 23.0195 108.749 23.298C108.172 24.0855 107.461 24.7731 106.647 25.3311C106.175 25.6429 105.675 25.9121 105.153 26.1354C104.353 25.9401 103.549 25.7614 102.746 25.5981C102.89 25.3375 103.039 25.0604 103.171 24.7859C103.622 23.8926 104.011 22.9718 104.335 22.0297C104.582 21.2713 104.708 20.7619 104.708 20.7619C103.855 21.8656 102.895 22.8879 101.841 23.8143C101.312 24.2769 100.757 24.7101 100.177 25.1119C99.4661 25.004 98.7548 24.8961 98.0395 24.8125C98.2949 23.9646 98.4865 23.1006 98.6127 22.2272C98.7692 21.0767 98.8047 19.9151 98.7185 18.7604C98.6343 17.8297 98.5147 17.22 98.5147 17.22C98.5147 17.22 98.4217 17.8263 98.1879 18.7085C97.8971 19.7607 97.4935 20.7818 96.9836 21.755C96.4906 22.6979 95.8985 23.5898 95.2167 24.4166L95.1491 24.4989L93.8622 24.4097C93.8876 23.8857 93.8919 23.3338 93.8633 22.7796C93.8241 21.7184 93.6998 20.6627 93.4915 19.622C93.3489 18.78 93.1605 18.2449 93.1605 18.2449C93.1605 18.2449 93.1099 18.8126 92.9568 19.6417C92.7789 20.6373 92.5198 21.6185 92.1819 22.5762C91.9733 23.1526 91.7345 23.7187 91.4663 24.2722C90.7046 24.2516 89.9296 24.249 89.1638 24.2527C87.6293 22.6694 86.4195 20.8175 85.5976 18.7935C85.2242 17.8882 85.0427 17.2497 85.0427 17.2497C85.0427 17.2497 85.0155 17.9078 85.0797 18.9127C85.1631 20.1529 85.3711 21.3809 85.7007 22.5793C85.8691 23.1886 86.0759 23.7835 86.2946 24.3528L85.8575 24.3717C84.0379 22.6514 82.5947 20.5938 81.6119 18.3189C81.3542 17.7344 81.1304 17.1361 80.9415 16.5269C80.9591 17.1716 81.0108 17.8146 81.0966 18.4534C81.2899 19.8933 81.6468 21.3063 82.1608 22.667C82.4092 23.3295 82.6959 23.9776 83.0195 24.6082L82.6391 24.6727L81.9553 24.1979C79.3945 22.3602 77.3151 19.9688 75.8801 17.2109C75.5783 16.6321 75.3633 16.133 75.2087 15.7497L74.9834 15.1895C74.9834 15.1895 75.0197 15.4038 75.0832 15.7789C75.1467 16.1539 75.2401 16.7051 75.3503 17.3557C75.7378 18.9513 76.3115 20.4972 77.0602 21.9639C77.6332 23.0664 78.2998 24.1202 79.0532 25.1146L78.8234 25.1536L78.7022 25.0638C77.2723 23.994 75.9716 22.7724 74.824 21.4213C73.654 20.0436 72.6477 18.5423 71.8238 16.9451C71.476 16.2874 71.2243 15.7159 71.0579 15.311L70.7958 14.6782L70.9112 15.3594C70.9838 15.7881 71.0888 16.4081 71.3176 17.1332C71.8073 18.9241 72.4996 20.6553 73.3822 22.2955C74.0293 23.4911 74.7685 24.6372 75.5935 25.7242C75.2844 25.7765 74.9753 25.8289 74.6819 25.9258L73.9931 25.3732C73.3426 24.8266 72.7242 24.2452 72.141 23.6317C71.4746 22.9097 70.8532 22.1499 70.2799 21.3563C69.1973 19.8325 68.3226 18.1785 67.6771 16.4347C67.5423 16.0717 67.4285 15.7367 67.3449 15.4359C67.2613 15.135 67.1684 14.8752 67.1201 14.6865L66.9388 14.0007C66.9388 14.0007 66.9815 14.2533 66.9775 14.7107C66.9829 14.9355 67.0024 15.1946 67.0358 15.4882C67.0692 15.7818 67.113 16.1366 67.1671 16.5526C67.4572 18.4784 68.0001 20.3578 68.7829 22.1453C69.2151 23.1148 69.7095 24.0567 70.2633 24.9655C70.6733 25.6047 71.0767 26.2057 71.4764 26.7364C70.9576 26.8821 70.4395 27.0328 69.9224 27.1886C69.4648 26.9369 69.0271 26.6531 68.6127 26.3395C67.829 25.7557 67.0085 25.0994 66.2106 24.3841C64.743 23.1326 63.3632 21.788 62.0802 20.3591C61.0158 19.1771 60.3741 18.3252 60.3741 18.3252C60.3741 18.3252 60.8372 19.2782 61.6409 20.654C62.6358 22.3485 63.7425 23.9785 64.9541 25.5339C65.6208 26.3896 66.3233 27.2155 66.9995 27.9829L67.1469 28.1311L65.9269 28.5819C65.093 28.209 64.2894 27.7766 63.5228 27.2882C62.2951 26.5077 61.1661 25.5918 60.158 24.5588C59.7342 24.1266 59.4093 23.7485 59.1606 23.4836L58.8107 23.0546C58.8107 23.0546 58.8986 23.2366 59.0336 23.5523C59.1686 23.868 59.4022 24.3324 59.7042 24.864C60.4453 26.1845 61.3407 27.4172 62.3729 28.5381C62.7124 28.9058 63.0743 29.2618 63.4416 29.6012L62.9935 29.7952C61.3884 28.7849 59.8422 27.6904 58.3616 26.5166C56.8009 25.2725 55.311 23.9477 53.8983 22.548C52.7414 21.3974 52.0098 20.5922 52.0098 20.5922C52.0098 20.5922 52.5667 21.5215 53.488 22.8695C54.6171 24.5279 55.84 26.124 57.1514 27.6507C58.1747 28.879 59.3012 30.0426 60.312 31.0525L59.4498 31.4978C58.6557 31.2858 57.7351 31.0008 56.8634 30.6681C55.9917 30.3354 54.7417 29.8384 53.6778 29.3335C51.7107 28.392 49.844 27.2684 48.1035 25.9783C47.3777 25.4477 46.8075 24.9694 46.4085 24.6354L45.787 24.095C45.787 24.095 45.9804 24.3221 46.3026 24.7321C46.6248 25.1421 47.1195 25.704 47.7432 26.3543C49.2716 27.9702 50.9591 29.438 52.7822 30.7372C53.7834 31.4496 54.8323 32.1066 55.8444 32.6911L56.5812 33.0939L55.7968 33.5653C55.2979 33.5081 54.7635 33.4333 54.2185 33.3444C53.0924 33.1363 51.9841 32.8504 50.902 32.4888C48.8402 31.7935 46.9052 30.7932 45.1655 29.5232C44.8377 29.2913 44.5234 29.0422 44.2238 28.7772C43.9394 28.5419 43.6931 28.3395 43.5075 28.1583L42.9138 27.5895L43.4003 28.2473C43.5514 28.4658 43.7553 28.7069 43.9987 28.9885C44.2556 29.3083 44.5305 29.614 44.8223 29.9042C46.3843 31.527 48.1988 32.9037 50.2016 33.9854C51.1327 34.491 52.0986 34.9351 53.0928 35.3147L52.1944 35.9314L51.1344 35.4495C50.3038 35.0705 49.3548 34.5698 48.3703 34.0042C47.3858 33.4386 46.3674 32.7686 45.3715 32.0396C43.5481 30.7027 41.8671 29.1939 40.3527 27.5351C39.7158 26.8555 39.2305 26.2527 38.8978 25.8287L38.3639 25.1317C38.3639 25.1317 38.5162 25.4051 38.7631 25.8515C39.0099 26.2979 39.3998 27.0114 39.907 27.7917C41.15 29.736 42.5938 31.5518 44.2166 33.2116C45.1049 34.1241 46.0502 34.9877 46.9732 35.7684C47.8963 36.5491 48.7999 37.215 49.6023 37.7641L49.2847 38.0069L48.9906 37.9071C47.797 37.503 46.4455 36.9366 45.0071 36.2904C43.5687 35.6442 42.0898 34.8553 40.6402 33.9984C37.9659 32.413 35.4679 30.5672 33.1847 28.4893C32.7133 28.0651 32.2868 27.6649 31.9315 27.2999C31.5761 26.9349 31.247 26.6284 30.9561 26.3548L30.1587 25.4977L30.8397 26.4375C31.0552 26.7475 31.3339 27.1412 31.6483 27.5053C31.9627 27.8694 32.3321 28.3659 32.7636 28.8913C34.7975 31.2805 37.079 33.4611 39.573 35.3996C40.9507 36.4577 42.3643 37.4388 43.7835 38.3087C44.8325 38.9184 45.8499 39.5336 46.7884 40.0203L46.3039 40.4331L45.887 40.3304C44.4667 39.9654 43.0676 39.5295 41.6953 39.0246C40.1152 38.4313 38.5695 37.7574 37.0648 37.0056C34.2296 35.5653 31.5758 33.8169 29.1542 31.794C28.6511 31.3752 28.2021 30.9867 27.8217 30.618C27.4413 30.2494 27.0897 29.9546 26.8463 29.673L26.0106 28.8302L26.7404 29.7696C26.9705 30.0693 27.2665 30.4207 27.6125 30.8267C27.9584 31.2327 28.3518 31.6779 28.7992 32.1533C31.0099 34.5076 33.4936 36.6072 36.2022 38.4115C37.6604 39.3754 39.1715 40.2628 40.729 41.0701C41.8732 41.6638 42.9557 42.134 43.9644 42.5538L43.6903 42.8128C42.9893 42.7661 42.2159 42.6766 41.3806 42.5583C40.3679 42.3874 39.3663 42.1628 38.3804 41.8852C36.5025 41.349 34.7 40.5969 33.0113 39.6449C32.3101 39.2597 31.7501 38.89 31.3628 38.6248L30.7541 38.2082L31.2674 38.7355C31.7199 39.204 32.198 39.6487 32.6997 40.0678C34.2308 41.3722 35.918 42.4952 37.7261 43.4134C38.1097 43.6083 38.5065 43.7852 38.8941 43.9558C38.0536 43.8068 37.204 43.6042 36.3505 43.3787C34.7257 42.9279 33.1326 42.3799 31.5802 41.7377C30.0395 41.0684 28.5476 40.3005 27.1143 39.4389C25.8464 38.6723 24.6327 37.8258 23.4809 36.9045L22.7539 36.319L22.1219 35.7646C21.7283 35.4139 21.382 35.1025 21.1492 34.8348L20.2976 33.9948L21.2912 34.9997C21.5226 35.307 21.8252 35.6495 22.1778 36.0465L22.7422 36.6832C22.9489 36.8923 23.1673 37.123 23.4029 37.3587C24.4518 38.4305 25.5747 39.432 26.7642 40.3565C28.1458 41.4176 29.5986 42.3894 31.1133 43.2656C32.6521 44.1262 34.2444 44.8952 35.8815 45.5684C37.2265 46.0951 38.5996 46.5538 39.9952 46.9426L39.6865 47.2862L39.3524 47.2877C37.8943 47.2831 36.4387 47.193 34.9938 47.018C33.3256 46.7958 31.6761 46.4648 30.0564 46.0274C28.4293 45.5763 26.8383 45.0143 25.2955 44.3454C23.9379 43.7513 22.6258 43.0658 21.3689 42.2939L20.5769 41.8059L19.8839 41.3249C19.4505 41.0282 19.0645 40.7707 18.7787 40.5278L17.8383 39.7894L18.682 40.6308C18.9492 40.9084 19.2941 41.2121 19.6957 41.5615C19.8892 41.7413 20.0999 41.9261 20.329 42.1235C20.5581 42.3209 20.8097 42.5067 21.0639 42.7077C22.2301 43.6324 23.4627 44.4761 24.7528 45.2327C26.2592 46.1254 27.831 46.9118 29.4561 47.5858C30.333 47.9491 31.2681 48.2711 32.1808 48.5574C30.8506 48.3575 29.4691 48.0954 28.0984 47.7527C26.4393 47.3365 24.8088 46.8238 23.2156 46.2174C21.8163 45.6722 20.4545 45.0428 19.1379 44.3332L18.3048 43.8916L17.5708 43.4568C17.1082 43.1808 16.6693 42.9481 16.3862 42.7204L15.3769 42.0567L16.3238 42.8334C16.6108 43.084 16.9862 43.3747 17.4077 43.6971L18.0912 44.2191L18.8764 44.7633C20.1208 45.6375 21.4213 46.435 22.7704 47.1511C24.3272 47.9754 25.9351 48.7075 27.5851 49.3436C29.2549 49.9661 30.9615 50.4947 32.6962 50.9269C33.6804 51.1539 34.6265 51.348 35.5184 51.5119C34.5518 51.5812 33.4743 51.6219 32.3362 51.6414C30.7958 51.633 29.2578 51.5492 27.7279 51.3904C24.841 51.0752 22.002 50.4549 19.2616 49.5407C18.6931 49.3614 18.1801 49.1727 17.7291 49.0128C17.278 48.853 16.86 48.6954 16.5581 48.5497L15.5561 48.121L16.4666 48.6833C16.7658 48.861 17.1427 49.0649 17.5711 49.2837C17.9995 49.5025 18.47 49.7771 19.0264 50.0294C21.6975 51.3166 24.5079 52.319 27.4087 53.0193C28.563 53.2884 29.7242 53.5012 30.8723 53.6847C29.368 53.8528 27.7647 54.0141 26.1683 54.0719C23.317 54.2314 20.4642 53.9155 17.7347 53.138C16.8261 52.8661 15.9471 52.5115 15.1094 52.0786C14.7996 51.9342 14.5782 51.7828 14.4161 51.6921L14.1723 51.5523L14.3975 51.7267C14.5384 51.8367 14.7465 52.0062 15.0324 52.2019C15.8105 52.7489 16.6415 53.2225 17.5141 53.6163C20.2161 54.7838 23.1102 55.4921 26.0708 55.7105C28.1826 55.904 30.2922 55.9405 32.1538 55.9559C31.4719 56.1659 30.7398 56.3686 29.9576 56.5641C27.1698 57.2055 24.2974 57.4021 21.4546 57.1459C20.1982 57.0317 18.9534 56.8267 17.7307 56.5324L16.9576 56.3484L16.2704 56.142C15.8404 56.01 15.4619 55.8931 15.156 55.7716L14.1986 55.4141L15.0961 55.8999C15.3768 56.0649 15.7394 56.2319 16.1547 56.4214L16.8099 56.7278L17.5615 57.0257C18.7662 57.4935 20.0053 57.8758 21.2692 58.1694C22.7376 58.4966 24.2302 58.7176 25.7349 58.8305C26.87 58.9016 28.0091 58.9085 29.1464 58.8511C28.2289 59.2585 27.2679 59.6496 26.266 59.9925C25.0714 60.3855 23.8561 60.7149 22.6256 60.9792C21.5381 61.2023 20.4398 61.3699 19.3353 61.4813C18.8518 61.5632 18.4029 61.5605 18.0068 61.5803C17.6106 61.6002 17.2567 61.6286 16.9703 61.622L16.017 61.626L16.9104 61.7502C17.1955 61.7965 17.5439 61.8319 17.9412 61.867C18.3385 61.9021 18.7714 61.9548 19.2889 61.9774C20.4238 62.0403 21.5622 62.0447 22.6991 61.9904C24.0107 61.9236 25.3182 61.7837 26.6149 61.5713C26.1603 61.727 25.7056 61.8828 25.2405 62.0245C22.7718 62.7887 20.2401 63.3387 17.6755 63.668C16.6293 63.8452 15.7314 63.887 15.1094 63.9214L14.1336 63.9844L15.109 64.0633C15.7294 64.1157 16.627 64.1684 17.6977 64.1839C20.347 64.2282 22.9978 64.0428 25.6183 63.6299L26.1256 63.544L25.774 63.6823C23.8512 64.3636 21.859 64.8383 19.8336 65.0978C19.1599 65.1932 18.482 65.2554 17.8025 65.2843L16.9944 65.3267L17.7624 65.4328C18.2547 65.4991 18.9608 65.5763 19.8162 65.6204C20.9899 65.6815 22.1673 65.6715 23.3414 65.5903C22.7716 65.8365 22.1912 66.0686 21.603 66.3021C19.581 67.0826 17.5175 67.7554 15.4218 68.3175C13.6896 68.7762 12.5151 69.0145 12.5151 69.0145C12.5151 69.0145 13.7074 68.9779 15.5074 68.8227C17.7163 68.6232 19.9133 68.3037 22.0879 67.8657L22.405 67.812L21.5193 68.1667C19.2259 69.0596 16.8597 69.7607 14.4467 70.2622C13.4466 70.471 12.6079 70.5736 12.0214 70.673L11.102 70.8287L12.0341 70.844C12.6295 70.8456 13.4838 70.8347 14.4702 70.7858C16.9954 70.6498 19.5064 70.3035 21.9751 69.751C22.5062 69.661 23.0255 69.5022 23.5395 69.36L23.1428 69.569C21.7241 70.2642 20.2657 70.8793 18.7749 71.4111C16.1036 72.4292 13.3085 73.1012 10.4629 73.4094C10.1748 73.4358 9.88573 73.4479 9.59671 73.4459ZM98.6932 71.3723L99.7921 70.3988C101.847 68.4702 103.614 66.273 105.038 63.8724C105.7 62.7753 106.289 61.6393 106.802 60.4712C107.076 59.9209 107.236 59.3268 107.454 58.7859C107.672 58.245 107.863 57.6852 107.987 57.1207C108.112 56.5563 108.251 56.0288 108.37 55.4811C108.512 54.9733 108.62 54.4578 108.696 53.9377C108.808 52.9186 108.98 51.9603 109.023 51.0554C109.065 50.1506 109.068 49.2997 109.068 48.5281C109.068 47.7565 108.935 47.023 108.875 46.3796L108.779 45.4746C108.732 45.199 108.688 44.9387 108.649 44.7091C108.568 44.2269 108.458 43.8202 108.385 43.4861L108.168 42.4914C108.168 42.4914 108.172 42.8529 108.172 43.53C108.174 43.8762 108.183 44.3156 108.19 44.787C108.23 45.0243 108.202 45.2966 108.192 45.5739C108.182 45.8512 108.143 46.1492 108.122 46.4598C108.066 47.0914 108.027 47.7752 107.948 48.513C107.869 49.2508 107.687 50.0533 107.538 50.9053C107.389 51.7574 107.088 52.6273 106.846 53.5581C106.666 54.1791 106.422 54.811 106.173 55.4594C108.209 48.3252 107.274 40.7349 103.572 34.3246C105.287 34.8216 107.215 35.4714 109.131 36.1942C111.571 37.1402 113.958 38.205 116.284 39.3845C118.207 40.3423 119.452 41.0526 119.452 41.0526C119.452 41.0526 118.325 40.1727 116.569 38.9504C114.813 37.7281 112.388 36.1701 109.859 34.7638C109.032 34.3055 108.191 33.8652 107.369 33.4453C108.768 33.8541 110.105 34.2891 111.376 34.7667C113.83 35.6345 116.032 36.6002 117.984 37.4824L120.654 38.8097L122.927 39.9996C124.27 40.7565 125.368 41.3185 126.086 41.756L127.198 42.355L126.297 41.4604C125.7 40.8763 124.817 40.0417 123.632 39.014L121.633 37.3682C121.009 36.8598 120.304 36.3571 119.561 35.8215C123.824 38.1078 127.872 40.747 131.659 43.7098C139.007 49.4025 141.909 51.5174 144.225 52.7236C141.601 54.365 137.412 56.8777 132.12 59.7187L132.851 59.2171C134.74 57.9995 136.33 56.8482 137.63 55.9037C138.929 54.9592 139.93 54.1755 140.615 53.65L141.64 52.815C141.64 52.815 140.001 53.6831 137.144 55.1513C136.431 55.5161 135.641 55.9097 134.761 56.3423C133.88 56.7749 132.965 57.2449 131.955 57.7309C130.945 58.217 129.884 58.7431 128.741 59.2596C127.597 59.7761 126.436 60.3822 125.176 60.9342C122.68 62.0814 119.962 63.2662 117.083 64.5175C115.635 65.1093 114.153 65.7461 112.624 66.3514C111.096 66.9567 109.568 67.5619 107.944 68.1757L103.066 69.9466L98.6932 71.3723ZM67.5382 70.3495L67.4666 67.9048L65.7541 69.2028L66.9636 64.5017L63.8244 67.7736C63.7972 67.6129 63.8651 67.436 63.892 67.2582C64.0289 66.4624 64.243 65.68 64.5317 64.9215C63.7733 65.3663 63.0634 65.8849 62.4131 66.4693L62.3284 66.5466L62.3595 66.2973C62.4601 65.5827 62.6127 64.8753 62.8164 64.1805C62.1433 64.5706 61.5007 65.0084 60.8939 65.4903L62.4606 61.8391L59.242 64.3055L59.2832 64.2119C59.6155 63.5014 59.9974 62.8132 60.4264 62.1521C59.6612 62.3929 58.912 62.6802 58.1832 63.0123L58.3217 62.6267C58.5494 62.04 58.8176 61.4685 59.1245 60.9159C58.4669 61.0298 57.8183 61.1897 57.1835 61.3942C57.0171 61.4224 56.8584 61.4965 56.6972 61.5553C56.916 61.2584 57.1651 60.9485 57.4235 60.6449C58.0487 59.8952 58.717 59.18 59.4251 58.5027C58.4256 58.7131 57.439 58.9801 56.4705 59.3023C56.2379 59.3732 56.0066 59.4517 55.7766 59.5379L55.7689 59.492C56.037 59.042 56.2515 58.5645 56.4084 58.0687C55.9198 58.1206 55.4273 58.1194 54.9402 58.0654L54.6565 58.0268L56.1041 56.1281L54.5961 56.226L54.7775 56.0456C55.387 55.4634 56.0324 54.9176 56.7102 54.4112C55.8282 54.4086 54.9462 54.458 54.0692 54.5593L53.9583 54.5781L55.8875 53.2119L53.1313 53.0173L56.9413 51.0098L53.9499 50.4849L55.3851 49.6197L54.0205 49.0241L58.2358 48.6881L55.1201 47.3811C55.7342 47.1908 56.3319 46.9526 56.9073 46.6689C56.3605 46.4192 55.8364 46.126 55.3402 45.7926L58.2889 45.1987L56.9608 44.337L59.0757 44.3568L57.6087 43.1564L60.6791 43.3293L59.2389 41.9984L62.0316 42.3128L59.836 40.6137L62.483 41.0788L61.3415 39.6343L63.8681 39.7734L62.9247 38.2953L65.5617 39.4235L64.2722 37.2009L66.0521 37.553L65.7931 36.3606C65.9566 36.4117 66.1281 36.4614 66.3022 36.5264C66.8779 36.7363 67.434 36.9924 67.9647 37.2921C67.8956 36.7286 67.7849 36.1711 67.6332 35.6238L69.6605 36.6663L69.0884 34.6844L71.2626 35.6312L71.4164 34.1326L72.9358 35.4974L73.1089 33.7279L74.0974 35.1353L74.2032 32.9677L75.3609 34.7008L76.244 33.0788L77.1394 35.0926L78.0378 32.7907L78.8575 34.5496L79.8577 32.1754L80.4066 33.5392L81.4561 31.889L82.2238 33.3889L83.0262 32.2057L83.6977 33.6669L84.8062 32.1248L85.6475 35.8406L87.0318 32.6534L87.4945 35.0002L88.9435 32.676L89.6241 34.5766L91.1158 32.9381L91.0604 35.0656L93.1931 33.2162L92.6466 35.2852L94.5677 34.4007C94.4534 34.6406 94.3325 34.8894 94.2208 35.1446C93.708 36.2901 93.2782 37.468 92.9345 38.6696C93.7585 37.7546 94.6452 36.8941 95.5883 36.0941C95.9801 35.76 96.3838 35.4475 96.7609 35.1711L96.5884 35.8853L97.8095 35.4895L96.6661 37.6439L99.3392 36.0966L96.9036 38.9501L100.681 37.5229L98.6655 39.5809L101.758 39.0178L100.134 40.7417L102.657 40.6214C102.672 40.7056 102.685 40.7822 102.698 40.8587L98.2014 43.195L102.833 43.0562L100.284 44.2754L103.55 44.8326L103.157 45.0172C102.152 45.4866 101.086 45.8798 101.086 45.8798C101.086 45.8798 102.05 46.2757 103.11 46.6158L101.592 47.2823L102.816 48.1065L99.311 48.5427L102.593 49.7742L101.106 50.1365L102.553 51.3166L101.152 51.6167L102.075 52.5392L99.2493 52.6556L102.285 54.5037L100.185 54.5208L101.471 55.807L99.5233 55.814L100.835 57.206L98.0074 56.2991L99.1086 57.9867L97.3273 57.6269L99.0828 59.9045L97.1458 59.5396L98.2277 61.4509L96.4074 60.9088L97.5591 62.8949L94.9338 61.8355L95.9033 63.3722L93.7693 62.2769L95.244 64.8225L93.8779 64.2664L94.1867 65.1748L91.9947 63.5932L92.8839 65.9072L90.9997 64.6987L91.6989 66.9977L90.5868 66.3041L90.6332 68.3593L88.3794 65.8354L88.9732 69.3413C88.7285 69.052 88.4549 68.7361 88.168 68.4383C87.5336 67.7665 86.8622 67.1285 86.1566 66.5269C86.3505 67.3938 86.4989 68.2701 86.6012 69.1524C86.6401 69.3821 86.6764 69.5964 86.6731 69.8174L84.1894 66.9467L84.4944 70.336L83.3147 68.8586L83.0215 70.5934L81.1664 66.3799L80.6608 71.0483L79.2809 67.715L78.2676 72.1781L76.7347 67.9415L75.9438 71.7921C75.8829 71.6704 75.829 71.5454 75.7826 71.4178C75.5174 70.776 75.3071 70.1138 75.1537 69.4376C74.774 70.0142 74.4372 70.616 74.146 71.2383L73.2595 67.2072L71.733 71.5288C71.6415 71.2416 71.57 70.9486 71.5192 70.6516C71.3676 69.8535 71.3011 69.0416 71.3208 68.2285C70.7506 68.8997 70.2561 69.6276 69.8459 70.3996L69.7038 70.6678C69.6584 70.3998 69.6117 70.1243 69.6272 69.8303C69.5795 68.9503 69.6016 68.0673 69.6935 67.1891C69.0658 67.8885 68.497 68.6353 67.9926 69.4221C67.8264 69.7888 67.6685 70.0597 67.5172 70.3215L67.5382 70.3495ZM29.3573 68.7133C31.2755 65.2618 33.3802 61.9089 35.6625 58.6688C35.4434 59.0603 35.2482 59.4477 35.0423 59.8211L33.9379 62.1578C33.5991 62.853 33.3476 63.4862 33.1082 64.0464L32.5321 65.459C32.2313 66.2344 32.0637 66.6407 32.0637 66.6407L32.8445 65.6187C33.343 64.9516 34.0551 63.9569 34.9976 62.7343L36.5619 60.7055L38.4387 58.3561C39.1107 57.51 39.8474 56.6608 40.6318 55.7563L41.831 54.3642L42.9888 53.1129L42.7393 53.5174C39.9499 58.0844 37.6523 62.8595 37.6523 62.8595C37.6523 62.8595 40.6854 58.4796 44.128 54.4476C45.9117 52.3187 47.7941 50.2912 49.1914 48.8655C49.22 54.3747 50.9419 59.7323 54.138 64.2565C53.7 63.7401 53.2725 63.2377 52.9083 62.7246C52.3814 61.924 51.8332 61.1901 51.3813 60.4477C50.9294 59.7053 50.591 59.0067 50.2063 58.3238C49.8216 57.6409 49.6242 57.005 49.3646 56.4348C49.2334 56.1421 49.1141 55.8709 49.0054 55.6137C48.8966 55.3566 48.8287 55.1003 48.7489 54.8698C48.5972 54.4072 48.4651 54.0123 48.3539 53.6925C48.1301 53.0454 48.015 52.7027 48.015 52.7027C48.015 52.7027 48.0746 53.0548 48.1253 53.7391C48.1823 54.0759 48.2153 54.5113 48.2719 54.9899C48.3134 55.2349 48.3588 55.5028 48.4016 55.7554C48.4443 56.008 48.5001 56.3371 48.6166 56.6402C48.7705 57.2599 48.9307 57.965 49.1317 58.7184C49.3327 59.4718 49.6842 60.1997 50.0062 61.0901C50.3282 61.9804 50.8142 62.78 51.2642 63.7038C51.4993 64.1729 51.7692 64.6246 52.072 65.0553C52.3623 65.5179 52.6685 65.9779 52.9732 66.4775C53.278 66.977 53.6886 67.38 54.0251 67.8742C54.3878 68.3527 54.7759 68.8126 55.1879 69.2521C56.059 70.187 56.9897 71.0681 57.9747 71.8904C60.1136 73.6837 62.5041 75.1764 65.0771 76.3255L67.1433 77.1645L67.2147 77.1525L66.8476 77.1516C63.622 77.1702 60.4015 76.9737 57.2089 76.5635C55.6806 76.3972 54.228 76.0526 52.783 75.8485C51.3379 75.6444 50.0044 75.2325 48.6955 74.9659C47.3867 74.6994 46.1298 74.2587 44.989 73.8771L43.2625 73.3112L42.4025 73.0474L41.6245 72.7382C40.6039 72.3441 39.6439 71.9713 38.7711 71.5836L37.5081 71.0101L36.3809 70.4687C34.8716 69.7528 33.4094 68.9486 32.0025 68.0606C32.0025 68.0606 32.3104 68.3864 32.9688 68.9521C33.899 69.7617 34.8742 70.5218 35.8901 71.229L36.9348 71.9576L38.1128 72.703C38.9217 73.2432 39.8523 73.7313 40.8263 74.2829L41.5802 74.6907L42.3804 75.0827L44.0506 75.8944L44.6241 76.1516C39.1835 74.3997 34.0416 71.8945 29.3573 68.7133Z" fill="white" fill-opacity="0.2"/>
<path d="M39.2837 69.3158C40.4032 69.764 41.7299 70.2323 43.1649 70.7137C44.5998 71.1951 46.1073 71.7193 47.6439 72.1756C49.1806 72.6319 50.7092 73.1368 52.1616 73.5287C53.614 73.9205 54.9779 74.3194 56.1587 74.5998C57.3395 74.8801 58.309 75.1648 59.0043 75.3226L60.0886 75.6114L58.9652 75.5733C58.2484 75.5294 57.2241 75.4509 55.9981 75.2884C54.7721 75.126 53.3694 74.8832 51.8625 74.603C50.3557 74.3227 48.7755 73.8502 47.2071 73.3992C45.6387 72.9483 44.1342 72.3449 42.7115 71.7433C41.2888 71.1417 40.0563 70.5079 38.9517 69.9548C37.847 69.4017 37.013 68.8579 36.4042 68.4885L35.4819 67.8573L36.533 68.2384C37.1856 68.5294 38.1403 68.9189 39.2837 69.3158Z" fill="white" fill-opacity="0.2"/>
<path d="M111.012 64.9632C112.429 64.3294 114.037 63.5689 115.826 62.7226C117.615 61.8763 119.463 61.0436 121.323 60.1379C123.184 59.2323 125.106 58.4028 126.821 57.5532C128.536 56.7037 130.222 55.9694 131.614 55.2847C133.007 54.6001 134.203 54.0589 135.028 53.6829L136.332 53.0999L135.155 53.9054C134.424 54.3994 133.303 55.101 131.983 55.9231C130.663 56.7451 129.057 57.6154 127.359 58.5645C125.661 59.5135 123.774 60.4079 121.899 61.3239C120.024 62.2399 118.108 63.0055 116.295 63.7613C114.483 64.5171 112.771 65.1455 111.299 65.6469C109.826 66.1482 108.572 66.5417 107.704 66.8069L106.32 67.2066L107.607 66.5713C108.432 66.1954 109.642 65.6362 111.012 64.9632Z" fill="white" fill-opacity="0.2"/>
<path d="M127.251 55.7087L124.017 57.4138L120.25 59.2409L116.407 60.9075L113.002 62.2717L110.546 63.1285L109.601 63.4224L110.442 62.902L112.668 61.6037L115.902 59.8986L119.669 58.0716L123.512 56.4049L126.917 55.0407L129.364 54.1776L130.309 53.8837L129.477 54.4104L127.251 55.7087Z" fill="white" fill-opacity="0.2"/>
<path d="M52.2769 72.1389L49.8125 71.5484L47.0518 70.701L44.3564 69.6614L42.0757 68.6145L40.5046 67.7625L39.9221 67.4044L40.603 67.5253L42.3498 67.9224L44.7796 68.5975L47.5204 69.472L50.2093 70.4733L52.526 71.4432L54.1317 72.2106L54.7406 72.5327L54.0504 72.4528L52.2769 72.1389Z" fill="white" fill-opacity="0.2"/>
</svg>
