<svg width="319" height="205" viewBox="0 0 319 205" fill="none" xmlns="http://www.w3.org/2000/svg">
<path d="M131.303 108.162L138.563 109.061L135.795 112.282L139.975 112.118L139.205 114.025L141.057 113.711L137.722 119.845L142.272 117.362L139.216 123.288L145.177 119.35L144.921 121.554L147.818 120.071L148.695 123.587L150.436 121.836C150.428 122.307 150.44 122.769 150.472 123.222C150.592 125.08 150.904 126.92 151.402 128.714C152.078 127.054 152.918 125.459 153.91 123.952C154.225 123.467 154.559 122.994 154.899 122.553L155.601 124.45L157.786 122.48L159.838 127.941L162.676 121.219L165.638 124.814L166.07 122.869C166.573 123.584 167.123 124.291 167.692 125.011C169.466 127.192 171.423 129.226 173.544 131.093C172.419 128.659 171.499 126.139 170.793 123.557C170.719 123.122 170.568 122.715 170.478 122.282L174.226 124.848L173.062 119.54L180.707 122.806L176.272 116.868L190.104 122.527L180.534 113.858L185.124 114.937L181.429 111.418L190.34 112.373L182.053 107.664L186.17 107.127L182.664 105.304L193.459 103.3L185.958 101.37L191.208 99.6964L184.034 97.935L187.646 95.979L183.997 95.1728L195.868 88.8576L184.148 90.4904L187.103 87.6856L182.229 88.2551L186.513 84.201L179.637 85.5736L182.42 80.0933L178.061 82.4319C178.062 82.3894 178.055 82.3473 178.04 82.3075C178.959 80.3673 179.683 78.3476 180.2 76.2767C178.732 77.7577 177.123 79.1018 175.395 80.291L175.084 80.5038L178.349 73.4697L172.032 78.0441C172.391 76.2876 172.644 74.5136 172.789 72.731C171.507 74.6735 170.075 76.5209 168.506 78.2573L167.989 78.8249L169.139 71.525L164.646 77.0867L163.968 74.2571L161.889 76.6575L160.681 70.1091L158.18 76.2776L156.462 73.768L155.46 76.8502L153.341 74.1207L152.724 76.4494C152.315 76.0867 151.884 75.6956 151.442 75.3383C150.089 74.2547 148.629 73.3015 147.083 72.492C147.649 73.8651 148.095 75.2832 148.414 76.7313L145.238 74.8048L146.59 79.2646L143.044 77.8968L143.863 80.4786L136.184 76.7222L140.956 83.4674L137.757 83.465L139.384 85.926L136.67 86.1455L138.204 88.9421L132.937 90.0263L136.814 92.5702L130.635 94.1447L135.745 96.2397L125.038 100.133L136.782 100.993C136.779 101.02 136.784 101.047 136.795 101.071L131.884 103.967L136.416 104.799L131.303 108.162ZM140.518 99.08C140.536 98.5009 140.527 97.8623 140.575 97.1661C140.657 96.4197 140.78 95.6777 140.944 94.9432C141.34 93.13 142.041 91.3891 143.021 89.7907C144.161 87.8804 145.663 86.1925 147.447 84.8163C149.461 83.2418 151.789 82.0897 154.281 81.4346C156.934 80.7206 159.71 80.5783 162.412 81.0176C165.236 81.4492 167.914 82.5012 170.24 84.0932C172.565 85.6852 174.478 87.775 175.831 90.2027C176.528 91.3839 177.065 92.6481 177.43 93.9647C177.661 94.6456 177.64 95.2092 177.858 95.8124C178.002 96.4544 178.112 97.1034 178.188 97.7569C178.358 100.23 177.995 102.717 177.121 105.059C176.356 107.133 175.198 109.055 173.707 110.726C172.464 112.144 170.99 113.356 169.344 114.313C168.679 114.706 167.993 115.063 167.288 115.382C166.621 115.654 165.993 115.857 165.431 116.064C164.56 116.331 163.667 116.525 162.763 116.644L161.812 116.805L162.728 116.538C163.588 116.278 164.432 115.969 165.256 115.614L166.93 114.738C167.563 114.358 168.173 113.945 168.759 113.5C170.168 112.463 171.406 111.222 172.427 109.822C173.623 108.224 174.537 106.446 175.132 104.563C175.744 102.448 175.933 100.243 175.689 98.0681C175.628 97.5135 175.535 96.963 175.41 96.4192C175.286 95.8291 175.126 95.247 174.932 94.6758C174.757 94.1654 174.551 93.666 174.314 93.1801C174.076 92.645 173.806 92.1244 173.503 91.6212C173.185 91.0916 172.838 90.5788 172.464 90.0849C172.396 91.1119 172.062 92.1088 171.491 92.983C170.921 93.8572 170.134 94.5806 169.202 95.0861C169.552 95.431 169.812 95.8525 169.959 96.3159C170.106 96.7792 170.136 97.271 170.048 97.7507C169.959 98.2303 169.754 98.6839 169.45 99.0741C169.145 99.4643 168.75 99.7799 168.297 99.9947C167.843 100.209 167.345 100.317 166.843 100.309C166.34 100.301 165.849 100.178 165.408 99.9488C164.967 99.7199 164.591 99.3921 164.309 98.9926C164.027 98.5931 163.849 98.1333 163.788 97.6513C163.665 96.9135 163.832 96.1546 164.256 95.5237C163.024 95.1548 161.944 94.4265 161.162 93.438C160.381 92.4495 159.935 91.2485 159.886 89.9983C159.837 88.7481 160.188 87.5092 160.889 86.45C161.591 85.3907 162.61 84.5624 163.809 84.0776C163.196 83.8928 162.573 83.7419 161.943 83.6255C159.659 83.2234 157.309 83.2686 155.033 83.7585C152.757 84.2485 150.6 85.1732 148.69 86.4782C147.038 87.636 145.597 89.0541 144.429 90.6723C143.4 92.0607 142.592 93.5896 142.032 95.2069C141.787 95.8836 141.589 96.5747 141.438 97.2758C141.302 97.939 141.223 98.5446 141.132 99.088C141.046 99.9551 141.017 100.826 141.044 101.695L141.084 102.617C141.084 102.617 141.031 102.306 140.928 101.699C140.708 100.841 140.566 99.9659 140.502 99.0827L140.518 99.08Z" fill="white" fill-opacity="0.2"/>
<path d="M19.0435 148.266L16.7171 148.324L19.0265 148.557C19.6293 148.66 20.2384 148.728 20.8504 148.76C23.7987 148.944 26.7587 148.934 29.7102 148.732C32.6923 148.429 35.6551 147.954 38.5824 147.309C41.8892 146.568 45.1519 145.647 48.355 144.55C49.4965 144.148 50.6006 143.721 51.6564 143.302C51.9454 143.542 52.363 143.855 52.8957 144.261C51.4431 145.467 49.7699 146.838 48.2361 148.25C45.8265 150.564 43.5997 153.048 41.5749 155.684C39.9341 157.834 38.977 159.324 38.977 159.324C38.977 159.324 40.2715 158.065 42.3562 156.383C44.8679 154.34 47.541 152.49 50.3504 150.853C51.2643 150.314 52.1889 149.805 53.1241 149.327C52.7932 149.623 52.4461 149.922 52.1339 150.231C49.4267 152.932 47.1989 156.046 45.5422 159.444C45.2101 160.125 44.9345 160.747 44.718 161.328C44.5016 161.909 44.3015 162.391 44.1741 162.813L43.7488 164.117L44.442 162.927C44.6418 162.541 44.949 162.105 45.2779 161.601C45.6492 161.04 46.0494 160.497 46.477 159.974C48.6708 157.166 51.3333 154.729 54.353 152.767C55.9284 151.751 57.5829 150.855 59.301 150.089C59.8276 149.872 60.338 149.657 60.8538 149.474L61.2046 149.687C59.6037 150.888 58.1047 152.213 56.7221 153.646C54.5407 155.924 52.6704 158.462 51.1579 161.198C50.5481 162.293 50.1132 163.247 49.8267 163.904L49.3915 164.953L50.0812 164.036C50.5337 163.48 51.1748 162.667 52.0362 161.785C56.0013 157.604 60.986 154.453 66.5241 152.626L66.7974 152.772L65.1488 153.995C63.3484 155.462 61.651 157.043 60.0683 158.728C57.2203 161.871 54.8696 165.403 53.0944 169.207C52.7271 169.973 52.4163 170.682 52.1782 171.331C51.94 171.979 51.6996 172.516 51.5718 173.034L51.1058 174.489L51.8372 173.133C52.0639 172.71 52.3928 172.206 52.7595 171.632C53.1262 171.058 53.5333 170.429 54.1067 169.804C56.4752 166.557 59.3401 163.676 62.6013 161.26C64.3088 160.002 66.1027 158.859 67.9702 157.838C69.5175 157.032 71.1108 156.314 72.7422 155.686L73.6933 156.117C73.1764 156.684 72.6647 157.283 72.185 157.973C70.9703 159.573 69.951 161.303 69.1477 163.128C68.7941 163.934 68.4914 164.761 68.2412 165.602C68.7977 164.93 69.3984 164.294 70.0394 163.697C71.3753 162.439 72.8564 161.334 74.4527 160.405C75.8625 159.597 77.356 158.936 78.9075 158.434L79.1567 158.536C78.7634 159.051 78.3888 159.578 78.0355 160.134C77.0189 161.653 76.148 163.257 75.4341 164.927C74.8691 166.287 74.5952 167.214 74.5952 167.214C74.5952 167.214 75.2495 166.479 76.3258 165.497C77.6155 164.325 79.0117 163.269 80.4971 162.342C81.4758 161.736 82.4889 161.185 83.5315 160.692C82.4387 162.088 81.447 163.555 80.5637 165.083C78.949 167.922 77.7903 170.978 77.1279 174.146C76.9051 175.166 76.7478 176.197 76.6568 177.234L76.5566 178.404L76.9464 177.281C77.2765 176.322 77.6711 175.384 78.1277 174.473C79.4777 171.745 81.2471 169.228 83.375 167.007C85.1729 165.138 87.2046 163.493 89.422 162.11L91.7086 162.795C91.5334 163.033 91.3395 163.258 91.1831 163.508C89.5112 165.973 88.3395 168.719 87.7316 171.598C87.6161 172.14 87.5373 172.688 87.4957 173.238C87.4432 173.711 87.3937 174.104 87.3846 174.441L87.3465 175.488L87.6769 174.504C87.7967 174.123 87.944 173.75 88.1177 173.389C88.3002 172.91 88.5206 172.444 88.7767 171.997C90.0299 169.618 91.7387 167.487 93.8111 165.72C94.5202 165.125 95.2686 164.576 96.0512 164.076C97.4909 164.456 98.9789 164.828 100.496 165.18C99.9045 166.44 99.4047 167.739 99.0006 169.065C98.1562 171.9 97.7873 174.843 97.9082 177.78C97.9395 178.724 98.0378 179.665 98.2026 180.594L98.3792 181.637C98.3792 181.637 98.4287 181.244 98.4978 180.576C98.5982 179.666 98.7605 178.761 98.9839 177.87C100.019 173.508 102.252 169.486 105.446 166.23L107.02 166.523C106.734 167.18 106.469 167.865 106.252 168.541C105.384 171.171 104.954 173.912 104.976 176.663C104.967 177.542 105.028 178.42 105.156 179.289C105.261 179.911 105.322 180.269 105.322 180.269L105.486 179.281C105.617 178.435 105.813 177.6 106.073 176.781C106.796 174.35 107.916 172.043 109.39 169.946C110.052 169.007 110.788 168.117 111.59 167.285C113.427 167.566 115.294 167.826 117.203 168.047C117.088 168.835 116.984 169.684 116.933 170.461C116.759 172.966 116.906 175.478 117.371 177.94C117.565 179.032 117.83 180.109 118.166 181.166C118.194 180.08 118.287 178.996 118.444 177.918C118.782 175.618 119.407 173.363 120.306 171.202C120.663 170.304 121.067 169.424 121.516 168.565C123.552 168.748 125.615 168.895 127.718 168.987C127.498 170.015 127.331 171.053 127.218 172.096C126.963 174.599 127.033 177.119 127.428 179.597C127.594 180.692 127.833 181.774 128.142 182.837C128.186 181.744 128.306 180.655 128.501 179.576C129.121 175.865 130.534 172.312 132.65 169.144L135.786 169.172C135.859 169.885 135.979 170.591 136.144 171.288C136.271 171.91 136.436 172.523 136.638 173.125C137.008 171.738 137.561 170.402 138.284 169.149C140.514 169.108 142.755 169.032 145.054 168.915C145.042 170.404 145.133 171.891 145.328 173.365C145.692 175.954 146.383 178.487 147.384 180.906C147.704 181.69 148.066 182.456 148.468 183.203L148.925 184.038C148.691 182.925 148.528 181.798 148.436 180.664C148.252 178.226 148.393 175.771 148.856 173.36C149.156 171.723 149.598 170.111 150.178 168.543C151.681 168.417 153.197 168.272 154.743 168.106L157.736 179.025L159.209 167.574C161.078 167.257 162.994 167.029 164.895 166.707C165.765 167.871 166.568 169.081 167.299 170.332C168.97 173.158 170.341 176.143 171.392 179.241C171.392 179.241 171.431 178.002 171.348 176.048C171.244 173.724 170.975 171.411 170.541 169.127C170.348 167.992 170.076 166.87 169.797 165.813L172.39 165.373C172.891 165.785 173.394 166.212 173.894 166.719C175.286 167.949 176.495 169.359 177.487 170.911C177.78 171.434 177.993 171.997 178.118 172.581C178.176 172.81 178.216 173.044 178.237 173.281C178.33 173.054 178.407 172.822 178.467 172.586C178.605 171.931 178.642 171.261 178.578 170.598C178.258 168.612 177.669 166.678 176.825 164.846L176.678 164.567L179.87 163.851C181.147 164.808 182.353 165.849 183.48 166.968C185.264 168.863 186.837 170.935 188.173 173.15C188.79 174.183 189.352 175.247 189.856 176.338C189.724 175.129 189.52 173.929 189.247 172.744C188.596 170.089 187.648 167.513 186.422 165.061C185.968 164.146 185.456 163.273 184.946 162.415L188.501 161.493C191.1 163.388 193.091 165.956 194.247 168.905C194.521 169.586 194.739 170.287 194.901 171.003C194.99 171.531 195.04 171.827 195.04 171.827L195.145 170.977C195.245 170.222 195.282 169.461 195.256 168.702C195.178 166.302 194.649 163.94 193.695 161.733C193.477 161.226 193.229 160.74 192.981 160.254L196.252 159.316C196.469 159.423 196.702 159.528 196.959 159.676C198.485 160.464 199.901 161.434 201.176 162.563C202.517 163.739 203.695 165.077 204.684 166.545C205.159 167.229 205.59 167.942 205.973 168.679C205.936 167.831 205.843 166.986 205.694 166.15C205.369 164.252 204.805 162.402 204.015 160.641C203.524 159.541 202.951 158.478 202.3 157.459L204.94 156.612C205.851 157.317 206.694 158.101 207.458 158.954C208.723 160.362 209.78 161.932 210.601 163.623C210.986 164.424 211.314 165.251 211.583 166.097C211.661 165.194 211.679 164.287 211.638 163.383C211.55 161.312 211.165 159.266 210.492 157.304C210.223 156.547 209.914 155.803 209.568 155.076L214.137 153.486C215.506 154.368 216.786 155.373 217.959 156.488C218.946 157.425 219.545 158.123 219.545 158.123C219.362 157.381 219.139 156.65 218.876 155.932C218.437 154.693 217.901 153.489 217.272 152.331L221.339 150.81C223.203 151.445 225.002 152.244 226.714 153.197C226.036 151.957 225.28 150.759 224.449 149.611C226.33 148.877 228.192 148.129 230.019 147.372C230.622 147.689 231.195 148.058 231.73 148.474C232.272 148.883 232.78 149.332 233.249 149.817C233.09 149.145 232.878 148.485 232.617 147.844C232.452 147.456 232.228 147.014 231.985 146.559C257.086 136.11 281.128 123.384 303.789 108.554L310.296 104.123L302.896 101.52C295.842 99.002 294.493 98.5742 272.446 81.489C267 77.2586 261.312 73.3283 255.407 69.7164C256.309 68.9655 257.122 68.1193 257.83 67.1937C258.216 66.6907 258.564 66.1611 258.87 65.6092C258.323 65.899 257.757 66.1551 257.177 66.376C255.955 66.8273 254.677 67.1139 253.378 67.2275C252.633 67.29 251.884 67.2883 251.14 67.2224C250.187 66.6798 249.298 66.1263 248.269 65.6284C249.062 64.8381 249.764 63.9679 250.365 63.0331C251.371 61.4647 252.039 59.7181 252.329 57.8997C252.416 57.3309 252.457 56.7567 252.452 56.1826C252.383 55.7781 252.347 55.5603 252.347 55.5603L252.079 56.1337C251.838 56.6272 251.559 57.1025 251.243 57.5555C250.33 58.8534 249.152 59.9575 247.782 60.798C246.528 61.5702 245.128 62.0904 243.667 62.3272C243.225 62.4082 242.776 62.4467 242.328 62.442L241.99 62.4992L240.73 61.9124C241.613 60.9027 242.377 59.8017 243.008 58.6302C244.042 56.7872 244.692 54.7681 244.918 52.6898C244.98 52.0383 244.991 51.3839 244.951 50.7319L244.83 50.0163L244.597 50.6959C244.388 51.294 244.126 51.8739 243.813 52.4288C242.962 53.9737 241.807 55.3443 240.412 56.462C239.018 57.5797 237.412 58.4224 235.687 58.9419C235.347 59.0196 235.003 59.0779 234.656 59.1165L234.479 59.0504C235.141 58.1051 235.726 57.1125 236.23 56.0815C237.145 54.2181 237.753 52.2304 238.033 50.1913C238.165 49.3021 238.218 48.4043 238.191 47.508C237.839 48.3295 237.419 49.123 236.936 49.8809C235.105 52.9311 232.386 55.3968 229.122 56.9652L226.544 56.0257C227.789 54.6083 228.912 53.096 229.904 51.504C231.308 49.2355 232.4 46.8016 233.152 44.2649C233.445 43.2551 233.63 42.3916 233.744 41.7961C233.859 41.2006 233.916 40.8549 233.916 40.8549L233.466 41.7153C233.174 42.2448 232.753 42.9882 232.171 43.8549C229.431 47.9056 225.666 51.2164 221.239 53.4675L220.245 53.956L218.24 53.3674L218.741 52.7065C220.008 50.8713 220.948 48.8455 221.521 46.7148C221.697 46.0339 221.829 45.3434 221.916 44.6475L222.002 43.8809L221.621 44.5694C221.313 45.1897 220.954 45.7857 220.548 46.3515C219.376 47.952 217.931 49.3495 216.277 50.4834C215.318 51.117 214.301 51.6642 213.24 52.1179C211.615 51.721 209.98 51.3579 208.349 51.0259C208.641 50.4965 208.943 49.9332 209.213 49.3754C210.129 47.5599 210.919 45.6886 211.578 43.774C212.079 42.2329 212.335 41.1974 212.335 41.1974C210.603 43.4405 208.652 45.5181 206.509 47.4009C205.434 48.341 204.305 49.2214 203.128 50.0379C201.683 49.8186 200.237 49.5994 198.783 49.4295C199.302 47.7063 199.692 45.9503 199.948 44.1754C200.266 41.8373 200.338 39.4766 200.163 37.1299C199.992 35.2385 199.749 33.9995 199.749 33.9995C199.749 33.9995 199.56 35.2317 199.085 37.0244C198.494 39.1629 197.674 41.238 196.638 43.2159C195.636 45.132 194.432 46.9447 193.047 48.6248L192.909 48.7921L190.294 48.611C190.346 47.546 190.354 46.4244 190.296 45.298C190.216 43.1414 189.964 40.9959 189.541 38.8809C189.251 37.1697 188.868 36.0824 188.868 36.0824C188.868 36.0824 188.765 37.236 188.454 38.921C188.092 40.9442 187.566 42.9384 186.879 44.8846C186.455 46.0561 185.97 47.2066 185.425 48.3314C183.877 48.2895 182.302 48.2842 180.746 48.2918C177.627 45.0741 175.168 41.3105 173.498 37.1972C172.739 35.3575 172.37 34.0597 172.37 34.0597C172.37 34.0597 172.315 35.3973 172.446 37.4395C172.615 39.9599 173.038 42.4554 173.708 44.891C174.05 46.1292 174.47 47.3383 174.915 48.4952L174.026 48.5336C170.328 45.0375 167.395 40.8559 165.398 36.2327C164.874 35.0448 164.42 33.829 164.036 32.5908C164.071 33.9011 164.176 35.2079 164.351 36.5061C164.744 39.4323 165.469 42.304 166.514 45.0692C167.018 46.4156 167.601 47.7327 168.259 49.0144L167.486 49.1453L166.096 48.1804C160.892 44.4458 156.666 39.5857 153.75 33.9809C153.136 32.8046 152.699 31.7904 152.385 31.0115L151.927 29.8728C151.927 29.8728 152.001 30.3084 152.13 31.0707C152.259 31.8329 152.449 32.953 152.673 34.2753C153.46 37.518 154.626 40.6597 156.148 43.6403C157.312 45.8809 158.667 48.0226 160.198 50.0435L159.731 50.1226L159.485 49.9403C156.579 47.7661 153.935 45.2833 151.603 42.5377C149.225 39.7378 147.18 36.6866 145.506 33.4407C144.799 32.1042 144.288 30.9426 143.949 30.1198L143.417 28.8338L143.651 30.2183C143.799 31.0894 144.012 32.3495 144.477 33.823C145.472 37.4627 146.879 40.9809 148.673 44.3142C149.988 46.744 151.49 49.0732 153.167 51.2823C152.539 51.3887 151.911 51.4951 151.314 51.6921L149.915 50.5689C148.593 49.4581 147.336 48.2766 146.15 47.0298C144.796 45.5625 143.533 44.0184 142.368 42.4055C140.168 39.3088 138.391 35.9474 137.079 32.4036C136.805 31.6659 136.573 30.9849 136.404 30.3736C136.234 29.7622 136.045 29.2341 135.947 28.8507L135.578 27.4569C135.578 27.4569 135.665 27.9702 135.657 28.8998C135.668 29.3566 135.707 29.8834 135.775 30.48C135.843 31.0766 135.932 31.7976 136.042 32.6431C136.632 36.5569 137.735 40.3762 139.326 44.0089C140.204 45.9793 141.209 47.8935 142.335 49.7403C143.168 51.0395 143.988 52.2608 144.8 53.3395C143.746 53.6354 142.693 53.9417 141.642 54.2584C140.712 53.7468 139.822 53.1701 138.98 52.5328C137.387 51.3464 135.72 50.0125 134.098 48.5588C131.116 46.0154 128.312 43.2828 125.704 40.379C123.541 37.9769 122.237 36.2454 122.237 36.2454C122.237 36.2454 123.178 38.1824 124.812 40.9782C126.833 44.422 129.082 47.7346 131.545 50.8956C132.9 52.6345 134.327 54.313 135.702 55.8725L136.001 56.1739L133.522 57.0898C131.827 56.3321 130.194 55.4534 128.636 54.4608C126.141 52.8745 123.846 51.0133 121.798 48.9138C120.937 48.0355 120.276 47.2672 119.771 46.7287L119.06 45.857C119.06 45.857 119.238 46.2268 119.513 46.8684C119.787 47.5101 120.262 48.4539 120.876 49.5341C122.382 52.2178 124.201 54.7229 126.299 57.0009C126.989 57.7482 127.725 58.4717 128.471 59.1615L127.56 59.5558C124.298 57.5025 121.156 55.2782 118.147 52.8927C114.975 50.3643 111.947 47.672 109.076 44.8274C106.725 42.4891 105.239 40.8526 105.239 40.8526C105.239 40.8526 106.37 42.7413 108.243 45.4807C110.537 48.851 113.023 52.0948 115.688 55.1975C117.767 57.6938 120.057 60.0585 122.111 62.1109L120.359 63.0158C118.745 62.585 116.874 62.0058 115.102 61.3296C113.331 60.6535 110.79 59.6435 108.628 58.6175C104.631 56.704 100.837 54.4206 97.2999 51.7987C95.8249 50.7203 94.6661 49.7483 93.8552 49.0695L92.5922 47.9712C92.5922 47.9712 92.9852 48.4328 93.6399 49.266C94.2947 50.0993 95.3 51.2412 96.5677 52.5628C99.6737 55.8467 103.103 58.8296 106.808 61.4701C108.843 62.9178 110.975 64.2531 113.032 65.4409L114.529 66.2595L112.935 67.2176C111.921 67.1013 110.835 66.9492 109.727 66.7687C107.439 66.3458 105.186 65.7646 102.987 65.0297C98.7969 63.6167 94.8646 61.5839 91.3289 59.0029C90.6629 58.5316 90.024 58.0255 89.4152 57.4867C88.8372 57.0086 88.3367 56.5972 87.9595 56.229L86.753 55.0732L87.7416 56.41C88.0488 56.854 88.4631 57.3439 88.9577 57.9163C89.4798 58.5661 90.0385 59.1873 90.6316 59.7771C93.8059 63.0752 97.4934 65.8729 101.564 68.0713C103.456 69.0987 105.419 70.0012 107.439 70.7727L105.614 72.0261L103.459 71.0467C101.771 70.2764 99.8428 69.2589 97.842 68.1095C95.8413 66.9601 93.7715 65.5984 91.7477 64.1168C88.042 61.3999 84.6257 58.3337 81.5481 54.9625C80.2537 53.5815 79.2675 52.3563 78.5913 51.4947L77.5064 50.0781C77.5064 50.0781 77.8159 50.6338 78.3175 51.541C78.8191 52.4482 79.6115 53.8983 80.6422 55.484C83.1684 59.4353 86.1026 63.1255 89.4006 66.4987C91.2059 68.3533 93.1269 70.1082 95.0029 71.6948C96.8788 73.2814 98.7152 74.6347 100.346 75.7507L99.7003 76.2441L99.1026 76.0413C96.6769 75.2199 93.9303 74.0688 91.007 72.7556C88.0838 71.4424 85.0784 69.8391 82.1323 68.0977C76.6974 64.8758 71.6208 61.1245 66.9807 56.9016C66.0228 56.0397 65.156 55.2263 64.4339 54.4845C63.7117 53.7427 63.0429 53.1198 62.4516 52.5639L60.8311 50.822L62.215 52.732C62.6531 53.3619 63.2194 54.1621 63.8584 54.902C64.4973 55.6419 65.2481 56.651 66.1249 57.7187C70.2584 62.5741 74.895 67.0057 79.9635 70.9454C82.7634 73.0956 85.6362 75.0895 88.5204 76.8574C90.6523 78.0966 92.7198 79.3467 94.6271 80.3358L93.6425 81.1747L92.7953 80.9661C89.9088 80.2242 87.0654 79.3384 84.2765 78.3122C81.0654 77.1067 77.9242 75.7371 74.8661 74.2091C69.1042 71.282 63.711 67.7289 58.7896 63.6177C57.7673 62.7667 56.8548 61.9771 56.0817 61.2279C55.3086 60.4787 54.5941 59.8796 54.0995 59.3073L52.401 57.5946L53.8842 59.5037C54.3519 60.1126 54.9534 60.8269 55.6565 61.652C56.3595 62.477 57.159 63.3818 58.0682 64.348C62.5609 69.1325 67.6085 73.3995 73.1132 77.0664C76.0767 79.0252 79.1476 80.8287 82.3129 82.4694C84.6381 83.6759 86.838 84.6315 88.888 85.4845L88.3309 86.0109C86.9065 85.9161 85.3347 85.7342 83.637 85.4937C81.579 85.1465 79.5435 84.6899 77.5398 84.1259C73.7233 83.0361 70.0602 81.5076 66.6283 79.5729C65.2033 78.7901 64.0653 78.0387 63.2782 77.4999L62.0412 76.6532L63.0843 77.7248C64.0039 78.6769 64.9755 79.5807 65.9951 80.4323C69.1068 83.0833 72.5356 85.3655 76.2101 87.2316C76.9896 87.6277 77.7961 87.9872 78.5839 88.3338C76.8757 88.031 75.149 87.6194 73.4145 87.161C70.1126 86.245 66.8749 85.1312 63.72 83.8261C60.5889 82.466 57.5569 80.9053 54.644 79.1542C52.0674 77.5964 49.6007 75.876 47.26 74.0038L45.7826 72.8138L44.4982 71.6871C43.6982 70.9744 42.9945 70.3415 42.5213 69.7975L40.7906 68.0903L42.81 70.1327C43.2803 70.7572 43.8953 71.4531 44.6118 72.2599L45.7588 73.5539C46.1788 73.9789 46.6227 74.4478 47.1015 74.9268C49.2331 77.1049 51.5153 79.1403 53.9326 81.019C56.7403 83.1755 59.6928 85.1504 62.7712 86.9313C65.8984 88.6802 69.1344 90.243 72.4615 91.6111C75.1948 92.6816 77.9852 93.6138 80.8215 94.4039L80.1942 95.1022L79.5153 95.1052C76.5519 95.0957 73.5938 94.9127 70.6573 94.5571C67.2671 94.1055 63.9148 93.4329 60.6233 92.5439C57.3164 91.6272 54.0832 90.485 50.9478 89.1257C48.1887 87.9184 45.5222 86.5252 42.9677 84.9564L41.3583 83.9647L39.95 82.9871C39.0691 82.3841 38.2846 81.8609 37.7039 81.3672L35.7928 79.8665L37.5074 81.5765C38.0503 82.1406 38.7513 82.758 39.5675 83.4679C39.9608 83.8334 40.3889 84.2089 40.8545 84.6102C41.3201 85.0114 41.8314 85.3889 42.348 85.7974C44.718 87.6766 47.2231 89.3913 49.8448 90.9288C52.9063 92.743 56.1006 94.3412 59.4033 95.711C61.1853 96.4493 63.0856 97.1036 64.9405 97.6856C62.2372 97.2793 59.4296 96.7467 56.644 96.0503C53.2724 95.2043 49.9586 94.1624 46.7208 92.9301C43.8771 91.822 41.1095 90.543 38.4337 89.1008L36.7408 88.2033L35.2491 87.3198C34.309 86.7589 33.417 86.2859 32.8416 85.8232L30.7905 84.4743L32.7148 86.0527C33.2981 86.562 34.0609 87.153 34.9175 87.808L36.3068 88.8689L37.9025 89.9749C40.4314 91.7516 43.0744 93.3723 45.816 94.8276C48.98 96.5027 52.2475 97.9907 55.6009 99.2834C58.9944 100.548 62.4625 101.623 65.988 102.501C67.9882 102.962 69.9108 103.357 71.7236 103.69C69.7591 103.831 67.5694 103.913 65.2564 103.953C62.1259 103.936 59.0002 103.766 55.8912 103.443C50.0241 102.802 44.2545 101.542 38.6852 99.6839C37.5299 99.3195 36.4874 98.936 35.5707 98.6111C34.6541 98.2863 33.8046 97.9661 33.191 97.67L31.1546 96.7986L33.0051 97.9415C33.613 98.3026 34.3791 98.7169 35.2497 99.1616C36.1204 99.6062 37.0765 100.164 38.2072 100.677C43.6357 103.293 49.3472 105.33 55.2423 106.753C57.5883 107.3 59.9481 107.733 62.2813 108.106C59.2241 108.447 55.9658 108.775 52.7215 108.893C46.9269 109.217 41.1293 108.575 35.5822 106.995C33.7356 106.442 31.9492 105.721 30.2468 104.842C29.6171 104.548 29.1673 104.24 28.8379 104.056L28.3424 103.772L28.8001 104.127C29.0865 104.35 29.5094 104.695 30.0904 105.092C31.6717 106.204 33.3605 107.166 35.1337 107.967C40.625 110.339 46.5066 111.779 52.5233 112.223C56.8151 112.616 61.1025 112.69 64.8856 112.721C63.4998 113.148 62.0121 113.56 60.4224 113.957C54.7568 115.261 48.9194 115.66 43.142 115.14C40.5886 114.908 38.0589 114.491 35.5741 113.893L34.0029 113.519L32.6063 113.099C31.7325 112.831 30.9632 112.594 30.3414 112.347L28.3957 111.62L30.2199 112.607C30.7903 112.943 31.5272 113.282 32.3711 113.667L33.7027 114.29L35.2302 114.895C37.6784 115.846 40.1967 116.623 42.7653 117.22C45.7494 117.885 48.7829 118.334 51.8408 118.563C54.1475 118.708 56.4625 118.722 58.7739 118.605C56.9092 119.433 54.9561 120.228 52.9201 120.925C50.4923 121.724 48.0225 122.393 45.5218 122.93C43.3116 123.383 41.0796 123.724 38.835 123.95C37.8524 124.117 36.9402 124.111 36.1351 124.152C35.33 124.192 34.6108 124.25 34.0286 124.236L32.0913 124.244L33.907 124.497C34.4863 124.591 35.1944 124.663 36.0018 124.734C36.8092 124.806 37.689 124.913 38.7406 124.959C41.0472 125.087 43.3607 125.095 45.6711 124.985C48.3368 124.849 50.9939 124.565 53.6292 124.133C52.7052 124.45 51.7812 124.766 50.8359 125.054C45.819 126.608 40.6739 127.725 35.4618 128.394C33.3357 128.754 31.5109 128.839 30.2469 128.909L28.2637 129.037L30.246 129.198C31.5067 129.304 33.3309 129.411 35.5069 129.443C40.891 129.533 46.2782 129.156 51.6038 128.317L52.6347 128.142L51.9201 128.423C48.0126 129.808 43.9639 130.773 39.8478 131.3C38.4785 131.494 37.1008 131.62 35.7199 131.679L34.0776 131.765L35.6385 131.981C36.6389 132.116 38.0739 132.273 39.8123 132.362C42.1976 132.486 44.5903 132.466 46.9764 132.301C45.8184 132.801 44.6391 133.273 43.4436 133.748C39.3344 135.334 35.1408 136.701 30.8818 137.843C27.3613 138.776 24.9745 139.26 24.9745 139.26C24.9745 139.26 27.3976 139.186 31.0557 138.87C35.5448 138.465 40.0097 137.815 44.4291 136.925L45.0734 136.816L43.2735 137.537C38.6128 139.352 33.8039 140.776 28.9001 141.796C26.8676 142.22 25.1632 142.429 23.9712 142.63L22.1028 142.947L23.997 142.978C25.2071 142.981 26.9431 142.959 28.9477 142.86C34.0797 142.583 39.1827 141.88 44.1999 140.757C45.2791 140.574 46.3345 140.251 47.3792 139.962L46.5729 140.387C43.6897 141.8 40.7258 143.05 37.6962 144.131C32.2674 146.2 26.587 147.565 20.8039 148.192C20.2185 148.245 19.6309 148.27 19.0435 148.266ZM200.112 144.052L202.345 142.073C206.522 138.154 210.111 133.688 213.006 128.81C214.351 126.58 215.548 124.271 216.591 121.898C217.147 120.779 217.473 119.572 217.916 118.473C218.36 117.373 218.747 116.236 219 115.089C219.253 113.942 219.536 112.87 219.778 111.756C220.066 110.724 220.287 109.677 220.44 108.62C220.669 106.549 221.018 104.601 221.105 102.762C221.191 100.923 221.196 99.1942 221.196 97.626C221.195 96.0578 220.926 94.5671 220.804 93.2596L220.609 91.4204C220.514 90.8604 220.424 90.3315 220.345 89.8648C220.179 88.8847 219.956 88.0583 219.808 87.3793L219.367 85.3578C219.367 85.3578 219.375 86.0925 219.376 87.4685C219.379 88.1721 219.398 89.0651 219.411 90.023C219.493 90.5052 219.437 91.0587 219.417 91.6223C219.396 92.1859 219.317 92.7915 219.274 93.4227C219.16 94.7062 219.081 96.0959 218.921 97.5953C218.76 99.0947 218.39 100.726 218.087 102.457C217.784 104.189 217.172 105.957 216.68 107.848C216.314 109.11 215.819 110.395 215.313 111.712C219.45 97.2138 217.551 81.7882 210.027 68.7606C213.512 69.7706 217.431 71.0913 221.325 72.5601C226.282 74.4828 231.134 76.6467 235.861 79.0437C239.769 80.9902 242.3 82.4338 242.3 82.4338C242.3 82.4338 240.009 80.6455 236.44 78.1614C232.871 75.6774 227.944 72.5112 222.804 69.6532C221.122 68.7218 219.413 67.8271 217.744 66.9736C220.586 67.8045 223.304 68.6884 225.887 69.6591C230.875 71.4228 235.35 73.3854 239.315 75.1781L244.743 77.8755L249.361 80.2939C252.09 81.8319 254.322 82.9742 255.781 83.8632L258.042 85.0806L256.21 83.2626C254.998 82.0756 253.203 80.3793 250.795 78.2908L246.732 74.9462C245.463 73.9128 244.031 72.8912 242.521 71.8027C251.185 76.4492 259.411 81.8127 267.108 87.8339C282.041 99.403 287.939 103.701 292.645 106.152C287.312 109.488 278.798 114.595 268.045 120.368L269.529 119.349C273.368 116.874 276.601 114.535 279.242 112.615C281.882 110.696 283.916 109.103 285.309 108.035L287.391 106.338C287.391 106.338 284.061 108.102 278.254 111.086C276.805 111.828 275.201 112.627 273.411 113.507C271.621 114.386 269.762 115.341 267.709 116.329C265.656 117.317 263.5 118.386 261.176 119.435C258.852 120.485 256.492 121.717 253.932 122.839C248.859 125.17 243.335 127.578 237.486 130.121C234.541 131.324 231.53 132.618 228.424 133.848C225.318 135.078 222.213 136.308 218.911 137.555L208.999 141.154L200.112 144.052ZM136.796 141.973L136.651 137.005L133.171 139.643L135.629 130.089L129.249 136.738C129.194 136.411 129.332 136.052 129.386 135.691C129.664 134.073 130.1 132.483 130.686 130.942C129.145 131.846 127.702 132.9 126.381 134.087L126.209 134.245L126.272 133.738C126.476 132.286 126.787 130.848 127.2 129.436C125.833 130.229 124.527 131.119 123.293 132.098L126.477 124.678L119.936 129.69L120.02 129.5C120.695 128.056 121.472 126.657 122.343 125.314C120.788 125.803 119.266 126.387 117.785 127.062L118.066 126.278C118.529 125.086 119.074 123.924 119.698 122.801C118.361 123.033 117.043 123.358 115.753 123.773C115.415 123.831 115.092 123.981 114.765 124.101C115.209 123.497 115.716 122.868 116.241 122.251C117.511 120.727 118.869 119.274 120.308 117.897C118.277 118.325 116.272 118.867 114.304 119.522C113.831 119.666 113.361 119.826 112.894 120.001L112.878 119.908C113.423 118.993 113.859 118.023 114.178 117.015C113.185 117.121 112.184 117.118 111.194 117.008L110.617 116.93L113.559 113.071L110.495 113.27L110.863 112.904C112.102 111.72 113.414 110.611 114.791 109.582C112.999 109.577 111.206 109.677 109.424 109.883L109.198 109.921L113.119 107.145L107.518 106.749L115.261 102.669L109.181 101.603L112.098 99.8445L109.325 98.634L117.891 97.9512L111.559 95.295C112.808 94.9083 114.022 94.4243 115.192 93.8477C114.08 93.3401 113.015 92.7444 112.007 92.0667L117.999 90.8598L115.3 89.1086L119.598 89.1487L116.617 86.7092L122.857 87.0606L119.93 84.3558L125.606 84.9948L121.143 81.5419L126.523 82.4871L124.203 79.5514L129.338 79.834L127.421 76.8302L132.78 79.123L130.159 74.6061L133.776 75.3217L133.25 72.8984C133.582 73.0022 133.931 73.1032 134.285 73.2353C135.454 73.6618 136.585 74.1823 137.663 74.7914C137.523 73.6462 137.298 72.5131 136.989 71.401L141.11 73.5196L139.947 69.4918L144.365 71.416L144.678 68.3705L147.766 71.1441L148.118 67.5479L150.127 70.4082L150.341 66.0031L152.694 69.5252L154.489 66.2288L156.309 70.3213L158.134 65.6434L159.8 69.2179L161.833 64.3929L162.949 67.1645L165.081 63.8108L166.642 66.8591L168.272 64.4545L169.637 67.4239L171.89 64.29L173.599 71.8416L176.413 65.3642L177.353 70.1337L180.298 65.4103L181.681 69.2727L184.713 65.9428L184.6 70.2666L188.934 66.5081L187.824 70.7128L191.728 68.9154C191.496 69.4028 191.25 69.9085 191.023 70.427C189.981 72.755 189.107 75.1488 188.409 77.5909C190.083 75.7314 191.885 73.9827 193.802 72.3567C194.598 71.6778 195.419 71.0428 196.185 70.4809L195.834 71.9325L198.316 71.1281L195.992 75.5063L201.425 72.3619L196.475 78.161L204.152 75.2605L200.056 79.4429L206.34 78.2985L203.04 81.8019L208.168 81.5575C208.197 81.7286 208.224 81.8841 208.25 82.0397L199.112 86.7878L208.526 86.5057L203.345 88.9834L209.982 90.1157L209.184 90.4909C207.142 91.4448 204.974 92.244 204.974 92.244C204.974 92.244 206.933 93.0485 209.088 93.7396L206.004 95.0942L208.491 96.7692L201.367 97.6557L208.038 100.159L205.014 100.895L207.956 103.293L205.11 103.903L206.985 105.778L201.242 106.014L207.412 109.77L203.143 109.805L205.757 112.419L201.799 112.433L204.465 115.262L198.718 113.419L200.956 116.848L197.336 116.117L200.904 120.746L196.967 120.004L199.166 123.889L195.467 122.787L197.807 126.823L192.472 124.67L194.442 127.793L190.105 125.567L193.102 130.741L190.326 129.611L190.953 131.457L186.499 128.242L188.306 132.945L184.477 130.489L185.898 135.161L183.637 133.752L183.732 137.928L179.151 132.799L180.358 139.924C179.861 139.336 179.305 138.694 178.722 138.089C177.433 136.724 176.068 135.427 174.634 134.204C175.028 135.966 175.33 137.747 175.538 139.54C175.617 140.007 175.691 140.443 175.684 140.892L170.636 135.058L171.256 141.946L168.859 138.943L168.263 142.469L164.493 133.906L163.465 143.393L160.661 136.619L158.601 145.689L155.486 137.079L153.879 144.905C153.755 144.657 153.646 144.404 153.551 144.144C153.012 142.84 152.585 141.494 152.273 140.12C151.501 141.292 150.817 142.515 150.225 143.779L148.424 135.587L145.321 144.37C145.135 143.786 144.99 143.19 144.887 142.587C144.579 140.965 144.444 139.315 144.484 137.663C143.325 139.027 142.32 140.506 141.486 142.075L141.197 142.62C141.105 142.075 141.01 141.515 141.042 140.918C140.945 139.13 140.99 137.335 141.177 135.55C139.901 136.972 138.745 138.489 137.72 140.088C137.382 140.834 137.061 141.384 136.754 141.916L136.796 141.973ZM59.2025 138.648C63.1007 131.633 67.378 124.819 72.0163 118.235C71.5711 119.03 71.1743 119.818 70.756 120.577L68.5115 125.325C67.8229 126.738 67.3118 128.025 66.8253 129.164L65.6546 132.034C65.0433 133.61 64.7026 134.436 64.7026 134.436L66.2894 132.359C67.3025 131.003 68.7497 128.982 70.6651 126.497L73.8441 122.374L77.6583 117.599C79.024 115.88 80.5212 114.154 82.1153 112.316L84.5524 109.487L86.9053 106.944L86.3984 107.766C80.7295 117.047 76.0601 126.751 76.0601 126.751C76.0601 126.751 82.2242 117.85 89.2205 109.656C92.8455 105.33 96.671 101.209 99.5108 98.3118C99.5689 109.508 103.068 120.396 109.564 129.59C108.673 128.541 107.805 127.52 107.065 126.477C105.994 124.85 104.88 123.359 103.961 121.85C103.043 120.341 102.355 118.921 101.573 117.534C100.791 116.146 100.39 114.853 99.8626 113.695C99.5962 113.1 99.3537 112.549 99.1327 112.026C98.9116 111.503 98.7737 110.983 98.6115 110.514C98.3032 109.574 98.0347 108.771 97.8086 108.122C97.3539 106.806 97.12 106.11 97.12 106.11C97.12 106.11 97.2411 106.825 97.3441 108.216C97.4601 108.901 97.5271 109.786 97.6421 110.758C97.7264 111.256 97.8186 111.8 97.9056 112.314C97.9925 112.827 98.1058 113.496 98.3427 114.112C98.6554 115.371 98.9809 116.804 99.3894 118.336C99.7978 119.867 100.512 121.346 101.167 123.155C101.821 124.965 102.809 126.59 103.723 128.467C104.201 129.421 104.75 130.338 105.365 131.214C105.955 132.154 106.577 133.089 107.196 134.104C107.816 135.119 108.65 135.938 109.334 136.942C110.071 137.915 110.86 138.85 111.697 139.743C113.468 141.643 115.359 143.433 117.361 145.105C121.708 148.749 126.566 151.783 131.795 154.118L135.994 155.823L136.139 155.799L135.393 155.797C128.838 155.835 122.293 155.435 115.804 154.602C112.698 154.264 109.747 153.563 106.81 153.149C103.873 152.734 101.163 151.897 98.503 151.355C95.843 150.813 93.2888 149.918 90.9703 149.142L87.4617 147.992L85.7139 147.456L84.1328 146.828C82.0586 146.027 80.1076 145.269 78.3338 144.481L75.767 143.316L73.4764 142.215C70.4089 140.76 67.4374 139.126 64.5782 137.321C64.5782 137.321 65.204 137.983 66.542 139.133C68.4324 140.779 70.4142 142.323 72.4788 143.761L74.6019 145.241L76.9959 146.756C78.6399 147.854 80.5312 148.846 82.5105 149.967L84.0427 150.795L85.6688 151.592L89.0632 153.242L90.2288 153.764C79.172 150.204 68.7222 145.113 59.2025 138.648Z" fill="white" fill-opacity="0.2"/>
<path d="M79.3754 139.872C81.6506 140.783 84.3468 141.735 87.263 142.713C90.1792 143.691 93.2427 144.757 96.3657 145.684C99.4887 146.612 102.595 147.638 105.547 148.434C108.499 149.23 111.27 150.041 113.67 150.611C116.07 151.181 118.04 151.759 119.453 152.08L121.657 152.667L119.374 152.589C117.917 152.5 115.835 152.34 113.344 152.01C110.852 151.68 108.001 151.187 104.939 150.617C101.877 150.048 98.6653 149.087 95.4779 148.171C92.2905 147.255 89.2329 146.028 86.3416 144.806C83.4503 143.583 80.9456 142.295 78.7006 141.171C76.4556 140.047 74.7606 138.942 73.5234 138.191L71.6492 136.908L73.7852 137.683C75.1115 138.274 77.0516 139.066 79.3754 139.872Z" fill="white" fill-opacity="0.2"/>
<path d="M225.146 131.026C228.026 129.738 231.294 128.193 234.93 126.473C238.565 124.753 242.321 123.061 246.102 121.22C249.883 119.379 253.79 117.694 257.275 115.967C260.761 114.241 264.186 112.748 267.016 111.357C269.846 109.966 272.277 108.866 273.954 108.102L276.603 106.917L274.213 108.554C272.726 109.558 270.449 110.984 267.766 112.654C265.083 114.325 261.82 116.094 258.369 118.022C254.918 119.951 251.083 121.769 247.273 123.63C243.462 125.492 239.567 127.048 235.884 128.584C232.2 130.12 228.722 131.397 225.729 132.416C222.737 133.435 220.188 134.234 218.424 134.773L215.612 135.585L218.227 134.294C219.903 133.53 222.362 132.394 225.146 131.026Z" fill="white" fill-opacity="0.2"/>
<path d="M258.148 112.219L251.577 115.684L243.921 119.397L236.111 122.784L229.191 125.557L224.2 127.298L222.28 127.895L223.989 126.837L228.513 124.199L235.084 120.734L242.74 117.021L250.551 113.634L257.471 110.861L262.443 109.107L264.363 108.51L262.672 109.58L258.148 112.219Z" fill="white" fill-opacity="0.2"/>
<path d="M105.781 145.61L100.773 144.41L95.1621 142.687L89.6844 140.575L85.0492 138.447L81.8563 136.715L80.6726 135.988L82.0563 136.234L85.6063 137.041L90.5444 138.413L96.1144 140.19L101.579 142.225L106.287 144.196L109.55 145.755L110.788 146.41L109.385 146.247L105.781 145.61Z" fill="white" fill-opacity="0.2"/>
</svg>
