<svg width="346" height="346" viewBox="0 0 346 346" fill="none" xmlns="http://www.w3.org/2000/svg">
<path d="M335.978 163.852C334.53 163.865 333.107 164.222 331.825 164.894L319.13 152.186C315.748 128.342 306.565 105.693 292.387 86.2265L297.113 77.1124C298.889 77.2387 300.664 76.8417 302.217 75.9705C303.771 75.0993 305.035 73.792 305.854 72.2103C306.672 70.6285 307.009 68.8415 306.823 67.0702C306.638 65.2989 305.937 63.6209 304.808 62.2435C304.45 61.801 304.054 61.3914 303.623 61.0196C302.705 60.2424 301.642 59.6546 300.496 59.29C299.35 58.9254 298.143 58.7913 296.945 58.8954C295.747 58.9995 294.581 59.3397 293.515 59.8965C292.449 60.4532 291.503 61.2155 290.733 62.1393L290.668 62.2435H270.526C248.895 43.0786 222.11 30.6913 193.499 26.6205L180.791 13.9259C181.471 12.6465 181.828 11.221 181.833 9.77244C181.822 8.40066 181.501 7.04914 180.894 5.81865C180.288 4.58817 179.411 3.51046 178.33 2.6659C177.249 1.82133 175.991 1.23169 174.651 0.940939C173.31 0.65019 171.921 0.665835 170.587 0.986705C169.254 1.30758 168.009 1.92539 166.948 2.7941C165.886 3.6628 165.034 4.75996 164.455 6.0038C163.877 7.24763 163.587 8.60603 163.606 9.97772C163.626 11.3494 163.954 12.699 164.568 13.9259L151.861 26.6205C123.26 30.67 96.4789 43.0349 74.8468 62.1784H54.7177C54.3647 61.736 53.9725 61.3264 53.5459 60.9545C52.6276 60.1753 51.5641 59.5858 50.4166 59.2201C49.2692 58.8543 48.0607 58.7196 46.8609 58.8238C45.6611 58.9279 44.4939 59.2687 43.4266 59.8267C42.3594 60.3846 41.4132 61.1485 40.643 62.0742C40.6242 62.1107 40.6024 62.1455 40.5779 62.1784C39.4455 63.5546 38.7415 65.2327 38.553 67.005C38.3645 68.7772 38.6997 70.5658 39.5172 72.1495C40.3346 73.7332 41.5985 75.0425 43.1524 75.9153C44.7062 76.7881 46.4819 77.1862 48.2597 77.0603L52.986 86.1744C38.7951 105.655 29.6071 128.323 26.2297 152.186L13.5351 164.894C12.3082 164.28 10.9587 163.951 9.58697 163.932C8.21528 163.912 6.85688 164.203 5.61305 164.781C4.36922 165.36 3.27205 166.212 2.40335 167.273C1.53465 168.335 0.916827 169.579 0.595957 170.913C0.275086 172.247 0.259444 173.636 0.550193 174.977C0.840942 176.317 1.43058 177.575 2.27515 178.656C3.11972 179.737 4.19742 180.613 5.4279 181.22C6.65839 181.826 8.00991 182.147 9.38169 182.159C10.8302 182.154 12.2558 181.796 13.5351 181.117L26.2297 193.825C29.6114 217.669 38.7946 240.318 52.973 259.785L46.4629 272.284C45 272.486 43.608 273.041 42.407 273.9C41.2059 274.76 40.2317 275.898 39.5683 277.218C38.9048 278.537 38.5719 279.998 38.5982 281.475C38.6246 282.951 39.0094 284.399 39.7195 285.694C40.4297 286.989 41.4439 288.092 42.6748 288.908C43.9058 289.724 45.3166 290.229 46.7858 290.379C48.2551 290.529 49.7388 290.32 51.1092 289.769C52.4795 289.218 53.6956 288.343 54.6526 287.218C55.4804 286.231 56.0845 285.076 56.4233 283.833H74.8337C96.4611 303.003 123.248 315.391 151.861 319.456L164.568 332.15C163.954 333.377 163.626 334.727 163.606 336.098C163.587 337.47 163.877 338.829 164.455 340.072C165.034 341.316 165.886 342.413 166.948 343.282C168.009 344.151 169.254 344.769 170.587 345.089C171.921 345.41 173.31 345.426 174.651 345.135C175.991 344.844 177.249 344.255 178.33 343.41C179.411 342.566 180.288 341.488 180.894 340.257C181.501 339.027 181.822 337.675 181.833 336.304C181.826 334.855 181.469 333.43 180.791 332.15L193.499 319.456C222.112 315.391 248.898 303.003 270.526 283.833H290.642C290.996 284.278 291.393 284.688 291.827 285.057C292.745 285.834 293.807 286.422 294.953 286.786C296.1 287.151 297.307 287.285 298.505 287.181C299.703 287.077 300.869 286.736 301.935 286.18C303.001 285.623 303.947 284.861 304.717 283.937L304.782 283.833C305.911 282.455 306.612 280.777 306.797 279.006C306.983 277.235 306.646 275.448 305.828 273.866C305.009 272.284 303.745 270.977 302.191 270.106C300.638 269.234 298.863 268.837 297.087 268.964L292.361 259.85C306.539 240.383 315.722 217.734 319.104 193.89L331.798 181.182C333.079 181.86 334.504 182.217 335.952 182.224C338.379 182.224 340.708 181.259 342.424 179.543C344.141 177.826 345.105 175.498 345.105 173.071C345.105 170.643 344.141 168.315 342.424 166.598C340.708 164.882 338.379 163.917 335.952 163.917L335.978 163.852ZM25.3313 185.843L17.1937 177.719C18.0702 176.305 18.5345 174.675 18.5345 173.012C18.5345 171.349 18.0702 169.719 17.1937 168.305L25.3313 160.168C24.9667 164.399 24.7454 168.683 24.7454 173.005C24.7454 177.328 24.9667 181.612 25.3313 185.843ZM288.611 67.1781C288.477 68.6431 288.699 70.1189 289.259 71.4792C289.819 72.8396 290.7 74.0442 291.827 74.9902C291.996 75.1334 292.191 75.2375 292.374 75.3677L289.04 81.8778C284.989 76.7189 280.605 71.8303 275.916 67.2432L288.611 67.1781ZM167.927 17.5194C169.341 18.3958 170.971 18.8602 172.634 18.8602C174.297 18.8602 175.928 18.3958 177.341 17.5194L185.466 25.657C181.234 25.2924 176.963 25.0711 172.628 25.0711C168.292 25.0711 164.021 25.2924 159.79 25.657L167.927 17.5194ZM54.6526 73.8574C56.2071 71.9952 56.965 69.5953 56.7618 67.1781H69.4304C64.7467 71.7624 60.3711 76.6512 56.3322 81.8127L52.999 75.3026C53.6011 74.8824 54.1555 74.3978 54.6526 73.8574ZM56.4494 278.833C55.9513 277.073 54.9351 275.503 53.5329 274.328C52.9685 273.861 52.3473 273.467 51.684 273.156L56.3192 264.211C60.3624 269.369 64.7423 274.254 69.4304 278.833H56.4494ZM177.38 328.492C175.967 327.615 174.336 327.151 172.673 327.151C171.01 327.151 169.38 327.615 167.967 328.492L159.842 320.406C164.074 320.771 168.357 321.005 172.68 321.005C177.002 321.005 181.286 320.771 185.518 320.406L177.38 328.492ZM275.291 108.361L234.122 67.1781H248.782C260.942 75.9658 271.51 86.7675 280.031 99.1164L275.291 108.361ZM283.22 103.921C288.044 111.594 292.054 119.75 295.186 128.255L279.015 112.084L283.22 103.921ZM283.012 176.117C274.728 182.914 265.715 188.77 256.139 193.577L257.219 192.731C260.061 190.478 262.766 188.056 265.318 185.479C266.965 183.825 268.526 182.087 269.992 180.271C270.995 178.969 271.489 178.331 271.489 178.331C271.489 178.331 270.877 178.93 269.693 179.997C268.508 181.065 266.685 182.523 264.341 184.333C261.998 186.143 259.042 188.174 255.566 190.361C253.821 191.442 251.985 192.614 249.941 193.668C247.897 194.723 245.853 195.986 243.561 197.041L240.124 198.72C238.926 199.267 237.689 199.749 236.452 200.283L232.676 201.923L228.692 203.368L224.604 204.84L220.32 206.142L215.946 207.444L211.441 208.498L206.845 209.553C205.295 209.904 203.707 210.074 202.131 210.347L199.527 210.764C197.496 211.024 195.426 211.259 193.33 211.467C200.261 207.74 206.055 202.207 210.095 195.454C214.136 188.7 216.273 180.979 216.279 173.11C216.286 165.24 214.162 157.515 210.133 150.755C206.104 143.995 200.32 138.452 193.395 134.713C199.814 135.351 205.881 136.276 211.623 137.409L215.959 138.411L220.333 139.713L224.617 141.015L228.705 142.499L232.689 143.945L236.478 145.559C237.78 146.093 238.952 146.575 240.15 147.109L243.587 148.801C245.879 149.856 247.962 151.054 249.967 152.173C251.972 153.293 253.873 154.4 255.592 155.48C259.068 157.655 261.998 159.725 264.367 161.509C266.737 163.293 268.521 164.79 269.719 165.844C270.916 166.899 271.515 167.511 271.515 167.511C271.515 167.511 271.021 166.821 270.018 165.571C268.549 163.758 266.989 162.019 265.344 160.363C262.791 157.791 260.087 155.373 257.245 153.124C259.498 154.296 261.646 155.454 263.612 156.587C270.451 160.521 276.949 165.02 283.038 170.037L223.693 173.149L283.012 176.117ZM62.1912 170.011C70.207 163.416 78.9115 157.706 88.1533 152.981C85.2986 155.238 82.5853 157.669 80.0288 160.259C78.3839 161.911 76.828 163.65 75.3676 165.467C74.352 166.769 73.8703 167.407 73.8703 167.407C73.8703 167.407 74.4692 166.808 75.654 165.74C76.8388 164.673 78.6617 163.214 81.0183 161.405C83.3749 159.595 86.3175 157.564 89.7938 155.376C91.5385 154.309 93.3614 153.137 95.4055 152.069C97.4497 151.002 99.5068 149.765 101.785 148.71L105.236 147.017C106.421 146.484 107.67 145.989 108.907 145.468L112.683 143.84L116.68 142.395L120.769 140.924L125.052 139.622L129.414 138.32L133.932 137.265L135.416 136.927C140.685 135.937 146.227 135.152 152.043 134.57C145.099 138.294 139.294 143.83 135.245 150.59C131.196 157.35 129.054 165.08 129.047 172.96C129.041 180.84 131.169 188.574 135.207 195.34C139.244 202.107 145.04 207.653 151.978 211.389C149.556 211.141 147.186 210.868 144.856 210.542L143.241 210.295C141.653 210.022 140.064 209.839 138.528 209.501L133.932 208.446L129.414 207.392L125.052 206.09L120.769 204.853L116.68 203.368L112.683 201.923L108.907 200.309C107.605 199.775 106.421 199.293 105.236 198.759L101.785 197.067C99.5068 196.012 97.4236 194.814 95.4055 193.707C93.3874 192.601 91.4995 191.468 89.7938 190.387C86.3175 188.213 83.3749 186.143 81.0183 184.359C78.6617 182.575 76.8519 181.091 75.654 180.036C74.4562 178.982 73.8703 178.37 73.8703 178.37C73.8703 178.37 74.352 179.06 75.3676 180.31C76.828 182.127 78.3839 183.866 80.0288 185.518C82.5814 188.09 85.2857 190.508 88.1273 192.757L89.1819 193.59C86.5779 192.288 84.065 190.908 81.7865 189.593C74.9031 185.633 68.3694 181.095 62.2563 176.026L119.297 173.032L62.1912 170.011ZM142.708 151.861C142.707 150.256 143.162 148.683 144.02 147.327C144.878 145.97 146.103 144.885 147.554 144.197C149.005 143.51 150.621 143.249 152.214 143.444C153.807 143.639 155.312 144.282 156.554 145.3C157.796 146.317 158.724 147.665 159.229 149.189C159.734 150.713 159.796 152.348 159.408 153.906C159.02 155.464 158.198 156.879 157.037 157.988C155.876 159.096 154.424 159.852 152.85 160.168C152.996 160.645 153.074 161.14 153.085 161.639C153.088 162.561 152.853 163.469 152.403 164.273C151.952 165.078 151.301 165.753 150.513 166.232C149.725 166.711 148.827 166.978 147.905 167.008C146.983 167.038 146.069 166.828 145.252 166.401C144.435 165.973 143.742 165.342 143.241 164.567C142.74 163.793 142.447 162.903 142.392 161.982C142.336 161.061 142.519 160.142 142.924 159.313C143.328 158.484 143.94 157.774 144.7 157.251C143.422 155.745 142.717 153.836 142.708 151.861ZM175.258 197.692C181.423 194.312 186.328 189.028 189.239 182.629C192.151 176.23 192.912 169.061 191.41 162.193C189.908 155.325 186.223 149.128 180.905 144.529C175.588 139.93 168.925 137.176 161.912 136.679C168.461 134.701 175.423 134.53 182.062 136.184C188.7 137.838 194.768 141.256 199.623 146.075C204.479 150.895 207.941 156.937 209.645 163.563C211.348 170.189 211.228 177.152 209.299 183.716C207.37 190.279 203.702 196.199 198.684 200.85C193.666 205.5 187.485 208.707 180.793 210.133C174.102 211.558 167.15 211.148 160.673 208.947C154.195 206.745 148.433 202.834 143.997 197.627C148.775 200.248 154.136 201.628 159.586 201.64C165.037 201.651 170.403 200.294 175.193 197.692H175.258ZM172.745 123.594C157.195 123.544 141.688 125.225 126.511 128.607L158.28 67.1781H187.223L218.979 128.607C203.78 125.221 188.251 123.539 172.68 123.594H172.745ZM120.066 130.182C108.854 133.099 97.9531 137.097 87.5153 142.122L72.4771 113.035L118.321 67.1781H152.577L120.066 130.182ZM120.066 215.829L152.616 278.833H118.321L72.4771 232.989L87.5153 203.902C97.9328 208.918 108.812 212.913 120 215.829H120.066ZM126.576 217.404C157.028 224.084 188.566 224.084 219.018 217.404L187.262 278.833H158.201L126.576 217.404ZM225.528 215.829C236.713 212.913 247.588 208.918 258.001 203.902L273.052 232.989L227.039 278.833H192.783L225.528 215.829ZM225.528 130.182L192.978 67.1781H227.039L272.896 113.035L257.844 142.122C247.432 137.101 236.557 133.102 225.372 130.182H225.528ZM229.122 62.1784L217.404 50.4603C225.751 53.5402 233.761 57.4667 241.309 62.1784H229.122ZM222.052 62.1784H190.205L180.192 42.8175C189.285 43.3321 198.297 44.8073 207.079 47.2183L222.052 62.1784ZM184.58 62.1784H160.792L170.909 42.6482C171.495 42.6482 172.081 42.6482 172.68 42.6482C173.279 42.6482 173.865 42.6482 174.464 42.6482L184.58 62.1784ZM155.181 62.1784H123.321L138.281 47.2183C147.067 44.8063 156.084 43.3311 165.18 42.8175L155.181 62.1784ZM116.264 62.1784H104.038C111.581 57.4666 119.586 53.5401 127.93 50.4603L116.264 62.1784ZM111.264 67.1781L70.0554 108.361L65.277 99.0643C73.7949 86.7136 84.3635 75.9116 96.5252 67.126L111.264 67.1781ZM66.3707 112.084L50.1606 128.255C53.2975 119.752 57.3074 111.597 62.1261 103.921L66.3707 112.084ZM68.7794 116.759L83.1015 144.374C70.2682 150.881 58.484 159.277 48.1425 169.282L47.6608 169.764C45.6427 171.795 44.6531 173.005 44.6531 173.005C44.6531 173.005 45.6427 174.216 47.6608 176.248L48.1425 176.729C58.4632 186.733 70.2252 195.133 83.0364 201.65L68.7534 229.265L46.8405 207.405C40.6606 184.888 40.6606 161.123 46.8405 138.606L68.7794 116.759ZM66.3707 233.94L62.1522 242.09C57.3284 234.417 53.3182 226.261 50.1867 217.756L66.3707 233.94ZM70.0814 237.65L111.264 278.833H96.5773C84.4174 270.045 73.8491 259.244 65.3291 246.895L70.0814 237.65ZM116.277 283.833L127.995 295.551C119.645 292.476 111.635 288.549 104.09 283.833H116.277ZM123.347 283.833H155.168L165.18 303.207C156.084 302.682 147.068 301.203 138.281 298.793L123.347 283.833ZM160.818 283.833H184.593L174.49 303.363C173.891 303.363 173.305 303.363 172.706 303.363C172.107 303.363 171.521 303.363 170.935 303.363L160.818 283.833ZM180.205 303.207L190.231 283.833H222.065L207.079 298.793C198.292 301.203 189.276 302.682 180.179 303.207H180.205ZM217.456 295.525L229.174 283.807H241.387C233.817 288.528 225.78 292.455 217.404 295.525H217.456ZM248.808 278.833H234.122L275.304 237.65L280.083 246.895C271.551 259.251 260.964 270.053 248.782 278.833H248.808ZM290.707 272.232C289.932 273.148 289.345 274.209 288.981 275.353C288.617 276.497 288.482 277.702 288.585 278.898H275.916C280.598 274.294 284.974 269.388 289.014 264.211L292.348 270.656C291.734 271.107 291.182 271.637 290.707 272.232ZM283.233 242.155L279.015 234.005L295.199 217.821C292.063 226.304 288.053 234.437 283.233 242.09V242.155ZM298.467 207.47L276.606 229.265L262.284 201.637C288.207 188.122 300.667 172.992 300.667 172.992C300.667 172.992 288.207 157.863 262.284 144.348L276.606 116.733L298.467 138.593C304.664 161.107 304.664 184.878 298.467 207.392V207.47ZM311.279 165.727C311.188 164.529 311.083 163.201 310.966 161.73C310.89 160.126 310.699 158.529 310.393 156.952C309.781 153.54 309.091 149.621 308.31 145.234C307.086 140.95 305.888 136.12 304.261 131.055L301.214 123.243C300.68 121.941 300.186 120.508 299.587 119.141C298.988 117.774 298.22 116.446 297.53 115.066C285.937 90.6954 267.399 70.2953 244.246 56.4301C221.092 42.5649 194.357 35.8534 167.4 37.139C140.444 38.4246 114.468 47.6501 92.7399 63.6559C71.0112 79.6616 54.4988 101.733 45.2781 127.097C44.4969 129.414 43.4553 131.654 42.8694 134.023C42.2835 136.393 41.5674 138.763 41.0205 141.106C39.5493 145.807 39.1196 150.546 38.2863 155.233L37.7264 158.762C37.6223 159.972 37.5832 161.209 37.5051 162.433C37.3619 164.881 37.2187 167.329 37.0885 169.764L36.9843 171.586V172.498V172.953C36.982 172.992 36.982 173.032 36.9843 173.071V173.279L37.1405 176.833C37.2447 179.19 37.3489 181.547 37.453 183.877C39.2723 207.979 47.3668 231.185 60.9322 251.189C74.4976 271.193 93.0615 287.3 114.779 297.907L118.855 299.978C120.222 300.563 121.602 301.071 122.943 301.605L130.755 304.639C135.859 306.266 140.65 307.464 144.934 308.701L156.652 310.771C158.229 311.077 159.826 311.269 161.43 311.344L165.441 311.657L172.784 312.229L165.428 312.06L161.404 311.969C159.793 311.987 158.183 311.882 156.587 311.657L144.491 310.068C140.117 309.001 135.221 307.998 129.974 306.553L121.94 303.792C120.547 303.298 119.115 302.855 117.696 302.308L113.464 300.381C100.452 294.766 88.4452 287.06 77.9195 277.57C65.2714 266.413 54.7159 253.089 46.7494 238.223C37.7956 221.547 32.3625 203.209 30.7867 184.346C30.6435 181.898 30.5003 179.437 30.3701 176.964L30.1618 173.279V172.198V171.287L30.305 169.373L30.6175 162.043C30.6826 160.819 30.7086 159.595 30.8128 158.358L31.3466 154.556C32.1408 149.504 32.6486 144.296 34.0678 139.388C34.6928 136.914 35.3698 134.414 35.9687 131.927C36.5677 129.44 37.6483 127.045 38.4686 124.597C45.4352 104.778 56.7663 86.7775 71.6244 71.9261C86.4825 57.0747 104.488 45.7519 124.31 38.7943C143.401 31.9838 163.734 29.3594 183.929 31.0994C202.827 32.6622 221.202 38.0956 237.911 47.062C252.785 55.0322 266.122 65.5869 277.296 78.2322C286.796 88.7747 294.502 100.804 300.108 113.842C300.759 115.274 301.41 116.681 302.035 118.074C302.659 119.467 303.037 120.925 303.532 122.305C304.478 125.092 305.394 127.774 306.279 130.352C307.724 135.56 308.74 140.494 309.794 144.869C310.367 149.335 310.888 153.319 311.331 156.795C311.557 158.391 311.661 160.002 311.643 161.613C311.643 163.097 311.708 164.438 311.734 165.649C311.839 170.441 311.904 173.005 311.904 173.005C311.904 173.005 311.656 170.454 311.279 165.662V165.727ZM328.205 177.784L320.067 185.908C320.432 181.677 320.666 177.406 320.666 173.071C320.666 168.735 320.432 164.464 320.067 160.233L328.205 168.37C327.328 169.784 326.864 171.414 326.864 173.077C326.864 174.74 327.328 176.37 328.205 177.784Z" fill="white"/>
</svg>
