<svg width="58" height="19" viewBox="0 0 58 19" fill="none" xmlns="http://www.w3.org/2000/svg">
<g clip-path="url(#clip0)">
<path d="M6.57415 18.0748C5.34391 18.0748 5.95903 9.87316 5.95903 8.77961C5.95903 7.54936 5.95903 7.48102 5.07052 6.59251C3.97697 5.43061 2.88341 4.33705 1.78986 3.17515C1.78986 6.86589 1.78986 10.625 1.78986 14.3157C1.78986 14.8625 2.19994 18.0065 1.17474 18.0065C0.149534 18.0065 0.559616 15.0675 0.559616 14.5208C0.559616 12.1286 0.559616 9.73647 0.559616 7.41267C0.559616 5.70399 0.286228 3.79028 0.559616 2.0816C0.969698 0.0995392 2.47333 2.2183 3.1568 2.90177C4.25035 4.06367 6.16407 5.43061 6.98423 6.79755C7.32597 7.34432 7.18928 8.09614 7.18928 8.77961C7.18928 10.0099 7.18928 11.3084 7.18928 12.5387C7.12093 13.2222 7.6677 18.0748 6.57415 18.0748Z" fill="#F6C866"/>
<path d="M22.0889 5.77257C21.132 4.81572 20.1751 3.85886 19.2183 2.902C18.7399 2.42357 17.0312 0.0314245 16.3477 1.19332C15.9376 1.94514 16.2794 3.72216 16.2794 4.54233C16.2794 6.251 16.2794 8.02803 16.2794 9.7367C16.2794 12.0605 16.2794 14.316 16.2794 16.6397C16.2794 16.9815 16.1427 17.5966 16.4844 17.87C17.1679 18.4851 17.4413 17.5966 17.5096 17.1182C17.783 15.4778 17.4413 13.7008 17.5096 12.1288C17.578 10.8986 18.4665 10.3518 19.355 9.46331C19.7651 8.98488 22.8407 6.52439 22.0889 5.77257ZM17.4413 9.66835C17.4413 7.4129 17.4413 5.0891 17.4413 2.83365C18.0564 3.44878 18.6715 4.0639 19.2183 4.67902C19.4917 4.95241 20.7903 5.90927 20.7903 6.251C20.7903 6.59274 19.355 7.68629 19.0816 7.95968C18.6032 8.50645 18.0564 9.05323 17.4413 9.66835Z" fill="#F6C866"/>
<path d="M41.2944 18.2115C40.6109 18.2115 39.7908 16.913 39.3807 16.5712C38.6972 15.8878 37.6037 14.2474 36.7152 13.9057C36.2367 13.7006 36.3051 13.8373 35.7583 14.3841C34.8014 15.341 33.9129 16.2295 32.9561 17.1863C32.4093 17.7331 31.7258 18.6216 31.2474 17.4597C31.1107 17.118 31.2474 16.3662 31.2474 16.0244C31.2474 13.6323 31.2474 11.2402 31.2474 8.77966C31.2474 6.59256 31.1791 4.40546 31.2474 2.21835C31.2474 1.67158 31.1107 0.851411 31.9309 0.919758C32.546 0.988105 33.4345 2.2867 33.7762 2.62843C34.3914 3.24356 35.4166 4.74719 36.2367 5.08892C36.7835 5.29397 36.7835 5.02058 37.3303 4.4738C38.2188 3.58529 39.1073 2.69678 39.9958 1.80827C40.4742 1.32984 42.4563 -0.0371 41.7045 1.80827C41.3628 2.56009 40.1325 3.38025 39.5174 3.99537C38.7656 4.74719 37.9454 5.97744 36.9886 6.52421C35.6216 7.27603 33.3662 3.99537 32.4093 3.03852C32.4093 7.41272 32.4093 11.7869 32.4093 16.0928C33.2978 15.2043 34.118 14.3841 35.0065 13.4956C35.7583 12.7438 36.1 12.0603 37.1252 12.7438C38.2188 13.4273 39.1073 14.7259 39.9958 15.6144C40.2009 15.6827 43.0031 18.2115 41.2944 18.2115Z" fill="#F6C866"/>
<path d="M56.5358 0.920039C55.5789 0.509957 52.845 4.064 52.1615 4.74747C51.273 3.85896 50.3845 2.97045 49.496 2.08194C48.9492 1.53516 47.924 0.168222 47.4456 1.53516C47.1722 2.28698 47.4456 3.51722 47.4456 4.26904C47.4456 5.90937 47.4456 7.48135 47.4456 9.12168C47.4456 10.762 47.4456 12.4023 47.4456 14.111C47.4456 15.0679 47.2406 16.2298 47.4456 17.1866C47.6506 18.2118 48.4708 18.2118 48.6075 17.1866C48.8125 15.8197 48.6075 14.1794 48.6075 12.7441C48.6075 11.7189 48.4025 10.557 48.9492 9.7368C49.7011 8.50656 51.2047 7.48135 52.1615 6.52449C53.1868 7.5497 55.3739 8.98498 55.7156 10.3519C56.2624 12.539 55.1688 15.1362 55.7156 17.3233C55.989 18.2118 56.6725 18.2802 56.8775 17.3233C57.0142 16.7082 56.8775 15.8197 56.8775 15.1362C56.8775 12.334 56.8775 9.60011 56.8775 6.79788C56.8775 5.49929 56.8775 4.2007 56.8775 2.83376C56.9458 2.42367 57.1509 1.19343 56.5358 0.920039C56.3307 0.851692 56.7408 1.05673 56.5358 0.920039ZM48.6075 8.30151C48.6075 6.52449 48.6075 4.67912 48.6075 2.9021C49.0176 3.31218 51.3414 5.02086 51.3414 5.63598C51.3414 6.2511 49.0859 7.89143 48.6075 8.30151ZM53.0501 5.63598C53.9386 4.74747 54.8271 3.85896 55.7839 2.9021C55.7839 4.67912 55.7839 6.52449 55.7839 8.30151C54.8271 7.413 53.9386 6.52449 53.0501 5.63598Z" fill="#F6C866"/>
</g>
<defs>
<clipPath id="clip0">
<rect width="56.523" height="17.3601" fill="white" transform="translate(0.491211 0.851562)"/>
</clipPath>
</defs>
</svg>
