<svg width="56" height="19" viewBox="0 0 56 19" fill="none" xmlns="http://www.w3.org/2000/svg">
<g clip-path="url(#clip0)">
<path d="M5.8789 5.45412C4.4821 6.85092 3.08531 8.24771 1.68852 9.6445C1.68852 8.24771 1.48898 7.7156 2.48669 6.71789C3.75045 5.45412 5.14724 4.25687 6.34449 2.92659C6.74358 2.461 7.40872 1.39677 6.14495 1.59632C5.67935 1.72934 5.21376 2.39448 4.9477 2.66054C3.81696 3.72476 2.75274 4.78899 1.68852 5.85321C1.68852 4.72247 2.02109 3.05962 1.68852 2.06191C1.22292 0.665121 0.557781 1.86237 0.557781 2.66054C0.424753 5.65367 0.557781 8.64679 0.557781 11.7064C0.557781 13.2363 0.557781 14.7661 0.557781 16.2294C0.557781 16.695 0.358239 18.0253 0.823836 18.2913C2.02109 19.023 1.68852 15.7638 1.68852 15.3647C1.68852 14.3005 1.28943 12.3051 1.68852 11.3074C2.0876 10.3762 3.75045 9.24542 4.41559 8.58028C5.01421 7.98165 5.74587 7.38303 6.27798 6.71789C6.41101 6.58486 6.61055 6.45183 6.67706 6.31881C6.94312 5.85321 6.61055 4.78899 5.8789 5.45412Z" fill="#F6C866"/>
<path d="M19.9133 9.44489C20.5784 8.11461 21.2436 6.85085 21.9087 5.52057C22.3743 4.65589 22.7734 3.7912 23.239 2.92652C23.372 2.66047 23.9041 1.99533 23.8376 1.59624C23.4385 -0.399174 21.5761 3.65818 21.4431 3.92423C20.7115 5.32102 19.9798 6.78433 19.2482 8.18112C18.1839 6.11919 17.3193 3.45863 15.9225 1.66276C15.1243 0.665049 14.5922 1.46322 14.9913 2.39441C15.5899 3.72469 16.3215 4.98846 16.9867 6.25222C17.3858 7.05039 18.5165 8.51369 18.583 9.37838C18.6495 9.977 17.7848 10.9747 17.5188 11.5068C16.7871 12.9036 16.0555 14.3004 15.3903 15.6972C15.1908 16.0963 14.1266 18.6238 15.6564 17.5596C16.4546 17.0275 16.9867 15.0321 17.4523 14.1674C18.0509 12.9701 18.6495 11.8394 19.2482 10.6421C19.9798 12.0389 20.6449 13.3692 21.3766 14.766C21.7757 15.4977 22.1083 16.3623 22.5739 17.0275C22.9064 17.4931 23.6381 18.2247 23.8376 17.1605C23.9041 16.7614 23.372 16.1628 23.239 15.8302C22.8399 15.0321 22.3743 14.1674 21.9752 13.3692C21.3101 12.172 20.5784 10.7752 19.9133 9.44489Z" fill="#F6C866"/>
<path d="M35.012 17.6926C34.2138 17.6926 32.95 15.8968 32.4844 15.4312C31.7528 14.6995 30.356 13.7683 29.9569 12.9036C29.5578 12.039 30.0899 11.7729 30.8216 12.1055C31.2207 12.305 31.6197 12.9036 31.8858 13.1697C32.7505 14.0344 33.5486 14.8325 34.4133 15.6972C34.4133 13.4357 34.4133 11.1743 34.4133 8.97931C34.4133 7.44949 34.4133 5.85316 34.4133 4.32334C34.4133 3.59169 34.2138 2.39443 34.4133 1.66278C34.8789 0.332502 35.6771 1.46324 36.2757 1.99535C37.2734 2.99306 38.4707 3.99077 39.3354 5.05499C39.6679 5.45408 40.3996 6.31876 39.2688 6.38527C38.8698 6.38527 38.4707 5.85316 38.2711 5.5871C37.3399 4.65591 36.4753 3.79123 35.5441 2.86003C35.5441 5.38756 35.5441 7.91509 35.5441 10.4426C35.5441 11.3738 36.1427 17.6926 35.012 17.6926Z" fill="#F6C866"/>
<path d="M54.9662 0.997772C54.035 0.598688 51.3744 4.05741 50.7093 4.72255C49.7781 3.79136 48.8469 2.86016 47.9157 1.92897C47.3171 1.33034 46.3859 0.332632 46.0533 1.72943C45.8537 2.72713 46.0533 3.92439 46.0533 4.92209C46.0533 6.65146 46.0533 8.38082 46.0533 10.1102C46.0533 11.7065 46.0533 13.3029 46.0533 14.9657C46.0533 15.5643 45.8537 16.562 46.0533 17.0941C46.3193 17.8923 46.9845 17.7593 47.184 17.0276C47.2505 16.7616 47.184 16.3625 47.184 16.1629C47.184 14.6331 47.184 13.1698 47.184 11.64C47.184 8.71339 47.184 5.78678 47.184 2.92668C47.7161 3.45879 48.2482 3.9909 48.8469 4.58952C49.1794 4.92209 50.0441 6.18586 50.6427 6.18586C51.2414 6.18586 51.973 5.05512 52.3721 4.72255C53.0372 4.12393 53.5694 3.5253 54.168 2.99319C54.168 7.51614 54.035 11.9726 54.168 16.4955C54.168 17.1607 54.6336 18.5575 55.2987 17.3602C55.4983 16.9611 55.3652 16.163 55.3652 15.7639C55.3652 13.0368 55.3652 10.2432 55.3652 7.51614C55.3652 6.11935 55.3652 4.65604 55.3652 3.25925C55.3652 2.66062 55.5648 1.26383 54.9662 0.997772C54.7666 0.931258 55.1657 1.1308 54.9662 0.997772Z" fill="#F6C866"/>
</g>
<defs>
<clipPath id="clip0">
<rect width="54.9405" height="17.3601" fill="white" transform="translate(0.491211 0.997559)"/>
</clipPath>
</defs>
</svg>
