<svg width="91" height="92" viewBox="0 0 91 92" fill="none" xmlns="http://www.w3.org/2000/svg">
<path d="M46.3249 2.10059C21.8046 2.10059 1.83691 22.1387 1.83691 46.7455C1.83691 71.3524 21.8046 91.3905 46.3249 91.3905C70.8453 91.3905 90.813 71.3524 90.813 46.7455C90.8928 22.1387 70.9251 2.10059 46.3249 2.10059ZM88.8162 50.1921C88.337 56.1234 86.5798 61.6539 84.0239 66.3829C81.548 71.1119 78.1934 75.1195 74.7589 78.2455C71.2446 81.3714 67.5706 83.6157 64.0563 85.1386C60.6218 86.6615 57.427 87.5432 54.7912 88.0241C52.1555 88.505 49.999 88.5852 48.5613 88.6653C47.1236 88.6653 46.3249 88.6653 46.3249 88.6653C46.3249 88.6653 47.1236 88.5852 48.5613 88.5852C49.999 88.4249 52.0756 88.2645 54.7114 87.6233C57.3471 87.0623 60.4621 86.0203 63.7368 84.4172C67.0913 82.8142 70.6057 80.4898 73.9602 77.3638C77.2349 74.2379 80.3499 70.3104 82.6661 65.6615C84.9824 61.0127 86.4999 55.6425 86.9792 50.0318C87.3785 44.341 86.6597 38.4898 84.6629 32.9593C83.2252 28.8715 80.9889 25.0242 78.3531 21.5777C79.1518 24.3028 80.0304 28.07 80.3499 32.3982C80.27 32.3181 80.1902 32.2379 80.1103 32.1578C79.6311 31.757 79.072 31.5967 78.7525 31.5967C78.5927 31.5967 78.433 31.6769 78.3531 31.6769C78.2733 31.6769 78.1934 31.757 78.1934 31.757C78.1934 31.757 78.2733 31.757 78.3531 31.757C78.433 31.757 78.5927 31.8372 78.6726 31.9173C78.9122 32.0776 79.2317 32.3181 79.5512 32.7188C79.7908 33.1196 80.0304 33.6807 80.1103 34.2417C80.1103 34.3219 80.1103 34.4021 80.1103 34.4822V34.7227C80.1103 34.883 80.1103 35.0433 80.1103 35.1234C80.1103 35.444 80.0304 35.6845 79.9505 36.0051C79.8707 36.2456 79.7109 36.486 79.5512 36.6463C79.3914 36.8066 79.3116 36.8868 78.9921 36.9669C78.9122 36.9669 78.5927 36.9669 78.433 36.8868C78.1934 36.8066 78.0336 36.6463 77.794 36.486C77.3947 36.1654 77.1551 35.7646 76.9953 35.5242C76.8356 35.2837 76.7557 35.0433 76.7557 35.0433C76.7557 35.0433 76.7557 35.1234 76.7557 35.2036C76.7557 35.2837 76.7557 35.444 76.7557 35.6043C76.7557 35.9249 76.8356 36.486 77.1551 36.9669C77.3148 37.2074 77.5544 37.528 77.8739 37.7685C78.1934 38.0089 78.5927 38.2494 79.1518 38.2494C79.5512 38.2494 80.1902 38.0891 80.5096 37.7685L80.5895 37.6883C80.5096 40.173 80.1901 42.8181 79.6311 45.5433C80.1901 45.5433 80.5895 45.3028 80.909 45.0623C81.2285 44.8219 81.4681 44.5814 81.6278 44.341C81.7876 44.1005 81.9473 43.9402 82.0272 43.8601C82.107 43.7799 82.1869 43.6997 82.1869 43.6997C82.1869 43.6997 82.1869 43.8601 82.1869 44.0204C82.1869 44.2608 82.107 44.5814 81.9473 44.902C81.7876 45.2226 81.4681 45.6234 81.0687 45.944C80.6694 46.2646 80.1901 46.4249 79.6311 46.4249C79.072 46.4249 78.5927 46.2646 78.1934 45.944C77.794 45.6234 77.5544 45.2226 77.3947 44.902C77.2349 44.5814 77.1551 44.1807 77.1551 44.0204C77.1551 43.7799 77.1551 43.6997 77.1551 43.6997C77.1551 43.6997 76.8356 43.8601 76.7557 44.5814C76.7557 44.9822 76.7557 45.4631 77.1551 46.1043C77.4745 46.6654 78.1934 47.3066 79.2317 47.4669C79.072 47.9478 78.9921 48.4287 78.8323 48.9097C78.1934 48.9097 77.6343 49.1501 77.2349 49.631C76.5161 50.5127 76.6758 51.8753 77.5544 52.5967C76.9155 54.1997 76.1167 55.8829 75.2382 57.486C76.0369 57.5661 76.6758 57.3257 77.1551 57.0852C77.794 56.7646 78.1934 56.3638 78.5129 56.0432C78.8324 55.7226 78.9921 55.4822 79.1518 55.402C79.3116 55.2417 79.3914 55.2417 79.3914 55.2417C79.3914 55.2417 79.3116 55.402 79.2317 55.8028C79.072 56.1234 78.8323 56.6043 78.433 57.0852C78.0336 57.5661 77.4745 57.9669 76.7557 58.2875C76.4362 58.4478 76.0369 58.528 75.6375 58.528C75.2382 58.528 74.8388 58.528 74.4395 58.3677C74.0401 58.2875 73.6407 58.047 73.3213 57.8867C73.0018 57.6463 72.6823 57.4058 72.4427 57.0852C71.9635 56.444 71.7238 55.8028 71.644 55.1616C71.5641 54.5203 71.5641 54.0394 71.644 53.7188C71.7238 53.3982 71.7239 53.1577 71.7239 53.1577C71.7239 53.1577 71.644 53.1577 71.5641 53.3181C71.4044 53.4784 71.2446 53.7188 71.0849 54.2799C71.005 54.7608 70.8453 55.5623 71.2446 56.5242C71.4044 57.0051 71.7238 57.5661 72.2031 58.047C72.6823 58.528 73.3213 59.0089 74.1998 59.2493C73.8804 59.8104 73.481 60.3715 73.1615 60.9325C72.9219 60.9325 72.6823 60.9325 72.4427 60.9325C71.0849 61.173 70.2063 62.2951 70.366 63.4173C70.366 63.4974 70.4459 63.6577 70.4459 63.7379C69.4875 63.4974 68.6089 62.6157 68.3693 61.2531C67.9699 58.8486 65.8933 53.8791 63.9764 52.8371C61.8997 51.715 60.2225 54.4402 61.3406 55.3219C63.8965 57.2455 62.6186 60.9325 62.8582 64.1386C62.9381 65.4211 63.577 66.4631 64.1361 67.4249C62.8582 67.8257 62.0595 69.0279 62.2991 70.1501C62.379 70.7913 62.7783 71.2722 63.3374 71.5928C62.5387 72.234 61.8199 72.7951 61.0212 73.3562C61.0212 73.276 61.0212 73.1959 61.0212 73.1157C60.9413 72.0737 60.6218 71.1921 60.2225 70.5508C59.8231 69.9096 59.3439 69.4287 58.9445 69.1882C58.0659 68.547 57.427 68.4669 57.1075 68.4669C56.7081 68.4669 56.6283 68.4669 56.6283 68.4669C56.6283 68.4669 56.7081 68.4669 56.8679 68.547C57.0276 68.6272 57.2672 68.7073 57.5867 68.8676C58.1458 69.1882 59.0244 69.9096 59.5835 70.9516C60.1426 71.9936 60.3023 73.5165 59.7432 74.9592C59.264 76.402 58.0659 77.6844 56.6283 78.4058C55.1906 79.1272 53.4334 79.2073 52.0756 78.6462C50.638 78.0852 49.5996 76.963 49.2003 75.8409C48.7211 74.7188 48.8009 73.6768 48.9607 72.9554C49.0405 72.6348 49.1204 72.3142 49.2003 72.1539C49.2802 71.9936 49.2802 71.9134 49.2802 71.9134C49.2802 71.9134 49.2003 71.9936 48.9607 72.3142C48.8009 72.6348 48.4016 73.1959 48.3217 74.2379C48.2418 74.7188 48.2418 75.36 48.4815 76.1615C48.6412 76.8829 49.1204 77.6844 49.8393 78.4859C49.999 78.6462 50.1587 78.8065 50.3983 78.9669C49.5198 79.2875 48.6412 79.5279 47.7626 79.7684C47.523 79.1272 47.2035 78.7264 46.884 78.4058C46.4847 78.005 46.0853 77.7646 45.7658 77.6043C45.047 77.2837 44.6477 77.2836 44.3282 77.2836C44.0886 77.2836 43.9288 77.3638 43.9288 77.3638C43.9288 77.3638 44.0087 77.3638 44.0886 77.444C44.2483 77.5241 44.408 77.6043 44.6477 77.6844C45.1269 77.9249 45.686 78.3256 46.2451 78.9669C46.4847 79.2875 46.7243 79.6882 46.884 80.1691C47.0438 80.6501 46.9639 81.2111 46.8042 81.692C46.4048 82.734 45.2866 83.3752 44.1684 83.6157C41.932 84.0966 39.4561 83.0546 38.4976 81.6119C38.0184 80.8905 37.8586 80.1691 37.9385 79.6081C37.9385 79.3676 38.0184 79.1272 38.0983 79.047C38.1781 78.8867 38.1781 78.8867 38.1781 78.8867C38.1781 78.8867 38.0983 78.8867 37.8586 79.1272C37.6989 79.3676 37.3794 79.7684 37.3794 80.5699C37.3794 80.7302 37.3794 80.9707 37.4593 81.2111C36.9002 81.2111 36.3411 81.2111 35.8619 81.2111C35.9417 80.9707 35.9417 80.6501 35.8619 80.4096C35.6223 79.1272 34.1846 78.2455 32.667 78.5661C32.5872 78.5661 32.4274 78.6462 32.3476 78.6462C32.3476 78.0852 32.5073 77.5241 32.8268 77.1233C34.2645 75.0394 38.4177 73.5165 38.5775 69.9096C38.6573 67.2646 27.3956 68.1463 27.3956 72.3943C27.4754 76.5623 25.5585 76.2417 24.1209 78.5661C23.8813 78.9669 23.6416 79.2875 23.402 79.5279C22.3637 79.2073 21.4053 78.9669 20.6065 78.6462C20.6864 78.5661 20.6864 78.4859 20.7663 78.4058C21.0858 77.8447 20.8462 77.0432 20.1273 76.6424C19.4884 76.2417 18.6098 76.402 18.2903 76.963C18.2104 77.1234 18.2104 77.2035 18.1306 77.3638C10.0636 69.7493 5.03175 58.9287 5.03175 46.9058C5.03175 46.9058 5.03175 46.1043 5.03175 44.6616C5.11162 43.2188 5.19149 41.0547 5.67071 38.4097C6.14994 35.7646 7.02851 32.5585 8.54606 29.112C10.0636 25.6654 12.3 21.8983 15.4149 18.4517C18.5299 14.925 22.4436 11.6387 27.2358 9.15401C31.9482 6.58913 37.4593 4.82577 43.3697 4.34486C49.2003 3.86394 55.4302 4.50516 61.2608 6.66928C67.0913 8.75325 72.5226 12.1998 76.9953 16.6883C81.3882 21.1769 84.9025 26.6273 86.9792 32.4784C88.6565 38.0891 89.2954 44.341 88.8162 50.1921Z" fill="white" fill-opacity="0.2"/>
<path d="M57.5869 58.3675C57.1875 57.7263 56.7083 57.1652 56.2291 56.7645C55.7499 56.3637 55.1908 56.1233 54.7115 55.9629C54.2323 55.8026 53.833 55.7225 53.4336 55.6423C53.0343 55.6423 52.7946 55.6423 52.6349 55.6423C52.4752 55.6423 52.3154 55.6423 52.3154 55.6423C52.3154 55.6423 52.3953 55.6423 52.6349 55.7225C52.7946 55.7225 53.1141 55.8026 53.4336 55.8828C53.7531 55.9629 54.1524 56.1233 54.5518 56.3637C54.9512 56.6042 55.3505 56.9248 55.7499 57.3255C56.1492 57.7263 56.4687 58.2072 56.7083 58.7683C56.9479 59.3294 57.1077 59.9706 57.1077 60.6118C57.1077 60.7721 57.1077 60.9324 57.1077 61.0927C57.1077 61.253 57.1077 61.4935 57.0278 61.6538C56.9479 61.9744 56.8681 62.295 56.7882 62.6156C56.5486 63.2568 56.1492 63.8179 55.67 64.2988C55.1908 64.7797 54.6317 65.1805 53.9927 65.4209C53.3537 65.6614 52.7148 65.7416 51.9959 65.7416C51.357 65.7416 50.718 65.5813 50.1589 65.3408C49.5998 65.1003 49.1206 64.7797 48.7212 64.379C48.3219 63.9782 48.0024 63.5774 47.7628 63.1767C47.5232 62.7759 47.3634 62.3751 47.2836 62.0545C47.2037 61.7339 47.1238 61.4935 47.1238 61.253C47.1238 61.0927 47.0439 60.9324 47.0439 60.9324C47.0439 60.9324 47.0439 61.0126 47.0439 61.253C47.0439 61.4133 47.0439 61.7339 47.0439 62.0545C47.1238 62.3751 47.1238 62.8561 47.3634 63.337C47.5232 63.8179 47.7628 64.2988 48.1621 64.8599C48.9608 65.9019 50.2388 66.7835 51.9959 66.9438C52.7946 67.024 53.6732 66.9438 54.4719 66.6232C55.2706 66.3026 56.0693 65.8217 56.7083 65.2606C57.3473 64.6194 57.8265 63.8179 58.0661 63.0164C58.2259 62.6156 58.3057 62.2148 58.3856 61.7339C58.3856 61.4935 58.3856 61.3332 58.3856 61.1729C58.3856 60.9324 58.3856 60.7721 58.3856 60.5316C58.2259 59.7301 57.9064 59.0087 57.5869 58.3675Z" fill="white" fill-opacity="0.2"/>
<path d="M34.0248 55.7226C33.8651 54.5203 33.1463 53.6386 32.4274 53.0776C32.0281 52.8371 31.7086 52.6768 31.3891 52.5165C31.0696 52.4364 30.7501 52.3562 30.5105 52.3562C30.2709 52.3562 30.0313 52.3562 29.9514 52.3562C29.7917 52.3562 29.7917 52.3562 29.7917 52.3562C29.7917 52.3562 29.8716 52.3562 29.9514 52.4364C30.1112 52.4364 30.2709 52.5165 30.4307 52.5967C30.83 52.757 31.3891 53.0776 31.8683 53.6386C32.108 53.8791 32.3476 54.1997 32.5073 54.6005C32.667 55.0012 32.7469 55.402 32.7469 55.8028C32.7469 55.8829 32.7469 56.0432 32.7469 56.1234C32.7469 56.2035 32.7469 56.3638 32.7469 56.5241C32.7469 56.6844 32.667 56.9249 32.5872 57.0852C32.4274 57.486 32.1878 57.8867 31.9482 58.1272C31.6287 58.4478 31.3092 58.6883 30.9099 58.8486C30.5105 59.0089 30.1112 59.089 29.632 59.089C29.2326 59.089 28.8332 59.0089 28.4339 58.8486C28.0345 58.6883 27.7151 58.5279 27.4754 58.2875C27.2358 58.047 26.9962 57.8066 26.8365 57.5661C26.6767 57.3257 26.517 57.0852 26.4371 56.8447C26.3573 56.6043 26.2774 56.444 26.2774 56.3638C26.2774 56.2035 26.1975 56.2035 26.1975 56.2035C26.1975 56.2035 26.1975 56.2837 26.1975 56.3638C26.1975 56.5241 26.1975 56.6844 26.1975 56.9249C26.1975 57.1654 26.2774 57.486 26.3573 57.8066C26.4371 58.1272 26.6767 58.5279 26.9163 58.8486C27.156 59.1692 27.5553 59.5699 27.9547 59.8104C28.4339 60.0508 28.9131 60.2913 29.5521 60.3715C30.1112 60.4516 30.7501 60.3715 31.3092 60.2112C31.8683 60.0508 32.4274 59.6501 32.9067 59.1692C33.3859 58.6883 33.7054 58.1272 33.8651 57.5661C33.945 57.2455 34.0248 56.9249 34.0248 56.6043C34.0248 56.444 34.0248 56.3638 34.0248 56.2035C34.1047 55.9631 34.0248 55.8829 34.0248 55.7226Z" fill="white" fill-opacity="0.2"/>
<path d="M39.5359 45.9439C39.9353 46.024 40.4145 46.024 40.8139 45.8637C41.2132 45.7034 41.6925 45.4629 42.0119 45.1423C42.3314 44.8217 42.571 44.421 42.7308 43.94C42.8106 43.6996 42.8106 43.5393 42.8106 43.2187C42.8106 43.0584 42.8106 43.0584 42.8106 42.9782C42.8106 42.8179 42.8106 42.7378 42.8106 42.6576C42.6509 41.7759 42.1717 41.1347 41.6126 40.8141C41.0535 40.4935 40.5743 40.4133 40.2548 40.4133C39.9353 40.4133 39.7756 40.4935 39.7756 40.4935C39.7756 40.4935 39.8554 40.4935 39.9353 40.5736C40.0152 40.5736 40.1749 40.6538 40.2548 40.7339C40.4944 40.8942 40.8937 41.1347 41.1334 41.4553C41.4528 41.8561 41.6126 42.337 41.6126 42.8179C41.6126 42.8981 41.6126 42.9782 41.6126 42.9782C41.6126 43.0584 41.6126 43.1385 41.6126 43.2187C41.6126 43.2988 41.5327 43.4591 41.5327 43.5393C41.4528 43.7797 41.2931 44.0202 41.1334 44.1805C40.9736 44.3408 40.734 44.5011 40.4944 44.5813C40.2548 44.6614 40.0152 44.7416 39.7756 44.7416C39.5359 44.7416 39.2963 44.7416 39.0567 44.6614C38.8171 44.5813 38.5775 44.5011 38.4177 44.3408C38.0184 44.1003 37.7788 43.6996 37.619 43.4591C37.5392 43.2988 37.4593 43.2187 37.4593 43.1385C37.4593 43.0584 37.3794 42.9782 37.3794 42.9782C37.3794 42.9782 37.3794 43.0584 37.3794 43.1385C37.3794 43.2187 37.2996 43.379 37.2996 43.5393C37.2996 43.8599 37.3794 44.421 37.7788 44.9019C37.9385 45.1423 38.1781 45.3828 38.4976 45.6232C38.6574 45.7835 39.0567 45.9439 39.5359 45.9439Z" fill="white" fill-opacity="0.2"/>
<path d="M17.1726 31.5969C17.5719 31.7572 18.131 31.7572 18.6102 31.677C19.5687 31.4365 20.4473 30.8755 21.0862 30.074C21.4057 29.6732 21.7252 29.2724 21.885 28.7915C22.1246 28.3908 22.2843 27.8297 22.2843 27.4289C22.444 26.4671 22.2044 25.5053 21.7252 24.9442C21.4856 24.6236 21.1661 24.4633 20.8466 24.3831C20.5271 24.303 20.2875 24.303 20.0479 24.303C19.6486 24.303 19.409 24.4633 19.409 24.4633C19.409 24.4633 19.4888 24.4633 19.5687 24.4633C19.6486 24.4633 19.8083 24.4633 20.0479 24.4633C20.2077 24.4633 20.5271 24.5434 20.6869 24.7037C20.9265 24.864 21.1661 25.0243 21.3259 25.2648C21.7252 25.8259 21.8051 26.6274 21.6453 27.4289C21.5655 27.8297 21.4057 28.2304 21.246 28.6312C21.0862 29.032 20.7668 29.4327 20.5271 29.7533C19.8882 30.3144 19.1693 30.8755 18.3706 31.0358C17.9713 31.1159 17.5719 31.1961 17.2524 31.1159C16.933 31.0358 16.6135 30.8755 16.3739 30.635C15.8946 30.1541 15.8148 29.593 15.7349 29.1923C15.7349 28.9518 15.7349 28.7915 15.7349 28.7114C15.7349 28.6312 15.7349 28.5511 15.7349 28.5511C15.7349 28.5511 15.7349 28.6312 15.7349 28.7114C15.7349 28.7915 15.655 28.9518 15.655 29.1923C15.655 29.593 15.655 30.3144 16.1343 30.9556C16.3739 31.1961 16.6933 31.5167 17.1726 31.5969Z" fill="white" fill-opacity="0.2"/>
<path d="M17.1721 18.6119C17.1721 18.4516 17.2519 18.4516 17.2519 18.4516C17.2519 18.4516 17.1721 18.5317 17.1721 18.6119C17.0123 18.692 16.9324 18.8523 16.8526 19.0928C16.7727 19.3332 16.613 19.6539 16.613 19.9745C16.5331 20.3752 16.5331 20.776 16.7727 21.2569C16.9324 21.7378 17.3318 22.1386 17.8909 22.4592C18.1305 22.6195 18.45 22.6997 18.7695 22.7798C18.9292 22.86 19.0091 22.86 19.1688 22.86H19.2487C19.3286 22.86 19.3286 22.86 19.4084 22.86H19.648C20.8461 22.86 22.0442 22.379 23.0026 21.6577C23.4818 21.3371 23.9611 20.9363 24.3604 20.4554C24.5202 20.2149 24.7598 19.9745 24.9195 19.734C25.0793 19.4936 25.239 19.1729 25.3189 18.9325C25.5585 18.4516 25.7182 17.8905 25.7981 17.3294C25.878 16.7684 25.7182 16.2073 25.4786 15.8065C25.239 15.3256 24.9195 15.0852 24.6 14.8447C24.2805 14.6844 23.9611 14.6042 23.7215 14.6042C23.1624 14.6042 22.9227 14.6844 22.9227 14.6844C22.9227 14.6844 23.0026 14.6844 23.0825 14.7646C23.2422 14.7646 23.402 14.8447 23.6416 14.9249C23.8812 15.005 24.1208 15.1653 24.2805 15.3256C24.5202 15.5661 24.6799 15.8065 24.7598 16.1271C24.8396 16.4478 24.8396 16.8485 24.7598 17.2493C24.6799 17.65 24.5202 18.0508 24.2805 18.4516C24.1208 18.692 24.0409 18.8523 23.8812 19.0126C23.7215 19.1729 23.5617 19.4134 23.402 19.5737C23.0825 19.8943 22.6831 20.2951 22.2838 20.5355C21.4851 21.0966 20.5266 21.4974 19.648 21.6577H19.4883H19.4084H19.3286C19.1688 21.6577 19.0889 21.6577 19.0091 21.6577C18.8493 21.6577 18.6097 21.6577 18.45 21.5775C18.1305 21.4974 17.811 21.2569 17.6513 21.0164C17.2519 20.4554 17.2519 19.734 17.3318 19.3332C17.0922 18.9325 17.1721 18.7722 17.1721 18.6119Z" fill="white" fill-opacity="0.2"/>
<path d="M12.0605 49.23C12.3799 48.6689 12.5397 48.0277 12.6994 47.3063C12.7793 46.6651 12.7793 45.9437 12.6994 45.3025C12.6196 44.9819 12.5397 44.6613 12.4598 44.3407C12.3799 44.1804 12.3001 44.0201 12.3001 43.8598C12.2202 43.6994 12.1403 43.6193 12.0605 43.459C11.741 42.8178 11.2618 42.417 10.7027 42.0964C10.1436 41.7758 9.58447 41.6155 9.10525 41.6155C8.54615 41.6155 8.1468 41.7758 7.74744 41.9361C7.34809 42.0964 7.10848 42.3369 6.94873 42.4972C6.54938 42.9781 6.38964 43.2185 6.38964 43.2185C6.38964 43.2185 6.46951 43.1384 6.54938 43.1384C6.62925 43.0582 6.86886 42.9781 7.10848 42.8178C7.34809 42.7376 7.5877 42.5773 7.98705 42.4972C8.30654 42.417 8.70589 42.417 9.10525 42.4972C9.5046 42.5773 9.82408 42.7376 10.2234 42.9781C10.5429 43.2185 10.8624 43.6193 11.0221 44.0201C11.102 44.1804 11.1819 44.2605 11.1819 44.4208C11.1819 44.501 11.2618 44.6613 11.2618 44.7414C11.3416 44.9819 11.3416 45.2223 11.4215 45.4628C11.5014 45.9437 11.5014 46.5048 11.3416 47.0659C11.2618 47.6269 11.102 48.1078 10.8624 48.5888C10.6228 49.0697 10.3832 49.5506 10.0637 49.8712C9.66434 50.272 9.42473 50.5124 9.02538 50.7529C8.62602 50.9933 8.22667 51.0735 7.82731 51.0735C7.42796 51.0735 7.10848 50.9933 6.78899 50.9132C6.46951 50.7529 6.2299 50.5926 5.99028 50.4323C5.75067 50.272 5.59093 50.1918 5.51106 50.0315C5.43119 49.9513 5.35132 49.8712 5.35132 49.8712C5.35132 49.8712 5.35132 49.9513 5.43119 50.1117C5.51106 50.272 5.59093 50.4323 5.75067 50.6727C5.91041 50.9132 6.15003 51.1536 6.46951 51.3941C6.78899 51.6346 7.18835 51.875 7.74744 51.9552C8.22667 52.0353 8.86563 52.0353 9.42473 51.7949C9.98382 51.6346 10.5429 51.2338 10.9423 50.833C11.4215 50.3521 11.8209 49.791 12.0605 49.23Z" fill="white" fill-opacity="0.2"/>
<path d="M53.1943 15.0852C53.993 15.0852 54.8716 15.0852 55.6703 14.9249C56.469 14.7646 57.2677 14.5241 58.0664 14.1233C58.7054 13.8027 59.4242 13.1615 59.8236 12.4401C59.9833 12.0394 60.1431 11.6386 60.1431 11.2379C60.1431 10.8371 60.0632 10.5165 59.9035 10.1959C59.6638 9.55465 59.2645 9.07373 58.8651 8.75312C58.4658 8.43251 58.1463 8.19206 57.8268 8.03175C57.5073 7.87144 57.2677 7.79129 57.108 7.71114C56.9482 7.63099 56.8684 7.63099 56.8684 7.63099C56.8684 7.63099 56.9482 7.71114 57.108 7.79129C57.2677 7.87144 57.5073 8.1119 57.7469 8.27221C57.9866 8.51267 58.306 8.83327 58.5457 9.15389C58.7853 9.55465 59.1047 9.95541 59.1846 10.4363C59.2645 10.9172 59.2645 11.4783 58.945 11.8791C58.6255 12.36 58.1463 12.6806 57.5073 13.0012C56.9482 13.2417 56.2294 13.402 55.5106 13.5623C54.7917 13.6424 54.0729 13.7226 53.2742 13.6424C52.5553 13.6424 51.7566 13.4821 51.0378 13.3218C50.319 13.1615 49.6001 12.9211 48.9612 12.6806C48.8014 12.6004 48.6417 12.5203 48.4819 12.4401C48.3222 12.36 48.1624 12.2798 48.0027 12.1997C47.6832 12.0394 47.4436 11.8791 47.204 11.7188C46.7248 11.318 46.3254 10.9172 46.0059 10.4363C45.7663 9.95541 45.6066 9.4745 45.6864 9.07373C45.7663 8.67297 45.9261 8.27221 46.0858 8.03175C46.2455 7.79129 46.4852 7.55083 46.565 7.39053C46.7248 7.23022 46.8046 7.23022 46.8046 7.23022C46.8046 7.23022 46.7248 7.31038 46.565 7.39053C46.4053 7.47068 46.1657 7.63099 45.9261 7.87145C45.6864 8.1119 45.367 8.51267 45.2072 8.99358C45.0475 9.4745 45.0475 10.1959 45.367 10.8371C45.6066 11.4783 46.0858 12.0394 46.565 12.5203C46.8046 12.7607 47.1241 13.0012 47.4436 13.2417C47.6033 13.3218 47.7631 13.402 47.9228 13.5623C48.0826 13.6424 48.2423 13.7226 48.4819 13.8829C49.2008 14.2035 49.9196 14.5241 50.7183 14.7646C51.5969 14.9249 52.3956 15.0852 53.1943 15.0852Z" fill="white" fill-opacity="0.2"/>
<path d="M66.6126 36.0051C66.6126 35.7646 66.6924 35.5242 66.6924 35.2837C66.6924 35.0433 66.6924 34.883 66.6924 34.6425C66.6924 34.4021 66.6126 34.2417 66.6126 34.0013C66.2931 32.3181 65.3346 31.0356 64.2963 30.3143C63.8171 29.9135 63.258 29.6731 62.7788 29.5127C62.2996 29.3524 61.9002 29.2723 61.5008 29.1921C61.1015 29.1921 60.8619 29.1921 60.7021 29.1921C60.5424 29.1921 60.3827 29.1921 60.3827 29.1921C60.3827 29.1921 60.4625 29.1921 60.7021 29.2723C60.8619 29.2723 61.1814 29.4326 61.5008 29.5127C61.8203 29.6731 62.2197 29.8334 62.619 30.0738C63.0184 30.3143 63.4177 30.6349 63.8171 31.0356C64.6158 31.8372 65.2548 32.9593 65.4145 34.3219C65.4145 34.4822 65.4145 34.6425 65.4145 34.8028C65.4145 34.9631 65.4145 35.1234 65.4145 35.3639C65.3346 35.6845 65.3346 36.0051 65.2548 36.3257C65.095 36.9669 64.6957 37.528 64.2165 38.0089C63.7372 38.4898 63.1781 38.8104 62.5392 39.0509C62.2197 39.131 61.9002 39.2112 61.5807 39.2112H61.1015C60.9417 39.2112 60.7021 39.2112 60.5424 39.2112C59.9034 39.1311 59.2645 38.9707 58.7054 38.6501C58.1463 38.4097 57.667 38.0089 57.2677 37.6082C56.8683 37.2074 56.5489 36.8066 56.3092 36.4059C56.0696 36.0051 55.9099 35.6043 55.7501 35.3639C55.6703 35.0433 55.5105 34.8028 55.5105 34.5624C55.4307 34.4021 55.4307 34.3219 55.4307 34.3219C55.4307 34.3219 55.4307 34.4021 55.4307 34.6425C55.4307 34.8028 55.4307 35.1234 55.4307 35.444C55.5105 35.7646 55.5904 36.2456 55.7501 36.7265C55.9099 37.2074 56.2294 37.6883 56.6287 38.1692C57.0281 38.6501 57.5073 39.131 58.1463 39.5318C58.7852 39.9326 59.5041 40.2532 60.3827 40.4135C60.5424 40.4135 60.782 40.4936 60.9418 40.4936C61.1814 40.4936 61.3411 40.4936 61.5807 40.4936C61.8203 40.4936 61.9801 40.4936 62.2197 40.4135C62.4593 40.3333 62.619 40.3333 62.8586 40.2532C63.7372 40.0127 64.5359 39.5318 65.1749 38.8906C65.8139 38.2494 66.2931 37.4478 66.5327 36.5662C66.5327 36.486 66.5327 36.2456 66.6126 36.0051Z" fill="white" fill-opacity="0.2"/>
<path d="M22.1239 43.7799C22.6031 43.6998 23.1622 43.6196 23.5616 43.299C24.0408 43.0585 24.4401 42.7379 24.7596 42.3372C25.0791 41.9364 25.3986 41.4555 25.5583 40.9746C25.7181 40.4937 25.798 39.9326 25.7181 39.4517C25.6382 38.9708 25.4785 38.4898 25.2389 38.0891C24.9992 37.6883 24.6798 37.4479 24.2804 37.2074C23.5616 36.8066 22.9226 36.8066 22.5233 36.8066C22.2836 36.8066 22.1239 36.8868 22.044 36.8868C21.9642 36.8868 21.8843 36.9669 21.8843 36.9669C21.8843 36.9669 21.9642 36.9669 22.044 36.9669C22.1239 36.9669 22.2836 36.9669 22.5233 37.0471C22.9226 37.1273 23.4817 37.2876 23.9609 37.6883C24.4401 38.0891 24.8395 38.7303 24.8395 39.5318C24.8395 39.9326 24.7596 40.3334 24.6798 40.654C24.52 41.0547 24.3603 41.3753 24.0408 41.6959C23.4817 42.3372 22.7629 42.7379 21.9642 42.8982C21.7245 42.9784 21.5648 42.9784 21.4051 42.9784C21.2453 42.9784 21.0057 42.9784 20.846 42.8982C20.5265 42.8181 20.207 42.6578 19.8875 42.4975C19.3284 42.1769 19.0089 41.6158 18.8492 41.2952C18.6895 40.8944 18.6895 40.654 18.6895 40.654C18.6895 40.654 18.6895 40.7341 18.6895 40.8143C18.6895 40.8944 18.6895 41.1349 18.6895 41.2952C18.7693 41.6959 18.9291 42.3372 19.568 42.8982C19.8875 43.1387 20.207 43.3791 20.6862 43.5395C20.9258 43.6196 21.1654 43.6998 21.4051 43.6998C21.6447 43.7799 21.9642 43.7799 22.1239 43.7799Z" fill="white" fill-opacity="0.2"/>
<path d="M61.2611 14.1234C61.341 14.0432 61.341 14.0432 61.341 14.0432C61.341 14.0432 61.341 14.0432 61.2611 14.1234C61.1014 14.1234 60.9416 14.1234 60.7819 14.2837C60.6221 14.444 60.4624 14.6043 60.3027 14.9249C60.2228 15.2455 60.1429 15.5661 60.2228 15.9669C60.3027 16.3676 60.4624 16.6882 60.702 17.089C60.7819 17.2493 60.9416 17.4096 61.1014 17.5699C61.2611 17.7302 61.341 17.8104 61.5806 18.0508C62.2195 18.6119 63.0183 19.0928 63.9767 19.3333C64.4559 19.4134 64.9352 19.4936 65.4144 19.4936C65.654 19.4936 65.8936 19.4936 66.1332 19.4134C66.293 19.4134 66.3728 19.3333 66.5326 19.3333C66.6923 19.2531 66.7722 19.2531 66.8521 19.173C67.3313 18.9325 67.7306 18.5318 67.8904 18.0508C68.0501 17.5699 67.9702 17.089 67.8105 16.7684C67.491 16.047 67.0917 15.7264 66.7722 15.486C66.6124 15.4058 66.4527 15.3257 66.3728 15.2455C66.293 15.1653 66.2131 15.1653 66.2131 15.1653C66.2131 15.1653 66.2131 15.2455 66.293 15.3257C66.3728 15.4058 66.4527 15.5661 66.5326 15.7264C66.6923 16.047 66.9319 16.5279 67.0118 17.0089C67.0118 17.2493 67.0118 17.4898 66.8521 17.7302C66.7722 17.8905 66.5326 18.0508 66.293 18.131C66.2131 18.2111 66.1332 18.2111 66.0533 18.2111C65.9735 18.2111 65.8936 18.2111 65.8137 18.2111C65.654 18.2111 65.4943 18.2111 65.3345 18.2111C65.015 18.2111 64.6157 18.131 64.2962 18.0508C63.9767 17.9707 63.5773 17.8104 63.2579 17.6501C62.9384 17.4898 62.6189 17.3295 62.2994 17.089C62.2195 17.0089 61.9799 16.8486 61.9001 16.7684C61.8202 16.6882 61.6605 16.5279 61.5806 16.4478C61.341 16.2073 61.1812 15.9669 61.1014 15.7264C60.8617 15.2455 60.8617 14.8447 61.0215 14.5241C61.1014 14.3638 61.2611 14.2035 61.2611 14.1234Z" fill="white" fill-opacity="0.2"/>
<path d="M23.4817 67.5852C23.0823 67.0242 22.6031 66.7036 22.2836 66.4631C22.1239 66.383 21.9642 66.3028 21.8843 66.3028C21.8044 66.3028 21.7245 66.2227 21.7245 66.2227C21.7245 66.2227 21.8843 66.383 22.1239 66.6234C22.3635 66.8639 22.683 67.3448 22.9226 67.8257C23.1622 68.3868 23.4018 69.028 23.4018 69.7494C23.4018 69.9097 23.4018 70.1501 23.322 70.2303C23.322 70.3104 23.2421 70.4707 23.2421 70.5509C23.2421 70.6311 23.2421 70.7112 23.1622 70.7112C23.0025 71.0318 22.8427 71.1921 22.6031 71.2723C22.3635 71.3524 22.044 71.3524 21.7245 71.2723C21.5648 71.1921 21.4051 71.112 21.2453 71.112L21.0057 70.9517L20.7661 70.7914C20.207 70.3906 19.7278 69.8295 19.4882 69.2685C19.1687 68.7875 19.0089 68.2265 18.9291 67.9059C18.8492 67.5852 18.8492 67.3448 18.8492 67.3448C18.8492 67.3448 18.8492 67.4249 18.7693 67.5051C18.7693 67.5852 18.6895 67.7456 18.6895 67.9059C18.6895 68.3066 18.6895 68.8677 18.9291 69.5089C19.1687 70.1501 19.568 70.8715 20.207 71.4326L20.4466 71.673L20.6862 71.8333C20.846 71.9936 21.0856 72.0738 21.3252 72.154C21.8044 72.3143 22.3635 72.3944 22.9226 72.154C23.4817 71.9936 23.8811 71.5127 24.1207 71.0318C24.2005 70.9517 24.2005 70.7914 24.2804 70.6311C24.2804 70.4707 24.2804 70.3906 24.3603 70.3104C24.3603 69.9898 24.3603 69.8295 24.3603 69.5891C24.2804 68.8677 23.8811 68.1463 23.4817 67.5852Z" fill="white" fill-opacity="0.2"/>
<path d="M19.0089 64.8599C19.0888 64.4591 19.0089 64.1385 19.0089 63.8179C18.929 62.5355 18.3699 61.4133 17.8108 60.6118C17.4913 60.211 17.2517 59.8904 16.9322 59.5698C16.6128 59.3294 16.3731 59.0889 16.1335 58.9286C15.8939 58.7683 15.7342 58.6881 15.5744 58.608C15.4147 58.5278 15.3348 58.5278 15.3348 58.5278C15.3348 58.5278 15.4147 58.608 15.4946 58.6881C15.6543 58.7683 15.7342 58.9286 15.9738 59.0889C16.3731 59.4897 16.8524 60.1309 17.2517 60.9324C17.6511 61.7339 18.0504 62.7759 18.0504 63.8981C18.0504 64.1385 18.0504 64.4591 17.9706 64.6996C17.9706 64.8599 17.8907 65.0202 17.8907 65.1003C17.8108 65.1805 17.8108 65.3408 17.7309 65.421C17.4913 65.9019 17.1719 66.2225 16.6926 66.3828C16.2134 66.5431 15.6543 66.5431 15.1751 66.3828C14.9355 66.3026 14.6959 66.2225 14.4562 66.0622L14.0569 65.8217L13.7374 65.5813C12.8588 64.94 12.2199 64.0584 11.7406 63.2568C11.501 62.8561 11.3413 62.4553 11.2614 62.1347C11.1815 61.8141 11.1815 61.4935 11.1017 61.253C11.1017 61.0126 11.0218 60.7721 11.0218 60.6118C11.0218 60.4515 11.0218 60.3713 11.0218 60.3713C11.0218 60.3713 11.0218 60.4515 10.9419 60.6118C10.9419 60.7721 10.8621 61.0126 10.8621 61.253C10.8621 61.5736 10.8621 61.8942 10.9419 62.295C11.0218 62.6958 11.1017 63.1767 11.2614 63.5774C11.5809 64.5393 12.2199 65.5813 13.1783 66.3828L13.5777 66.7034L13.977 66.9439C14.2965 67.1042 14.5361 67.2645 14.9355 67.4248C15.5744 67.6652 16.3731 67.7454 17.1719 67.5049C17.8907 67.2645 18.5297 66.6232 18.7693 65.9019C18.8491 65.7416 18.929 65.5813 18.929 65.3408C18.929 65.1805 19.0089 65.0202 19.0089 64.8599Z" fill="white" fill-opacity="0.2"/>
<path d="M43.929 29.5124C44.5679 27.749 46.3251 26.7872 50.3985 26.2262C54.4719 25.6651 59.0245 28.23 64.1363 27.3483C69.6474 26.3865 63.3376 24.9437 56.7882 22.9399C50.3186 20.9361 49.9193 23.1804 44.8874 22.5391C39.9354 21.8979 37.3796 23.0201 36.6607 25.9857C36.3412 27.4284 30.6704 25.1842 30.6704 27.9094C30.6704 29.3521 31.3892 30.9552 34.9834 32.5582C38.4179 34.1613 43.29 31.2758 43.929 29.5124Z" fill="white" fill-opacity="0.2"/>
<path d="M18.2905 56.0431C19.3288 55.8828 19.8879 54.4401 19.5684 52.837C19.249 51.234 18.2106 50.1118 17.1723 50.3523C16.134 50.5126 15.5749 51.9553 15.8944 53.5584C16.2139 55.1614 17.2522 56.2034 18.2905 56.0431Z" fill="white" fill-opacity="0.2"/>
<path d="M20.4466 59.2491C20.9259 59.1689 21.2454 58.4475 21.0856 57.646C20.9259 56.8445 20.3668 56.2834 19.8876 56.3636C19.4083 56.4437 19.0888 57.1651 19.2486 57.9666C19.4083 58.7681 19.9674 59.3292 20.4466 59.2491Z" fill="white" fill-opacity="0.2"/>
<path d="M24.2005 65.7415C23.8012 65.982 23.8811 66.7034 24.2804 67.2644C24.6798 67.8255 25.3187 68.066 25.6382 67.8255C26.0376 67.585 25.9577 66.8637 25.5583 66.3026C25.159 65.7415 24.52 65.5011 24.2005 65.7415Z" fill="white" fill-opacity="0.2"/>
<path d="M44.4085 65.3409C42.891 65.5813 41.7728 66.8638 42.0124 68.2264C42.252 69.5088 43.6897 70.3905 45.2072 70.0699C46.7248 69.8294 47.843 68.547 47.6033 67.1844C47.3637 65.9019 45.9261 65.1004 44.4085 65.3409Z" fill="white" fill-opacity="0.2"/>
<path d="M39.6161 65.0202C38.8174 65.1805 38.3382 65.8217 38.4181 66.4629C38.4979 67.1041 39.2168 67.5049 40.0155 67.4247C40.8142 67.2644 41.2934 66.6232 41.2136 65.982C41.0538 65.3408 40.335 64.94 39.6161 65.0202Z" fill="white" fill-opacity="0.2"/>
<path d="M43.1302 62.936C42.4912 63.0162 42.0919 63.5773 42.1717 64.1383C42.2516 64.6994 42.8906 65.02 43.4497 64.8597C44.0886 64.7795 44.488 64.2185 44.4081 63.6574C44.3283 63.0963 43.7692 62.7757 43.1302 62.936Z" fill="white" fill-opacity="0.2"/>
<path d="M50.8772 28.5507C49.3597 27.3484 47.2032 27.4285 46.085 28.8713C44.8869 30.314 45.1265 32.4781 46.6441 33.6804C48.1616 34.8827 50.3181 34.8025 51.4363 33.3598C52.6344 31.9171 52.3948 29.8331 50.8772 28.5507Z" fill="white" fill-opacity="0.2"/>
<path d="M53.5935 28.4706C53.0344 29.1118 53.1142 30.1538 53.8331 30.7148C54.5519 31.2759 55.5902 31.1958 56.1493 30.5545C56.7084 29.9133 56.6286 28.8713 55.9097 28.3103C55.1909 27.7492 54.1526 27.8293 53.5935 28.4706Z" fill="white" fill-opacity="0.2"/>
<path d="M66.6123 46.1044C65.8934 46.7457 65.7337 47.7877 66.2129 48.4289C66.772 49.0701 67.7304 49.0701 68.5292 48.4289C69.248 47.7877 69.4077 46.7457 68.9285 46.1044C68.3694 45.4632 67.3311 45.4632 66.6123 46.1044Z" fill="white" fill-opacity="0.2"/>
<path d="M51.1171 49.3906C51.9158 49.631 52.6346 49.2303 52.8742 48.589C53.034 47.9478 52.6346 47.2264 51.8359 47.0661C51.0372 46.8257 50.3184 47.2264 50.0787 47.8677C49.8391 48.5089 50.3184 49.1501 51.1171 49.3906Z" fill="white" fill-opacity="0.2"/>
<path d="M9.34478 37.2073C10.2234 37.5279 11.3416 36.6462 11.7409 35.2836C12.2201 33.921 11.8208 32.5584 10.9422 32.2378C10.0636 31.9172 8.94543 32.7989 8.54607 34.1615C8.06685 35.5241 8.4662 36.8867 9.34478 37.2073Z" fill="white" fill-opacity="0.2"/>
<path d="M12.14 27.3484C11.9004 27.9896 12.14 28.5507 12.5394 28.711C12.9387 28.8713 13.418 28.4706 13.6576 27.8293C13.8972 27.1881 13.6576 26.627 13.2582 26.4667C12.8589 26.3064 12.3796 26.7072 12.14 27.3484Z" fill="white" fill-opacity="0.2"/>
<path d="M11.6612 29.8331C11.9008 29.0316 11.7411 28.2301 11.182 28.0698C10.7028 27.9095 10.0638 28.3904 9.7443 29.1919C9.50469 29.9934 9.66443 30.795 10.2235 30.9553C10.7826 31.1156 11.4216 30.6347 11.6612 29.8331Z" fill="white" fill-opacity="0.2"/>
<path d="M36.5809 12.5204C38.8173 11.9594 40.3348 10.5166 40.0154 9.3945C39.6959 8.27236 37.6991 7.79145 35.4627 8.35252C33.2263 8.91358 31.7088 10.3563 32.0283 11.4785C32.3478 12.6006 34.4244 13.0815 36.5809 12.5204Z" fill="white" fill-opacity="0.2"/>
<path d="M31.3093 13.7225C30.271 14.2034 29.7119 15.0851 29.9515 15.6461C30.1911 16.2072 31.2295 16.2072 32.2678 15.7263C33.3061 15.2454 33.8652 14.3637 33.6256 13.8026C33.3061 13.2415 32.2678 13.1614 31.3093 13.7225Z" fill="white" fill-opacity="0.2"/>
<path d="M72.5227 23.5013C71.6442 24.3028 72.1234 26.3066 73.7208 27.9898C75.2383 29.673 77.2351 30.3944 78.1137 29.5929C78.9923 28.7913 78.5131 26.7875 76.9156 25.1043C75.3981 23.4211 73.4013 22.6997 72.5227 23.5013Z" fill="white" fill-opacity="0.2"/>
<path d="M45.6058 21.3373C47.922 21.2572 49.7591 20.0549 49.6792 18.6923C49.5993 17.3297 47.7623 16.2877 45.446 16.3679C43.1298 16.448 41.2928 17.6503 41.3726 19.0129C41.4525 20.3755 43.2895 21.4175 45.6058 21.3373Z" fill="white" fill-opacity="0.2"/>
<path d="M39.5362 22.0586C40.4947 22.0586 41.2934 21.4975 41.2934 20.9364C41.2934 20.3754 40.4947 19.8944 39.4564 19.9746C38.4979 19.9746 37.6992 20.5357 37.6992 21.0967C37.7791 21.6578 38.5778 22.1387 39.5362 22.0586Z" fill="white" fill-opacity="0.2"/>
<path d="M74.0405 21.8177C74.4398 21.417 74.1203 20.375 73.3216 19.5735C72.5229 18.772 71.4846 18.4513 71.0853 18.9323C70.6859 19.333 71.0054 20.375 71.8041 21.1765C72.6028 21.9781 73.6411 22.2987 74.0405 21.8177Z" fill="white" fill-opacity="0.2"/>
<path d="M2.71561 31.276C3.03509 30.4745 3.2747 29.6729 3.67406 28.8714C4.31302 27.1882 5.1916 25.505 6.15005 23.8218C7.1085 22.1386 8.22669 20.4554 9.42475 18.8523C10.6228 17.2493 11.9806 15.6462 13.4982 14.2035C14.9358 12.7607 16.5333 11.3982 18.1307 10.1157C19.7281 8.91342 21.4054 7.79129 23.0827 6.82946C24.7599 5.86763 26.4372 5.0661 28.1145 4.34473C28.9132 3.94397 29.7918 3.70351 30.5106 3.3829C31.3094 3.14244 32.1081 2.82183 32.8269 2.66153C34.3444 2.26077 35.7022 1.86 36.9802 1.61954C37.6191 1.53939 38.1782 1.37909 38.7373 1.29893C39.2964 1.21878 39.7757 1.13863 40.2549 1.05848C41.1335 0.898172 41.9322 0.898172 42.4114 0.81802C42.8906 0.737867 43.2101 0.737867 43.2101 0.737867C43.2101 0.737867 42.9705 0.737867 42.4114 0.737867C41.9322 0.737867 41.2133 0.657715 40.2549 0.657715C39.7757 0.657715 39.2964 0.657715 38.7373 0.657715C38.1782 0.737867 37.5393 0.737867 36.9003 0.81802C35.6224 0.978325 34.1048 1.13863 32.5873 1.45924C31.7886 1.61955 30.9899 1.86 30.1113 2.02031C29.3126 2.26077 28.434 2.50122 27.5554 2.82183C25.7983 3.3829 24.0411 4.18443 22.2041 5.14626C20.4469 6.10809 18.6099 7.15007 16.8527 8.43251C15.1755 9.6348 13.4982 11.0775 11.9806 12.6004C10.4631 14.1233 9.0254 15.8065 7.74747 17.5699C6.46953 19.3333 5.43121 21.0966 4.47276 22.9401C3.59419 24.7836 2.79548 26.547 2.15651 28.3103C1.83703 29.192 1.59742 30.0737 1.3578 30.8752C1.11819 31.7569 0.95845 32.5584 0.798708 33.3599C0.479225 34.963 0.239612 36.4057 0.159742 37.6882C0.0798708 38.2492 0.0798708 38.8905 0 39.4515C0 40.0126 0 40.5737 0 40.9744C0 41.9363 0.0798708 42.6576 0.0798708 43.1385C0.0798708 43.6195 0.0798708 43.9401 0.0798708 43.9401C0.0798708 43.9401 0.0798708 43.6996 0.159742 43.2187C0.239612 42.7378 0.239612 42.0164 0.399354 41.0546C0.479225 40.5737 0.559096 40.0928 0.638966 39.5317C0.718837 38.9706 0.878579 38.4096 0.95845 37.7683C1.19806 36.4859 1.51755 35.1233 1.99677 33.6004C2.23638 32.7989 2.47599 32.0775 2.71561 31.276Z" fill="white" fill-opacity="0.2"/>
</svg>
