<svg width="165" height="164" viewBox="0 0 165 164" fill="none" xmlns="http://www.w3.org/2000/svg">
<path d="M83.7089 2.60742C39.4007 2.60742 3.31909 38.8163 3.31909 83.2808C3.31909 127.745 39.4007 163.954 83.7089 163.954C128.017 163.954 164.099 127.745 164.099 83.2808C164.243 38.8163 128.161 2.60742 83.7089 2.60742ZM160.491 89.5087C159.625 100.227 156.449 110.22 151.831 118.766C147.357 127.311 141.295 134.553 135.089 140.201C128.739 145.85 122.1 149.905 115.749 152.657C109.543 155.409 103.77 157.002 99.0075 157.871C94.2447 158.74 90.3479 158.885 87.7501 159.03C85.1522 159.03 83.7089 159.03 83.7089 159.03C83.7089 159.03 85.1522 158.885 87.7501 158.885C90.3479 158.595 94.1004 158.306 98.8632 157.147C103.626 156.133 109.255 154.25 115.172 151.354C121.234 148.457 127.584 144.257 133.646 138.608C139.563 132.959 145.192 125.862 149.377 117.462C153.563 109.062 156.305 99.3576 157.171 89.2191C157.893 78.9357 156.594 68.3628 152.986 58.3691C150.388 50.9825 146.347 44.0304 141.584 37.8025C143.027 42.7269 144.615 49.5341 145.192 57.3553C145.048 57.2104 144.903 57.0656 144.759 56.9207C143.893 56.1966 142.883 55.9069 142.305 55.9069C142.017 55.9069 141.728 56.0517 141.584 56.0517C141.439 56.0517 141.295 56.1966 141.295 56.1966C141.295 56.1966 141.439 56.1966 141.584 56.1966C141.728 56.1966 142.017 56.3414 142.161 56.4862C142.594 56.7759 143.171 57.2104 143.749 57.9346C144.182 58.6588 144.615 59.6726 144.759 60.6865C144.759 60.8313 144.759 60.9761 144.759 61.121V61.5555C144.759 61.8451 144.759 62.1348 144.759 62.2797C144.759 62.859 144.615 63.2935 144.47 63.8729C144.326 64.3074 144.037 64.7419 143.749 65.0315C143.46 65.3212 143.316 65.466 142.738 65.6109C142.594 65.6109 142.017 65.6109 141.728 65.466C141.295 65.3212 141.007 65.0315 140.574 64.7419C139.852 64.1625 139.419 63.4383 139.13 63.0038C138.842 62.5693 138.697 62.1348 138.697 62.1348C138.697 62.1348 138.697 62.2797 138.697 62.4245C138.697 62.5693 138.697 62.859 138.697 63.1487C138.697 63.728 138.842 64.7419 139.419 65.6109C139.708 66.0454 140.141 66.6247 140.718 67.0592C141.295 67.4937 142.017 67.9282 143.027 67.9282C143.749 67.9282 144.903 67.6386 145.481 67.0592L145.625 66.9144C145.481 71.4043 144.903 76.1839 143.893 81.1083C144.903 81.1083 145.625 80.6738 146.202 80.2393C146.78 79.8048 147.213 79.3702 147.501 78.9357C147.79 78.5012 148.078 78.2116 148.223 78.0667C148.367 77.9219 148.511 77.7771 148.511 77.7771C148.511 77.7771 148.511 78.0667 148.511 78.3564C148.511 78.7909 148.367 79.3702 148.078 79.9496C147.79 80.5289 147.213 81.2531 146.491 81.8325C145.769 82.4118 144.903 82.7015 143.893 82.7015C142.883 82.7015 142.017 82.4118 141.295 81.8325C140.574 81.2531 140.141 80.5289 139.852 79.9496C139.563 79.3702 139.419 78.6461 139.419 78.3564C139.419 77.9219 139.419 77.7771 139.419 77.7771C139.419 77.7771 138.842 78.0667 138.697 79.3703C138.697 80.0944 138.697 80.9634 139.419 82.1221C139.996 83.136 141.295 84.2947 143.171 84.5843C142.883 85.4533 142.738 86.3224 142.45 87.1914C141.295 87.1914 140.285 87.6259 139.563 88.4949C138.264 90.0881 138.553 92.5503 140.141 93.8538C138.986 96.7505 137.543 99.7921 135.955 102.689C137.398 102.834 138.553 102.399 139.419 101.965C140.574 101.385 141.295 100.661 141.872 100.082C142.45 99.5024 142.738 99.0679 143.027 98.923C143.316 98.6334 143.46 98.6334 143.46 98.6334C143.46 98.6334 143.316 98.923 143.171 99.6472C142.883 100.227 142.45 101.096 141.728 101.965C141.006 102.834 139.996 103.558 138.697 104.137C138.12 104.427 137.398 104.572 136.677 104.572C135.955 104.572 135.233 104.572 134.512 104.282C133.79 104.137 133.069 103.703 132.491 103.413C131.914 102.978 131.337 102.544 130.904 101.965C130.038 100.806 129.605 99.6472 129.46 98.4885C129.316 97.3299 129.316 96.4608 129.46 95.8815C129.605 95.3022 129.605 94.8677 129.605 94.8677C129.605 94.8677 129.46 94.8677 129.316 95.1573C129.027 95.447 128.739 95.8815 128.45 96.8953C128.306 97.7644 128.017 99.2127 128.739 100.951C129.027 101.82 129.605 102.834 130.471 103.703C131.337 104.572 132.491 105.441 134.079 105.875C133.502 106.889 132.78 107.903 132.203 108.917C131.77 108.917 131.337 108.917 130.904 108.917C128.45 109.351 126.863 111.379 127.151 113.407C127.151 113.551 127.295 113.841 127.295 113.986C125.564 113.551 123.976 111.958 123.543 109.496C122.821 105.151 119.069 96.1712 115.605 94.2883C111.853 92.2606 108.822 97.185 110.842 98.7782C115.461 102.254 113.151 108.917 113.584 114.71C113.729 117.027 114.883 118.91 115.894 120.648C113.584 121.373 112.141 123.545 112.574 125.573C112.719 126.731 113.44 127.6 114.45 128.18C113.007 129.339 111.708 130.352 110.265 131.366C110.265 131.221 110.265 131.077 110.265 130.932C110.121 129.049 109.543 127.456 108.822 126.297C108.1 125.138 107.234 124.269 106.512 123.835C104.925 122.676 103.77 122.531 103.193 122.531C102.471 122.531 102.327 122.531 102.327 122.531C102.327 122.531 102.471 122.531 102.76 122.676C103.049 122.821 103.482 122.966 104.059 123.255C105.069 123.835 106.657 125.138 107.667 127.021C108.677 128.904 108.966 131.656 107.956 134.263C107.09 136.87 104.925 139.187 102.327 140.491C99.7291 141.794 96.554 141.939 94.1004 140.925C91.5025 139.911 89.6263 137.884 88.9047 135.856C88.0387 133.828 88.183 131.946 88.4717 130.642C88.616 130.063 88.7603 129.483 88.9047 129.194C89.049 128.904 89.049 128.759 89.049 128.759C89.049 128.759 88.9047 128.904 88.4717 129.483C88.183 130.063 87.4614 131.077 87.3171 132.959C87.1727 133.828 87.1727 134.987 87.6057 136.435C87.8944 137.739 88.7603 139.187 90.0593 140.636C90.3479 140.925 90.6366 141.215 91.0696 141.505C89.482 142.084 87.8944 142.519 86.3068 142.953C85.8738 141.794 85.2965 141.07 84.7192 140.491C83.9976 139.767 83.2759 139.332 82.6986 139.042C81.3997 138.463 80.6781 138.463 80.1008 138.463C79.6678 138.463 79.3791 138.608 79.3791 138.608C79.3791 138.608 79.5234 138.608 79.6678 138.753C79.9564 138.898 80.2451 139.042 80.6781 139.187C81.544 139.622 82.5543 140.346 83.5646 141.505C83.9976 142.084 84.4305 142.808 84.7192 143.677C85.0079 144.546 84.8635 145.56 84.5749 146.429C83.8532 148.312 81.8327 149.471 79.8121 149.905C75.771 150.774 71.2968 148.891 69.5649 146.284C68.699 144.981 68.4103 143.677 68.5546 142.663C68.5546 142.229 68.699 141.794 68.8433 141.65C68.9876 141.36 68.9876 141.36 68.9876 141.36C68.9876 141.36 68.8433 141.36 68.4103 141.794C68.1217 142.229 67.5443 142.953 67.5443 144.401C67.5443 144.691 67.5444 145.126 67.6887 145.56C66.6784 145.56 65.6681 145.56 64.8022 145.56C64.9465 145.126 64.9465 144.546 64.8022 144.112C64.3692 141.794 61.7713 140.201 59.0291 140.781C58.8848 140.781 58.5961 140.925 58.4518 140.925C58.4518 139.911 58.7404 138.898 59.3177 138.173C61.9156 134.408 69.4206 131.656 69.7092 125.138C69.8536 120.359 49.5035 121.952 49.5035 129.628C49.6479 137.16 46.184 136.58 43.5862 140.781C43.1532 141.505 42.7202 142.084 42.2872 142.519C40.411 141.939 38.6791 141.505 37.2358 140.925C37.3801 140.781 37.3801 140.636 37.5245 140.491C38.1018 139.477 37.6688 138.029 36.3698 137.304C35.2152 136.58 33.6276 136.87 33.0503 137.884C32.906 138.173 32.906 138.318 32.7617 138.608C18.1847 124.849 9.09215 105.296 9.09215 83.5705C9.09215 83.5705 9.09215 82.1221 9.09215 79.5151C9.23647 76.9081 9.3808 72.9975 10.2468 68.2179C11.1127 63.4383 12.7003 57.6449 15.4425 51.417C18.1847 45.1891 22.2259 38.3818 27.8546 32.1539C33.4833 25.7811 40.5553 19.8428 49.2149 15.3529C57.7302 10.7182 67.6887 7.53183 78.3688 6.66282C88.9047 5.7938 100.162 6.95249 110.698 10.863C121.234 14.6288 131.048 20.8567 139.13 28.9675C147.068 37.0783 153.419 46.9271 157.171 57.5001C160.202 67.6386 161.357 78.9357 160.491 89.5087Z" fill="white" fill-opacity="0.2"/>
<path d="M104.059 104.281C103.338 103.123 102.472 102.109 101.606 101.385C100.74 100.66 99.7295 100.226 98.8635 99.9363C97.9976 99.6466 97.2759 99.5018 96.5543 99.3569C95.8327 99.3569 95.3997 99.3569 95.111 99.3569C94.8224 99.3569 94.5337 99.3569 94.5337 99.3569C94.5337 99.3569 94.6781 99.3569 95.111 99.5018C95.3997 99.5018 95.977 99.6466 96.5543 99.7914C97.1316 99.9363 97.8532 100.226 98.5749 100.66C99.2965 101.095 100.018 101.674 100.74 102.398C101.461 103.123 102.039 103.992 102.472 105.006C102.905 106.019 103.193 107.178 103.193 108.337C103.193 108.626 103.193 108.916 103.193 109.206C103.193 109.495 103.193 109.93 103.049 110.22C102.905 110.799 102.76 111.378 102.616 111.958C102.183 113.116 101.461 114.13 100.595 114.999C99.7295 115.868 98.7192 116.592 97.5646 117.027C96.41 117.461 95.2554 117.606 93.9564 117.606C92.8018 117.606 91.6472 117.317 90.6369 116.882C89.6266 116.448 88.7607 115.868 88.039 115.144C87.3174 114.42 86.7401 113.696 86.3071 112.971C85.8741 112.247 85.5855 111.523 85.4412 110.944C85.2968 110.364 85.1525 109.93 85.1525 109.495C85.1525 109.206 85.0082 108.916 85.0082 108.916C85.0082 108.916 85.0082 109.061 85.0082 109.495C85.0082 109.785 85.0082 110.364 85.0082 110.944C85.1525 111.523 85.1525 112.392 85.5855 113.261C85.8741 114.13 86.3071 114.999 87.0287 116.013C88.472 117.896 90.7812 119.489 93.9564 119.779C95.3997 119.924 96.9873 119.779 98.4305 119.199C99.8738 118.62 101.317 117.751 102.472 116.737C103.626 115.579 104.492 114.13 104.925 112.682C105.214 111.958 105.358 111.233 105.503 110.364C105.503 109.93 105.503 109.64 105.503 109.351C105.503 108.916 105.503 108.626 105.503 108.192C105.214 106.744 104.637 105.44 104.059 104.281Z" fill="white" fill-opacity="0.2"/>
<path d="M61.483 99.502C61.1943 97.3295 59.8954 95.7363 58.5965 94.7225C57.8748 94.288 57.2975 93.9983 56.7202 93.7086C56.1429 93.5638 55.5656 93.4189 55.1326 93.4189C54.6996 93.4189 54.2667 93.4189 54.1223 93.4189C53.8337 93.4189 53.8337 93.4189 53.8337 93.4189C53.8337 93.4189 53.978 93.4189 54.1223 93.5638C54.411 93.5638 54.6996 93.7086 54.9883 93.8535C55.7099 94.1431 56.7202 94.7225 57.5862 95.7363C58.0192 96.1708 58.4521 96.7502 58.7408 97.4743C59.0294 98.1985 59.1738 98.9227 59.1738 99.6469C59.1738 99.7917 59.1738 100.081 59.1738 100.226C59.1738 100.371 59.1738 100.661 59.1738 100.95C59.1738 101.24 59.0294 101.675 58.8851 101.964C58.5965 102.688 58.1635 103.413 57.7305 103.847C57.1532 104.426 56.5759 104.861 55.8543 105.151C55.1326 105.44 54.411 105.585 53.545 105.585C52.8234 105.585 52.1018 105.44 51.3801 105.151C50.6585 104.861 50.0812 104.571 49.6482 104.137C49.2152 103.702 48.7823 103.268 48.4936 102.833C48.2049 102.399 47.9163 101.964 47.772 101.53C47.6276 101.095 47.4833 100.806 47.4833 100.661C47.4833 100.371 47.339 100.371 47.339 100.371C47.339 100.371 47.339 100.516 47.339 100.661C47.339 100.95 47.339 101.24 47.339 101.675C47.339 102.109 47.4833 102.688 47.6276 103.268C47.772 103.847 48.205 104.571 48.6379 105.151C49.0709 105.73 49.7925 106.454 50.5142 106.889C51.3801 107.323 52.2461 107.758 53.4007 107.903C54.411 108.047 55.5656 107.903 56.5759 107.613C57.5862 107.323 58.5965 106.599 59.4624 105.73C60.3284 104.861 60.9057 103.847 61.1943 102.833C61.3387 102.254 61.483 101.675 61.483 101.095C61.483 100.806 61.483 100.661 61.483 100.371C61.6273 99.9366 61.483 99.7917 61.483 99.502Z" fill="white" fill-opacity="0.2"/>
<path d="M71.4415 81.832C72.1632 81.9769 73.0291 81.9769 73.7508 81.6872C74.4724 81.3975 75.3383 80.963 75.9156 80.3837C76.493 79.8043 76.9259 79.0801 77.2146 78.2111C77.3589 77.7766 77.3589 77.487 77.3589 76.9076C77.3589 76.6179 77.3589 76.6179 77.3589 76.4731C77.3589 76.1834 77.3589 76.0386 77.3589 75.8938C77.0703 74.3006 76.2043 73.1419 75.194 72.5626C74.1837 71.9832 73.3178 71.8384 72.7405 71.8384C72.1632 71.8384 71.8745 71.9832 71.8745 71.9832C71.8745 71.9832 72.0188 71.9832 72.1632 72.1281C72.3075 72.1281 72.5961 72.2729 72.7405 72.4177C73.1734 72.7074 73.8951 73.1419 74.3281 73.7212C74.9054 74.4454 75.194 75.3144 75.194 76.1834C75.194 76.3283 75.194 76.4731 75.194 76.4731C75.194 76.6179 75.194 76.7628 75.194 76.9076C75.194 77.0525 75.0497 77.3421 75.0497 77.487C74.9054 77.9215 74.6167 78.356 74.3281 78.6456C74.0394 78.9353 73.6064 79.225 73.1734 79.3698C72.7405 79.5147 72.3075 79.6595 71.8745 79.6595C71.4415 79.6595 71.0086 79.6595 70.5756 79.5147C70.1426 79.3698 69.7096 79.225 69.421 78.9353C68.6993 78.5008 68.2663 77.7766 67.9777 77.3421C67.8334 77.0525 67.689 76.9076 67.689 76.7628C67.689 76.6179 67.5447 76.4731 67.5447 76.4731C67.5447 76.4731 67.5447 76.6179 67.5447 76.7628C67.5447 76.9076 67.4004 77.1973 67.4004 77.487C67.4004 78.0663 67.5447 79.0801 68.2663 79.9492C68.555 80.3837 68.988 80.8182 69.5653 81.2527C69.8539 81.5424 70.5756 81.832 71.4415 81.832Z" fill="white" fill-opacity="0.2"/>
<path d="M31.0304 55.9066C31.752 56.1963 32.7623 56.1963 33.6283 56.0514C35.3602 55.6169 36.9478 54.6031 38.1024 53.1547C38.6797 52.4305 39.257 51.7064 39.5457 50.8373C39.9787 50.1132 40.2673 49.0993 40.2673 48.3751C40.556 46.6371 40.123 44.8991 39.257 43.8852C38.824 43.3059 38.2467 43.0162 37.6694 42.8714C37.0921 42.7266 36.6591 42.7266 36.2262 42.7266C35.5045 42.7266 35.0715 43.0162 35.0715 43.0162C35.0715 43.0162 35.2159 43.0162 35.3602 43.0162C35.5045 43.0162 35.7932 43.0162 36.2262 43.0162C36.5148 43.0162 37.0921 43.1611 37.3808 43.4507C37.8138 43.7404 38.2467 44.0301 38.5354 44.4646C39.257 45.4784 39.4013 46.9268 39.1127 48.3751C38.9684 49.0993 38.6797 49.8235 38.3911 50.5477C38.1024 51.2719 37.5251 51.996 37.0921 52.5754C35.9375 53.5892 34.6386 54.6031 33.1953 54.8927C32.4737 55.0376 31.752 55.1824 31.1747 55.0376C30.5974 54.8927 30.0201 54.6031 29.5871 54.1686C28.7212 53.2996 28.5769 52.2857 28.4325 51.5615C28.4325 51.127 28.4325 50.8373 28.4325 50.6925C28.4325 50.5477 28.4325 50.4028 28.4325 50.4028C28.4325 50.4028 28.4325 50.5477 28.4325 50.6925C28.4325 50.8373 28.2882 51.127 28.2882 51.5615C28.2882 52.2857 28.2882 53.5892 29.1542 54.7479C29.5871 55.1824 30.1645 55.7618 31.0304 55.9066Z" fill="white" fill-opacity="0.2"/>
<path d="M31.0301 32.4434C31.0301 32.1538 31.1744 32.1538 31.1744 32.1538C31.1744 32.1538 31.0301 32.2986 31.0301 32.4434C30.7414 32.5883 30.5971 32.8779 30.4528 33.3124C30.3084 33.747 30.0198 34.3263 30.0198 34.9056C29.8755 35.6298 29.8755 36.354 30.3084 37.223C30.5971 38.092 31.3187 38.8162 32.329 39.3955C32.762 39.6852 33.3393 39.83 33.9166 39.9749C34.2053 40.1197 34.3496 40.1197 34.6382 40.1197H34.7826C34.9269 40.1197 34.9269 40.1197 35.0712 40.1197H35.5042C37.6691 40.1197 39.834 39.2507 41.5659 37.9472C42.4319 37.3678 43.2978 36.6437 44.0194 35.7747C44.3081 35.3401 44.7411 34.9056 45.0297 34.4711C45.3184 34.0366 45.607 33.4573 45.7514 33.0228C46.1843 32.1538 46.473 31.1399 46.6173 30.1261C46.7616 29.1122 46.473 28.0984 46.04 27.3742C45.607 26.5052 45.0297 26.0707 44.4524 25.6362C43.8751 25.3465 43.2978 25.2017 42.8648 25.2017C41.8546 25.2017 41.4216 25.3465 41.4216 25.3465C41.4216 25.3465 41.5659 25.3465 41.7102 25.4913C41.9989 25.4913 42.2875 25.6362 42.7205 25.781C43.1535 25.9258 43.5865 26.2155 43.8751 26.5052C44.3081 26.9397 44.5968 27.3742 44.7411 27.9535C44.8854 28.5329 44.8854 29.2571 44.7411 29.9812C44.5968 30.7054 44.3081 31.4296 43.8751 32.1538C43.5865 32.5883 43.4421 32.8779 43.1535 33.1676C42.8648 33.4573 42.5762 33.8918 42.2875 34.1815C41.7102 34.7608 40.9886 35.485 40.267 35.9195C38.8237 36.9333 37.0918 37.6575 35.5042 37.9472H35.2155H35.0712H34.9269C34.6382 37.9472 34.4939 37.9472 34.3496 37.9472C34.0609 37.9472 33.628 37.9472 33.3393 37.8023C32.762 37.6575 32.1847 37.223 31.896 36.7885C31.1744 35.7747 31.1744 34.4711 31.3187 33.747C30.8857 33.0228 31.0301 32.7331 31.0301 32.4434Z" fill="white" fill-opacity="0.2"/>
<path d="M21.7931 87.7701C22.3704 86.7563 22.6591 85.5976 22.9477 84.2941C23.092 83.1354 23.092 81.8319 22.9477 80.6732C22.8034 80.0938 22.6591 79.5145 22.5147 78.9352C22.3704 78.6455 22.2261 78.3558 22.2261 78.0661C22.0818 77.7765 21.9374 77.6316 21.7931 77.342C21.2158 76.1833 20.3498 75.4591 19.3395 74.8798C18.3293 74.3004 17.319 74.0107 16.453 74.0107C15.4427 74.0107 14.7211 74.3004 13.9995 74.5901C13.2778 74.8798 12.8449 75.3143 12.5562 75.6039C11.8346 76.4729 11.5459 76.9075 11.5459 76.9075C11.5459 76.9075 11.6902 76.7626 11.8346 76.7626C11.9789 76.6178 12.4119 76.4729 12.8449 76.1833C13.2778 76.0384 13.7108 75.7488 14.4325 75.6039C15.0098 75.4591 15.7314 75.4591 16.453 75.6039C17.1747 75.7488 17.752 76.0384 18.4736 76.4729C19.0509 76.9075 19.6282 77.6316 19.9169 78.3558C20.0612 78.6455 20.2055 78.7903 20.2055 79.08C20.2055 79.2248 20.3498 79.5145 20.3498 79.6593C20.4942 80.0938 20.4942 80.5283 20.6385 80.9629C20.7828 81.8319 20.7828 82.8457 20.4942 83.8596C20.3498 84.8734 20.0612 85.7424 19.6282 86.6114C19.1952 87.4805 18.7622 88.3495 18.1849 88.9288C17.4633 89.653 17.0303 90.0875 16.3087 90.522C15.5871 90.9565 14.8654 91.1013 14.1438 91.1013C13.4222 91.1013 12.8449 90.9565 12.2676 90.8117C11.6902 90.522 11.2573 90.2323 10.8243 89.9427C10.3913 89.653 10.1027 89.5082 9.95833 89.2185C9.814 89.0737 9.66968 88.9288 9.66968 88.9288C9.66968 88.9288 9.66968 89.0736 9.814 89.3633C9.95833 89.653 10.1027 89.9427 10.3913 90.3772C10.68 90.8117 11.1129 91.2462 11.6902 91.6807C12.2676 92.1152 12.9892 92.5497 13.9995 92.6945C14.8654 92.8394 16.02 92.8394 17.0303 92.4049C18.0406 92.1152 19.0509 91.391 19.7725 90.6668C20.6385 89.7978 21.3601 88.784 21.7931 87.7701Z" fill="white" fill-opacity="0.2"/>
<path d="M96.1214 26.0703C97.5647 26.0703 99.1522 26.0703 100.596 25.7807C102.039 25.491 103.482 25.0565 104.925 24.3323C106.08 23.753 107.379 22.5943 108.1 21.2908C108.389 20.5666 108.678 19.8424 108.678 19.1182C108.678 18.3941 108.533 17.8147 108.245 17.2354C107.812 16.0767 107.09 15.2077 106.369 14.6283C105.647 14.049 105.07 13.6145 104.492 13.3248C103.915 13.0351 103.482 12.8903 103.193 12.7455C102.905 12.6006 102.76 12.6006 102.76 12.6006C102.76 12.6006 102.905 12.7455 103.193 12.8903C103.482 13.0351 103.915 13.4697 104.348 13.7593C104.781 14.1938 105.358 14.7732 105.791 15.3525C106.224 16.0767 106.802 16.8009 106.946 17.6699C107.09 18.5389 107.09 19.5527 106.513 20.2769C105.936 21.1459 105.07 21.7253 103.915 22.3046C102.905 22.7391 101.606 23.0288 100.307 23.3185C99.0079 23.4633 97.709 23.6081 96.2657 23.4633C94.9668 23.4633 93.5235 23.1736 92.2246 22.884C90.9256 22.5943 89.6267 22.1598 88.4721 21.7253C88.1834 21.5804 87.8948 21.4356 87.6061 21.2908C87.3175 21.1459 87.0288 21.0011 86.7402 20.8563C86.1629 20.5666 85.7299 20.2769 85.2969 19.9873C84.431 19.2631 83.7093 18.5389 83.132 17.6699C82.699 16.8009 82.4104 15.9319 82.5547 15.2077C82.699 14.4835 82.9877 13.7593 83.2763 13.3248C83.565 12.8903 83.998 12.4558 84.1423 12.1661C84.431 11.8765 84.5753 11.8765 84.5753 11.8765C84.5753 11.8765 84.431 12.0213 84.1423 12.1661C83.8536 12.311 83.4207 12.6006 82.9877 13.0351C82.5547 13.4697 81.9774 14.1938 81.6887 15.0628C81.4001 15.9319 81.4001 17.2354 81.9774 18.3941C82.4104 19.5527 83.2763 20.5666 84.1423 21.4356C84.5753 21.8701 85.1526 22.3046 85.7299 22.7391C86.0185 22.884 86.3072 23.0288 86.5958 23.3185C86.8845 23.4633 87.1732 23.6081 87.6061 23.8978C88.9051 24.4772 90.204 25.0565 91.6473 25.491C93.2349 25.7807 94.6781 26.0703 96.1214 26.0703Z" fill="white" fill-opacity="0.2"/>
<path d="M120.368 63.8725C120.368 63.438 120.513 63.0035 120.513 62.569C120.513 62.1345 120.513 61.8448 120.513 61.4103C120.513 60.9758 120.368 60.6862 120.368 60.2517C119.791 57.2101 118.059 54.8927 116.183 53.5892C115.317 52.865 114.307 52.4305 113.441 52.1409C112.575 51.8512 111.853 51.7064 111.131 51.5615C110.41 51.5615 109.977 51.5615 109.688 51.5615C109.399 51.5615 109.111 51.5615 109.111 51.5615C109.111 51.5615 109.255 51.5615 109.688 51.7064C109.977 51.7064 110.554 51.996 111.131 52.1409C111.709 52.4305 112.43 52.7202 113.152 53.1547C113.874 53.5892 114.595 54.1686 115.317 54.8927C116.76 56.3411 117.915 58.3688 118.203 60.831C118.203 61.1207 118.203 61.4103 118.203 61.7C118.203 61.9897 118.203 62.2794 118.203 62.7139C118.059 63.2932 118.059 63.8725 117.915 64.4519C117.626 65.6106 116.904 66.6244 116.039 67.4934C115.173 68.3624 114.162 68.9418 113.008 69.3763C112.43 69.5211 111.853 69.666 111.276 69.666H110.41C110.121 69.666 109.688 69.666 109.399 69.666C108.245 69.5211 107.09 69.2315 106.08 68.6521C105.07 68.2176 104.204 67.4934 103.482 66.7693C102.76 66.0451 102.183 65.3209 101.75 64.5967C101.317 63.8725 101.029 63.1484 100.74 62.7139C100.596 62.1345 100.307 61.7 100.307 61.2655C100.163 60.9758 100.163 60.831 100.163 60.831C100.163 60.831 100.163 60.9758 100.163 61.4103C100.163 61.7 100.163 62.2794 100.163 62.8587C100.307 63.438 100.451 64.307 100.74 65.1761C101.029 66.0451 101.606 66.9141 102.327 67.7831C103.049 68.6521 103.915 69.5211 105.07 70.2453C106.224 70.9695 107.523 71.5488 109.111 71.8385C109.399 71.8385 109.832 71.9833 110.121 71.9833C110.554 71.9833 110.843 71.9833 111.276 71.9833C111.709 71.9833 111.997 71.9833 112.43 71.8385C112.863 71.6937 113.152 71.6937 113.585 71.5488C115.173 71.1143 116.616 70.2453 117.77 69.0866C118.925 67.9279 119.791 66.4796 120.224 64.8864C120.224 64.7416 120.224 64.307 120.368 63.8725Z" fill="white" fill-opacity="0.2"/>
<path d="M39.978 77.9215C40.844 77.7767 41.8543 77.6318 42.5759 77.0525C43.4418 76.618 44.1635 76.0386 44.7408 75.3144C45.3181 74.5903 45.8954 73.7213 46.184 72.8522C46.4727 71.9832 46.617 70.9694 46.4727 70.1004C46.3284 69.2314 46.0397 68.3623 45.6067 67.6382C45.1738 66.914 44.5965 66.4795 43.8748 66.045C42.5759 65.3208 41.4213 65.3208 40.6996 65.3208C40.2667 65.3208 39.978 65.4656 39.8337 65.4656C39.6894 65.4656 39.545 65.6105 39.545 65.6105C39.545 65.6105 39.6894 65.6105 39.8337 65.6105C39.978 65.6105 40.2667 65.6105 40.6996 65.7553C41.4213 65.9001 42.4316 66.1898 43.2975 66.914C44.1635 67.6382 44.8851 68.7968 44.8851 70.2452C44.8851 70.9694 44.7408 71.6936 44.5965 72.2729C44.3078 72.9971 44.0191 73.5764 43.4418 74.1558C42.4316 75.3144 41.1326 76.0386 39.6894 76.3283C39.2564 76.4731 38.9677 76.4731 38.6791 76.4731C38.3904 76.4731 37.9574 76.4731 37.6688 76.3283C37.0915 76.1835 36.5142 75.8938 35.9369 75.6041C34.9266 75.0248 34.3493 74.0109 34.0606 73.4316C33.772 72.7074 33.772 72.2729 33.772 72.2729C33.772 72.2729 33.772 72.4177 33.772 72.5626C33.772 72.7074 33.772 73.1419 33.772 73.4316C33.9163 74.1558 34.205 75.3144 35.3596 76.3283C35.9369 76.7628 36.5142 77.1973 37.3801 77.487C37.8131 77.6318 38.2461 77.7767 38.6791 77.7767C39.112 77.9215 39.6894 77.9215 39.978 77.9215Z" fill="white" fill-opacity="0.2"/>
<path d="M110.698 24.3323C110.843 24.1875 110.843 24.1875 110.843 24.1875C110.843 24.1875 110.843 24.1875 110.698 24.3323C110.41 24.3323 110.121 24.3323 109.832 24.622C109.544 24.9117 109.255 25.2013 108.966 25.7807C108.822 26.36 108.678 26.9394 108.822 27.6636C108.966 28.3877 109.255 28.9671 109.688 29.6913C109.832 29.9809 110.121 30.2706 110.41 30.5603C110.698 30.8499 110.843 30.9948 111.276 31.4293C112.43 32.4431 113.874 33.3121 115.605 33.7466C116.471 33.8915 117.337 34.0363 118.203 34.0363C118.636 34.0363 119.069 34.0363 119.502 33.8915C119.791 33.8915 119.935 33.7466 120.224 33.7466C120.513 33.6018 120.657 33.6018 120.801 33.457C121.667 33.0225 122.389 32.2983 122.677 31.4293C122.966 30.5603 122.822 29.6913 122.533 29.1119C121.956 27.8084 121.234 27.229 120.657 26.7945C120.368 26.6497 120.08 26.5049 119.935 26.36C119.791 26.2152 119.647 26.2152 119.647 26.2152C119.647 26.2152 119.647 26.36 119.791 26.5049C119.935 26.6497 120.08 26.9394 120.224 27.229C120.513 27.8084 120.946 28.6774 121.09 29.5464C121.09 29.9809 121.09 30.4154 120.801 30.8499C120.657 31.1396 120.224 31.4293 119.791 31.5741C119.647 31.7189 119.502 31.7189 119.358 31.7189C119.214 31.7189 119.069 31.7189 118.925 31.7189C118.636 31.7189 118.348 31.7189 118.059 31.7189C117.482 31.7189 116.76 31.5741 116.183 31.4293C115.605 31.2844 114.884 30.9948 114.307 30.7051C113.729 30.4154 113.152 30.1258 112.575 29.6913C112.43 29.5464 111.997 29.2567 111.853 29.1119C111.709 28.9671 111.42 28.6774 111.276 28.5326C110.843 28.0981 110.554 27.6636 110.41 27.229C109.977 26.36 109.977 25.6359 110.265 25.0565C110.41 24.7668 110.698 24.4772 110.698 24.3323Z" fill="white" fill-opacity="0.2"/>
<path d="M42.4316 120.938C41.7099 119.924 40.844 119.345 40.2667 118.911C39.978 118.766 39.6894 118.621 39.545 118.621C39.4007 118.621 39.2564 118.476 39.2564 118.476C39.2564 118.476 39.545 118.766 39.978 119.2C40.411 119.635 40.9883 120.504 41.4213 121.373C41.8543 122.387 42.2872 123.545 42.2872 124.849C42.2872 125.139 42.2872 125.573 42.1429 125.718C42.1429 125.863 41.9986 126.152 41.9986 126.297C41.9986 126.442 41.9986 126.587 41.8543 126.587C41.5656 127.166 41.2769 127.456 40.844 127.601C40.411 127.746 39.8337 127.746 39.2564 127.601C38.9677 127.456 38.6791 127.311 38.3904 127.311L37.9574 127.021L37.5245 126.732C36.5142 126.008 35.6482 124.994 35.2152 123.98C34.6379 123.111 34.3493 122.097 34.205 121.518C34.0606 120.938 34.0606 120.504 34.0606 120.504C34.0606 120.504 34.0606 120.649 33.9163 120.793C33.9163 120.938 33.772 121.228 33.772 121.518C33.772 122.242 33.772 123.256 34.205 124.414C34.6379 125.573 35.3596 126.877 36.5142 127.89L36.9472 128.325L37.3801 128.615C37.6688 128.904 38.1018 129.049 38.5347 129.194C39.4007 129.484 40.411 129.628 41.4213 129.194C42.4316 128.904 43.1532 128.035 43.5862 127.166C43.7305 127.021 43.7305 126.732 43.8748 126.442C43.8748 126.152 43.8748 126.008 44.0191 125.863C44.0191 125.283 44.0191 124.994 44.0191 124.559C43.8748 123.256 43.1532 121.952 42.4316 120.938Z" fill="white" fill-opacity="0.2"/>
<path d="M34.3496 116.013C34.4939 115.289 34.3496 114.71 34.3496 114.13C34.2053 111.813 33.195 109.785 32.1847 108.337C31.6074 107.613 31.1744 107.033 30.5971 106.454C30.0198 106.02 29.5868 105.585 29.1538 105.295C28.7209 105.006 28.4322 104.861 28.1436 104.716C27.8549 104.571 27.7106 104.571 27.7106 104.571C27.7106 104.571 27.8549 104.716 27.9992 104.861C28.2879 105.006 28.4322 105.295 28.8652 105.585C29.5868 106.309 30.4528 107.468 31.1744 108.916C31.896 110.365 32.6177 112.248 32.6177 114.275C32.6177 114.71 32.6177 115.289 32.4733 115.724C32.4733 116.013 32.329 116.303 32.329 116.448C32.1847 116.593 32.1847 116.882 32.0404 117.027C31.6074 117.896 31.0301 118.476 30.1641 118.765C29.2982 119.055 28.2879 119.055 27.4219 118.765C26.9889 118.62 26.556 118.476 26.123 118.186L25.4014 117.751L24.824 117.317C23.2365 116.158 22.0818 114.565 21.2159 113.117C20.7829 112.392 20.4943 111.668 20.3499 111.089C20.2056 110.51 20.2056 109.93 20.0613 109.496C20.0613 109.061 19.9169 108.627 19.9169 108.337C19.9169 108.047 19.9169 107.903 19.9169 107.903C19.9169 107.903 19.9169 108.047 19.7726 108.337C19.7726 108.627 19.6283 109.061 19.6283 109.496C19.6283 110.075 19.6283 110.654 19.7726 111.379C19.9169 112.103 20.0613 112.972 20.3499 113.696C20.9272 115.434 22.0818 117.317 23.8138 118.765L24.5354 119.345L25.257 119.779C25.8343 120.069 26.2673 120.358 26.9889 120.648C28.1436 121.083 29.5868 121.227 31.0301 120.793C32.329 120.358 33.4836 119.2 33.9166 117.896C34.0609 117.606 34.2053 117.317 34.2053 116.882C34.2053 116.593 34.3496 116.303 34.3496 116.013Z" fill="white" fill-opacity="0.2"/>
<path d="M79.3797 52.1406C80.5343 48.9542 83.7095 47.2162 91.0701 46.2023C98.4308 45.1885 106.657 49.8232 115.894 48.23C125.853 46.492 114.451 43.885 102.616 40.2641C90.9258 36.6432 90.2042 40.6986 81.1116 39.5399C72.1634 38.3812 67.5449 40.4089 66.246 45.7678C65.6687 48.3749 55.4215 44.3195 55.4215 49.2439C55.4215 51.8509 56.7204 54.7476 63.2151 57.6444C69.4212 60.5411 78.2251 55.327 79.3797 52.1406Z" fill="white" fill-opacity="0.2"/>
<path d="M33.0508 100.081C34.9271 99.7916 35.9374 97.1845 35.3601 94.2878C34.7827 91.3911 32.9065 89.3634 31.0303 89.7979C29.154 90.0876 28.1437 92.6946 28.721 95.5913C29.2983 98.488 31.1746 100.371 33.0508 100.081Z" fill="white" fill-opacity="0.2"/>
<path d="M36.9474 105.875C37.8133 105.73 38.3906 104.426 38.102 102.978C37.8133 101.53 36.8031 100.516 35.9371 100.661C35.0711 100.806 34.4938 102.109 34.7825 103.557C35.0711 105.006 36.0814 106.02 36.9474 105.875Z" fill="white" fill-opacity="0.2"/>
<path d="M43.7305 117.606C43.0089 118.041 43.1532 119.344 43.8749 120.358C44.5965 121.372 45.7511 121.806 46.3284 121.372C47.05 120.937 46.9057 119.634 46.1841 118.62C45.4625 117.606 44.3078 117.172 43.7305 117.606Z" fill="white" fill-opacity="0.2"/>
<path d="M80.2455 116.883C77.5033 117.317 75.4828 119.634 75.9157 122.097C76.3487 124.414 78.9466 126.007 81.6888 125.428C84.431 124.993 86.4516 122.676 86.0186 120.214C85.5856 117.896 82.9877 116.448 80.2455 116.883Z" fill="white" fill-opacity="0.2"/>
<path d="M71.5862 116.303C70.1429 116.593 69.2769 117.751 69.4213 118.91C69.5656 120.069 70.8645 120.793 72.3078 120.648C73.7511 120.358 74.617 119.2 74.4727 118.041C74.184 116.882 72.8851 116.158 71.5862 116.303Z" fill="white" fill-opacity="0.2"/>
<path d="M77.9363 112.537C76.7816 112.682 76.06 113.696 76.2043 114.709C76.3487 115.723 77.5033 116.303 78.5136 116.013C79.6682 115.868 80.3898 114.854 80.2455 113.84C80.1011 112.827 79.0909 112.247 77.9363 112.537Z" fill="white" fill-opacity="0.2"/>
<path d="M91.9357 50.4026C89.1934 48.2301 85.2966 48.3749 83.2761 50.9819C81.1112 53.589 81.5442 57.4995 84.2864 59.6721C87.0286 61.8446 90.9254 61.6998 92.9459 59.0927C95.1108 56.4857 94.6779 52.72 91.9357 50.4026Z" fill="white" fill-opacity="0.2"/>
<path d="M96.8435 50.2577C95.8333 51.4164 95.9776 53.2992 97.2765 54.3131C98.5755 55.3269 100.452 55.1821 101.462 54.0234C102.472 52.8647 102.328 50.9819 101.029 49.968C99.7301 48.9542 97.8538 49.099 96.8435 50.2577Z" fill="white" fill-opacity="0.2"/>
<path d="M120.368 82.1219C119.069 83.2806 118.78 85.1635 119.646 86.3222C120.657 87.4808 122.388 87.4808 123.832 86.3222C125.131 85.1635 125.419 83.2806 124.553 82.1219C123.543 80.9633 121.667 80.9633 120.368 82.1219Z" fill="white" fill-opacity="0.2"/>
<path d="M92.3689 88.0601C93.8122 88.4946 95.1111 87.7704 95.5441 86.6118C95.8328 85.4531 95.1112 84.1495 93.6679 83.8599C92.2246 83.4254 90.9257 84.1495 90.4927 85.3082C90.0597 86.4669 90.9257 87.6256 92.3689 88.0601Z" fill="white" fill-opacity="0.2"/>
<path d="M16.8857 66.0453C18.4733 66.6246 20.4939 65.0314 21.2155 62.5692C22.0815 60.107 21.3599 57.6448 19.7723 57.0654C18.1847 56.4861 16.1641 58.0793 15.4425 60.5415C14.5765 63.0037 15.2981 65.4659 16.8857 66.0453Z" fill="white" fill-opacity="0.2"/>
<path d="M21.9375 48.2298C21.5045 49.3885 21.9375 50.4023 22.6592 50.692C23.3808 50.9817 24.2467 50.2575 24.6797 49.0988C25.1127 47.9401 24.6797 46.9263 23.9581 46.6366C23.2365 46.347 22.3705 47.0711 21.9375 48.2298Z" fill="white" fill-opacity="0.2"/>
<path d="M21.0718 52.7204C21.5047 51.272 21.2161 49.8237 20.2058 49.534C19.3398 49.2443 18.1852 50.1134 17.6079 51.5617C17.1749 53.0101 17.4636 54.4584 18.4739 54.7481C19.4842 55.0378 20.6388 54.1688 21.0718 52.7204Z" fill="white" fill-opacity="0.2"/>
<path d="M66.1016 21.4357C70.1428 20.4219 72.885 17.8149 72.3077 15.7872C71.7304 13.7595 68.1222 12.8904 64.0811 13.9043C60.0399 14.9181 57.2977 17.5252 57.875 19.5529C58.4523 21.5806 62.2048 22.4496 66.1016 21.4357Z" fill="white" fill-opacity="0.2"/>
<path d="M56.5764 23.6083C54.7002 24.4774 53.6899 26.0705 54.1229 27.0844C54.5559 28.0982 56.4321 28.0982 58.3084 27.2292C60.1846 26.3602 61.1949 24.767 60.7619 23.7532C60.1846 22.7393 58.3084 22.5945 56.5764 23.6083Z" fill="white" fill-opacity="0.2"/>
<path d="M131.048 41.2782C129.461 42.7266 130.327 46.3475 133.213 49.389C135.955 52.4305 139.564 53.7341 141.151 52.2857C142.739 50.8374 141.873 47.2165 138.986 44.1749C136.244 41.1334 132.636 39.8299 131.048 41.2782Z" fill="white" fill-opacity="0.2"/>
<path d="M82.4101 37.368C86.5955 37.2232 89.915 35.0506 89.7707 32.5884C89.6264 30.1262 86.3069 28.2434 82.1214 28.3882C77.9359 28.533 74.6164 30.7056 74.7608 33.1678C74.9051 35.63 78.2246 37.5128 82.4101 37.368Z" fill="white" fill-opacity="0.2"/>
<path d="M71.4418 38.6712C73.1737 38.6712 74.617 37.6574 74.617 36.6435C74.617 35.6297 73.1737 34.7607 71.2975 34.9055C69.5656 34.9055 68.1223 35.9193 68.1223 36.9332C68.2666 37.947 69.7099 38.8161 71.4418 38.6712Z" fill="white" fill-opacity="0.2"/>
<path d="M133.791 38.2362C134.512 37.512 133.935 35.6291 132.492 34.1808C131.048 32.7324 129.172 32.1531 128.451 33.0221C127.729 33.7462 128.306 35.6291 129.75 37.0775C131.193 38.5258 133.069 39.1052 133.791 38.2362Z" fill="white" fill-opacity="0.2"/>
<path d="M4.9071 55.3272C5.48441 53.8788 5.91738 52.4305 6.63902 50.9821C7.79363 47.9406 9.38122 44.899 11.1131 41.8575C12.8451 38.8159 14.8656 35.7744 17.0305 32.8777C19.1954 29.981 21.649 27.0842 24.3912 24.4772C26.989 21.8702 29.8756 19.408 32.7621 17.0906C35.6486 14.9181 38.6795 12.8904 41.7103 11.1523C44.7412 9.41431 47.7721 7.96595 50.8029 6.66243C52.2462 5.93826 53.8338 5.50375 55.1327 4.92441C56.576 4.4899 58.0192 3.91056 59.3182 3.62089C62.0604 2.89671 64.5139 2.17253 66.8231 1.73803C67.9778 1.59319 68.988 1.30352 69.9983 1.15868C71.0086 1.01385 71.8746 0.869013 72.7405 0.724178C74.3281 0.434507 75.7714 0.434507 76.6373 0.289671C77.5033 0.144836 78.0806 0.144836 78.0806 0.144836C78.0806 0.144836 77.6476 0.144836 76.6373 0.144836C75.7714 0.144836 74.4725 0 72.7405 0C71.8746 0 71.0086 0 69.9983 0C68.988 0.144836 67.8334 0.144836 66.6788 0.289671C64.3696 0.579342 61.6274 0.869013 58.8852 1.44836C57.4419 1.73803 55.9987 2.17253 54.4111 2.4622C52.9678 2.89671 51.3802 3.33122 49.7926 3.91056C46.6174 4.92441 43.4423 6.37276 40.1228 8.11079C36.9476 9.84881 33.6281 11.7317 30.4529 14.049C27.422 16.2216 24.3912 18.8286 21.649 21.5805C18.9068 24.3324 16.3089 27.3739 13.9997 30.5603C11.6904 33.7467 9.8142 36.9331 8.08228 40.2643C6.49469 43.5955 5.05143 46.7819 3.89681 49.9683C3.31951 51.5614 2.88653 53.1546 2.45355 54.603C2.02057 56.1962 1.73192 57.6445 1.44326 59.0929C0.865959 61.9896 0.432979 64.5966 0.288653 66.914C0.144326 67.9279 0.144326 69.0865 0 70.1004C0 71.1142 0 72.1281 0 72.8523C0 74.5903 0.144326 75.8938 0.144326 76.7628C0.144326 77.6318 0.144326 78.2112 0.144326 78.2112C0.144326 78.2112 0.144326 77.7767 0.288653 76.9077C0.432979 76.0387 0.432979 74.7351 0.721632 72.9971C0.865959 72.1281 1.01029 71.2591 1.15461 70.2452C1.29894 69.2314 1.58759 68.2175 1.73192 67.0589C2.1649 64.7415 2.7422 62.2793 3.60816 59.5274C4.04114 58.079 4.47412 56.7755 4.9071 55.3272Z" fill="white" fill-opacity="0.2"/>
</svg>
